<?xml version="1.0" encoding="utf-8"?>
<!-- Generator: Adobe Illustrator 27.5.0, SVG Export Plug-In . SVG Version: 6.00 Build 0)  -->
<svg version="1.1" id="Ñëîé_1" xmlns="http://www.w3.org/2000/svg" xmlns:xlink="http://www.w3.org/1999/xlink" x="0px" y="0px"
	 viewBox="0 0 600 400" style="enable-background:new 0 0 600 400;" xml:space="preserve">
<g>
	<g>
		<path style="fill:#79A7A8;" d="M121.631,172.841l-0.663-0.748c35.314-31.315,40.163-99.847,40.208-100.536l0.998,0.065
			C162.128,72.315,157.249,141.257,121.631,172.841z"/>
	</g>
	<g>
		<path style="fill:#79A7A8;" d="M114.37,187.494l-0.795-0.606c0.112-0.148,2.975-3.828,23.165-23.13
			c20.026-19.146,24.396-64.038,24.438-64.489l0.996,0.092c-0.042,0.455-4.449,45.718-24.742,65.12
			C117.386,183.643,114.398,187.457,114.37,187.494z"/>
	</g>
	<g>
		<polygon style="fill:#A6CACC;" points="171.869,63.161 161.675,335.507 159.611,335.611 159.611,63.161 		"/>
	</g>
	<g>
		<path style="fill:#BCE5EC;" d="M265.579,180.504c-10.49,0-21.623-2.14-27.473-9.912l0.799-0.602
			c12.342,16.397,50.734,6.445,51.12,6.343l0.256,0.967C289.414,177.531,277.944,180.504,265.579,180.504z"/>
	</g>
	<g>
		<path style="fill:#BCE5EC;" d="M280.156,189.216c-12.589,0-34.012-2.045-41.007-15.261l0.884-0.468
			c9.602,18.142,49.082,14.369,49.478,14.328l0.101,0.995C289.126,188.86,285.41,189.216,280.156,189.216z"/>
	</g>
	<g>
		<polygon style="fill:#BCE5EC;" points="86.74,335.611 86.74,164.118 159.611,164.118 159.611,63.161 245.533,63.161 
			245.533,288.383 279.461,288.383 279.461,146.617 326.853,99.224 375.147,147.518 375.147,288.296 418.466,288.296 
			418.466,103.414 457.62,103.414 513.26,159.053 513.26,336.347 		"/>
	</g>
	<g>
		<polygon style="fill:#D0F0F4;" points="473.702,119.785 451.273,288.296 418.466,288.296 418.466,103.414 457.62,103.414 		"/>
	</g>
	<g>
		<polygon style="fill:#D0F0F4;" points="126.045,164.118 103.196,335.639 87.028,335.611 86.74,164.118 		"/>
	</g>
	<g>
		<polygon style="fill:#D0F0F4;" points="279.461,146.617 279.461,288.383 305.667,288.48 342.316,114.687 326.853,99.224 		"/>
	</g>
	<g>
		<rect x="159.611" y="63.161" style="fill:#91BBC1;" width="85.922" height="272.45"/>
	</g>
	<g>
		<rect x="245.533" y="283.586" style="fill:#91BBC1;" width="229.162" height="52.025"/>
	</g>
	<g>
		<rect x="240.85" y="63.161" style="fill:#80AFB2;" width="4.683" height="272.45"/>
	</g>
	<g>
		<polygon style="fill:#6C9D9E;" points="275.576,283.586 267.056,288.48 267.056,335.611 245.533,335.611 245.533,283.586 		"/>
	</g>
	<g>
		<polygon style="fill:#A6CACC;" points="223.906,63.161 159.611,63.161 159.611,335.611 168.029,335.611 		"/>
	</g>
	<g>
		<polygon style="fill:#BCD8D8;" points="171.869,63.161 161.675,335.507 159.611,335.611 159.611,63.161 		"/>
	</g>
	<g>
		<g>
			<rect x="300.076" y="294.473" style="fill:#D7F0F3;" width="67.729" height="33.253"/>
		</g>
		<g>
			<path style="fill:#E4F5F7;" d="M300.076,294.473v33.253h22.394c16.466-13.093,23.599-27.745,25.844-33.253H300.076z"/>
		</g>
		<g style="opacity:0.25;">
			<path style="fill:#79A7A8;" d="M367.805,300.634h-1.477h-11.495h-11.495h-11.495h-11.495h-11.495h-8.778v7.984
				c2.922,1.045,6.067,0.556,8.778-1.473c3.579,2.679,7.916,2.679,11.495,0h0c3.579,2.679,7.916,2.679,11.495,0
				c3.579,2.679,7.916,2.679,11.495,0c3.579,2.679,7.916,2.679,11.495,0c3.579,2.679,7.916,2.679,11.495,0
				c0.48,0.359,0.974,0.666,1.477,0.929V300.634z"/>
		</g>
		<g>
			<rect x="295.293" y="327.725" style="fill:#D7F0F3;" width="77.294" height="1.62"/>
		</g>
		<g>
			<polygon style="fill:#80AFB2;" points="374.172,296.964 293.708,296.964 298.938,292.208 368.942,292.208 			"/>
		</g>
		<g>
			<g>
				<path style="fill:#79A7A8;" d="M305.203,303.474L305.203,303.474c-3.579,2.679-7.916,2.679-11.495,0l0,0v-6.51h11.495V303.474z"
					/>
			</g>
			<g>
				<path style="fill:#6D9D9E;" d="M316.698,303.474L316.698,303.474c-3.579,2.679-7.916,2.679-11.495,0l0,0v-6.51h11.495V303.474z"
					/>
			</g>
			<g>
				<path style="fill:#79A7A8;" d="M328.193,303.474L328.193,303.474c-3.579,2.679-7.916,2.679-11.495,0l0,0v-6.51h11.495V303.474z"
					/>
			</g>
			<g>
				<path style="fill:#6D9D9E;" d="M339.688,303.474L339.688,303.474c-3.579,2.679-7.916,2.679-11.495,0l0,0v-6.51h11.495V303.474z"
					/>
			</g>
			<g>
				<path style="fill:#79A7A8;" d="M351.182,303.474L351.182,303.474c-3.579,2.679-7.916,2.679-11.495,0l0,0v-6.51h11.495V303.474z"
					/>
			</g>
			<g>
				<path style="fill:#6D9D9E;" d="M362.677,303.474L362.677,303.474c-3.579,2.679-7.916,2.679-11.495,0l0,0v-6.51h11.495V303.474z"
					/>
			</g>
			<g>
				<path style="fill:#79A7A8;" d="M374.172,303.474L374.172,303.474c-3.579,2.679-7.916,2.679-11.495,0l0,0v-6.51h11.495V303.474z"
					/>
			</g>
		</g>
	</g>
	<g>
		<g>
			<path style="fill:#F8CD99;" d="M172.622,278.993c0,20.283-8.104,28.652-16.593,28.652s-17.117-3.509-17.117-23.792
				c0-20.283,8.628-49.658,17.117-49.658S172.622,258.71,172.622,278.993z"/>
		</g>
		<g>
			<path style="fill:#CEA26E;" d="M156.029,307.644c8.489,0,16.593-8.369,16.593-28.652c0-17.963-6.357-39.244-13.708-43.876
				c9.715,8.604,11.874,36.264,6.459,55.656c-5.172,18.524-22.702,10.441-22.751,10.423
				C145.926,306.412,151.002,307.644,156.029,307.644z"/>
		</g>
		<g>
			<polygon style="fill:#7C6242;" points="153.907,337.999 153.593,312.86 151.085,307.496 152.977,306.257 153.24,297.282 
				155.749,297.355 156.306,338.116 			"/>
		</g>
		<g style="opacity:0.43;">
			<path style="fill:#FFFFFF;" d="M154.457,311.732c-0.285-1.027-1.635-1.94-2.538-2.451l1.673,3.579l0.314,25.139l1.23,0.06
				C155.071,332.184,154.826,313.061,154.457,311.732z"/>
		</g>
		<g>
			<path style="fill:#FAD7AD;" d="M139.234,276.656c0,0,6.453-39.602,19.68-41.539l0,0c-0.949-0.598-1.914-0.922-2.885-0.922
				C148.503,234.195,140.869,257.284,139.234,276.656L139.234,276.656z"/>
		</g>
		<g>
			<path style="fill:#CEA26E;" d="M136.275,262.937c-0.217,0.074-0.311,0.327-0.195,0.525c0.456,0.773,1.644,2.486,3.301,2.625
				c2.145,0.18,2.344-0.831,2.344-0.831s0.508-0.896-1.236-2.158C139.143,262.123,137.125,262.648,136.275,262.937z"/>
		</g>
		<g>
			<path style="fill:#CEA26E;" d="M150.131,289.774c-0.201-0.11-0.452-0.009-0.519,0.211c-0.264,0.858-0.726,2.891,0.289,4.207
				c1.315,1.705,2.195,1.17,2.195,1.17s1.004-0.23,0.759-2.369C152.666,291.341,150.918,290.206,150.131,289.774z"/>
		</g>
		<g>
			<path style="fill:#CEA26E;" d="M158.9,249.496c-0.066-0.133-0.237-0.172-0.354-0.08c-0.458,0.36-1.456,1.273-1.401,2.35
				c0.07,1.395,0.738,1.435,0.738,1.435s0.62,0.249,1.28-0.982C159.673,251.269,159.16,250.017,158.9,249.496z"/>
		</g>
		<g>
			<path style="fill:#CEA26E;" d="M163.094,249.233c0.001-0.149-0.135-0.26-0.281-0.231c-0.571,0.115-1.873,0.48-2.31,1.466
				c-0.566,1.277,0.012,1.613,0.012,1.613s0.441,0.502,1.585-0.299C162.984,251.163,163.091,249.815,163.094,249.233z"/>
		</g>
		<g>
			<path style="fill:#CEA26E;" d="M157.827,290.423c-0.04-0.136-0.193-0.201-0.319-0.135c-0.49,0.26-1.58,0.946-1.711,1.964
				c-0.17,1.319,0.448,1.47,0.448,1.47s0.539,0.338,1.366-0.703C158.25,292.215,157.982,290.956,157.827,290.423z"/>
		</g>
	</g>
	<g>
		<g>
			<path style="fill:#91BBC1;" d="M115.914,307.353c-0.025-0.305-0.054-0.611-0.087-0.919c-0.011-0.101-0.023-0.202-0.035-0.303
				c-0.023-0.208-0.047-0.415-0.074-0.624c-0.015-0.12-0.032-0.24-0.049-0.361c-0.026-0.191-0.053-0.382-0.081-0.573
				c-0.019-0.128-0.039-0.255-0.059-0.383c-0.029-0.185-0.059-0.37-0.091-0.556c-0.022-0.13-0.045-0.259-0.068-0.389
				c-0.033-0.187-0.068-0.373-0.104-0.56c-0.024-0.126-0.048-0.253-0.073-0.379c-0.038-0.193-0.079-0.385-0.119-0.577
				c-0.025-0.119-0.05-0.238-0.076-0.357c-0.047-0.214-0.096-0.426-0.146-0.639c-0.022-0.096-0.044-0.193-0.067-0.289
				c-0.073-0.306-0.149-0.61-0.227-0.913c-0.017-0.065-0.035-0.129-0.052-0.194c-0.063-0.239-0.127-0.478-0.193-0.715
				c-0.032-0.115-0.066-0.229-0.099-0.344c-0.053-0.185-0.106-0.369-0.161-0.553c-0.038-0.127-0.077-0.252-0.115-0.378
				c-0.052-0.17-0.105-0.34-0.159-0.508c-0.041-0.13-0.084-0.258-0.126-0.387c-0.053-0.161-0.107-0.322-0.161-0.482
				c-0.044-0.13-0.089-0.26-0.134-0.388c-0.055-0.157-0.111-0.312-0.167-0.466c-0.046-0.127-0.092-0.254-0.139-0.38
				c-0.058-0.155-0.117-0.307-0.176-0.46c-0.047-0.121-0.093-0.243-0.141-0.363c-0.065-0.163-0.132-0.323-0.198-0.484
				c-0.043-0.105-0.086-0.211-0.13-0.315c-0.106-0.251-0.215-0.498-0.324-0.741c-0.051-0.112-0.102-0.22-0.153-0.33
				c-0.064-0.138-0.127-0.276-0.192-0.411c-0.057-0.118-0.114-0.233-0.171-0.348c-0.06-0.121-0.12-0.243-0.181-0.362
				c-0.06-0.118-0.121-0.232-0.182-0.347c-0.059-0.111-0.118-0.222-0.178-0.331c-0.063-0.114-0.126-0.226-0.189-0.337
				c-0.059-0.104-0.118-0.206-0.178-0.307c-0.064-0.109-0.129-0.217-0.194-0.323c-0.059-0.097-0.119-0.191-0.179-0.285
				c-0.066-0.104-0.132-0.207-0.198-0.307c-0.059-0.089-0.119-0.174-0.178-0.261c-0.068-0.098-0.135-0.197-0.203-0.291
				c-0.059-0.081-0.118-0.157-0.177-0.236c-0.135-0.179-0.271-0.351-0.408-0.514c-0.055-0.065-0.109-0.134-0.164-0.196
				c-0.07-0.08-0.141-0.154-0.211-0.229c-0.06-0.064-0.119-0.129-0.178-0.19c-0.07-0.071-0.14-0.136-0.21-0.203
				c-0.061-0.057-0.121-0.115-0.182-0.169c-0.07-0.062-0.14-0.119-0.209-0.176c-0.061-0.05-0.122-0.098-0.183-0.144
				c-0.07-0.053-0.14-0.103-0.21-0.15c-0.061-0.042-0.122-0.08-0.183-0.118c-0.07-0.043-0.139-0.085-0.209-0.123
				c-0.02-0.011-0.04-0.025-0.06-0.035c0.006,0.004,0.011,0.009,0.017,0.014c-0.008-0.004-0.015-0.008-0.023-0.012
				c0.002,0,0.004-0.002,0.007-0.002l0,0c-0.04-0.021-0.08-0.035-0.12-0.055c-0.072-0.034-0.144-0.069-0.215-0.097
				c-0.064-0.025-0.128-0.045-0.192-0.065c-0.066-0.021-0.133-0.045-0.199-0.061c-0.077-0.019-0.154-0.029-0.231-0.041
				c-0.052-0.008-0.105-0.021-0.158-0.025c-0.13-0.011-0.259-0.013-0.388-0.003c-0.128,0.01-0.254,0.036-0.38,0.072
				c-0.041,0.012-0.082,0.031-0.123,0.046c-0.084,0.03-0.168,0.061-0.251,0.102c-0.048,0.024-0.095,0.053-0.143,0.08
				c-0.075,0.043-0.15,0.088-0.224,0.14c-0.05,0.035-0.099,0.073-0.148,0.111c-0.072,0.056-0.143,0.115-0.213,0.179
				c-0.049,0.044-0.098,0.09-0.146,0.138c-0.07,0.069-0.14,0.144-0.209,0.221c-0.047,0.052-0.094,0.105-0.141,0.161
				c-0.071,0.085-0.141,0.176-0.211,0.269c-0.043,0.057-0.086,0.112-0.129,0.172c-0.077,0.109-0.153,0.225-0.228,0.343
				c-0.034,0.053-0.069,0.102-0.102,0.157c-0.108,0.176-0.215,0.36-0.32,0.554c-0.016,0.029-0.031,0.062-0.047,0.091
				c-0.089,0.167-0.177,0.339-0.264,0.518c-0.036,0.075-0.072,0.156-0.108,0.233c-0.065,0.14-0.13,0.281-0.193,0.427
				c-0.04,0.092-0.079,0.188-0.118,0.283c-0.058,0.138-0.115,0.278-0.171,0.422c-0.041,0.104-0.081,0.21-0.121,0.317
				c-0.054,0.143-0.106,0.287-0.159,0.434c-0.04,0.111-0.079,0.224-0.118,0.337c-0.051,0.15-0.102,0.303-0.152,0.457
				c-0.037,0.116-0.075,0.231-0.111,0.349c-0.05,0.161-0.099,0.326-0.148,0.491c-0.034,0.117-0.069,0.232-0.103,0.35
				c-0.052,0.184-0.103,0.372-0.153,0.56c-0.028,0.103-0.056,0.205-0.084,0.309c-0.075,0.289-0.148,0.582-0.219,0.88
				c-0.025,0.105-0.048,0.213-0.073,0.318c-0.046,0.2-0.092,0.4-0.136,0.604c-0.03,0.139-0.059,0.279-0.088,0.419
				c-0.036,0.176-0.073,0.351-0.108,0.529c-0.029,0.149-0.058,0.299-0.086,0.45c-0.032,0.172-0.064,0.344-0.096,0.517
				c-0.028,0.157-0.055,0.314-0.082,0.472c-0.029,0.169-0.057,0.339-0.084,0.51c-0.026,0.162-0.052,0.324-0.077,0.487
				c-0.026,0.17-0.051,0.341-0.075,0.513c-0.024,0.164-0.047,0.328-0.069,0.494c-0.023,0.173-0.045,0.347-0.067,0.52
				c-0.021,0.164-0.042,0.328-0.062,0.493c-0.002,0.012-0.003,0.025-0.005,0.037c-0.093-0.079-0.2-0.161-0.34-0.246
				c-0.724-0.439-1.727-0.088-2.146,0.094c-0.107,0.047-0.144,0.179-0.077,0.275c0.264,0.374,0.938,1.193,1.785,1.195
				c0.276,0,0.486-0.033,0.646-0.082c-0.023,0.239-0.046,0.478-0.067,0.718c-0.014,0.163-0.026,0.326-0.038,0.49
				c-0.014,0.177-0.028,0.353-0.04,0.529c-0.012,0.173-0.022,0.345-0.032,0.517c-0.01,0.166-0.02,0.333-0.029,0.499
				c-0.009,0.174-0.016,0.347-0.024,0.52c-0.007,0.165-0.014,0.33-0.019,0.494c-0.006,0.172-0.011,0.342-0.015,0.513
				c-0.004,0.164-0.007,0.327-0.01,0.489c-0.003,0.171-0.005,0.341-0.006,0.511c0,0.058-0.002,0.116-0.002,0.173l0,0
				c0,0,0.001-0.016,0.002-0.022c-0.003,1.274,0.039,2.515,0.135,3.689c0.374,4.556,1.47,7.372,2.948,9.068
				c0.029,0.033,0.058,0.064,0.088,0.096c0.089,0.098,0.179,0.193,0.27,0.284c0.036,0.036,0.073,0.071,0.11,0.105
				c0.088,0.083,0.176,0.163,0.266,0.239c0.037,0.032,0.075,0.064,0.112,0.095c0.096,0.079,0.194,0.153,0.293,0.224
				c0.031,0.022,0.061,0.046,0.091,0.067c0.263,0.183,0.534,0.343,0.811,0.48c0.028,0.014,0.056,0.026,0.084,0.039
				c0.109,0.052,0.219,0.101,0.329,0.147c0.043,0.017,0.086,0.034,0.128,0.05c0.098,0.038,0.197,0.074,0.297,0.107
				c0.046,0.015,0.093,0.031,0.139,0.045c0.101,0.031,0.202,0.06,0.304,0.087c0.043,0.011,0.086,0.023,0.13,0.034
				c0.117,0.029,0.235,0.054,0.354,0.077c0.027,0.005,0.055,0.012,0.082,0.017c0.148,0.027,0.296,0.051,0.446,0.07
				c0.024,0.003,0.049,0.005,0.074,0.008c0.003,0,0.006,0.001,0.008,0.001l-0.198,0.154l1.497,2.618l1.208,12.749l1.223-0.04
				l-1.482-15.453c0.023-0.002,0.047-0.003,0.071-0.005c1.481-0.122,2.898-0.744,4.086-1.926
				C115.038,318.409,116.469,314.111,115.914,307.353L115.914,307.353L115.914,307.353z"/>
		</g>
		<g>
			<path style="fill:#91BBC1;" d="M217.214,299.636c0-0.391-0.005-0.784-0.014-1.179c-0.003-0.13-0.009-0.26-0.013-0.39
				c-0.008-0.267-0.017-0.534-0.029-0.803c-0.007-0.155-0.016-0.31-0.024-0.465c-0.013-0.246-0.027-0.492-0.043-0.738
				c-0.011-0.164-0.023-0.329-0.035-0.493c-0.018-0.239-0.037-0.478-0.058-0.717c-0.015-0.167-0.03-0.335-0.046-0.502
				c-0.023-0.241-0.048-0.482-0.074-0.723c-0.018-0.164-0.035-0.327-0.054-0.49c-0.029-0.249-0.06-0.499-0.092-0.748
				c-0.02-0.154-0.038-0.309-0.059-0.463c-0.037-0.277-0.078-0.553-0.118-0.829c-0.018-0.125-0.035-0.251-0.055-0.376
				c-0.061-0.397-0.125-0.792-0.193-1.186c-0.015-0.085-0.031-0.168-0.046-0.253c-0.055-0.311-0.111-0.622-0.171-0.93
				c-0.029-0.15-0.06-0.299-0.09-0.449c-0.048-0.241-0.096-0.482-0.147-0.72c-0.035-0.165-0.072-0.329-0.108-0.493
				c-0.049-0.222-0.098-0.444-0.149-0.664c-0.039-0.169-0.079-0.338-0.12-0.506c-0.051-0.211-0.102-0.421-0.155-0.63
				c-0.043-0.17-0.086-0.34-0.13-0.509c-0.054-0.205-0.109-0.408-0.164-0.611c-0.046-0.167-0.091-0.334-0.138-0.499
				c-0.058-0.203-0.117-0.404-0.176-0.604c-0.047-0.159-0.093-0.319-0.142-0.477c-0.066-0.215-0.134-0.425-0.201-0.637
				c-0.044-0.138-0.087-0.278-0.132-0.414c-0.109-0.331-0.221-0.657-0.335-0.978c-0.053-0.148-0.107-0.291-0.161-0.437
				c-0.067-0.182-0.133-0.365-0.202-0.544c-0.06-0.156-0.121-0.308-0.182-0.461c-0.064-0.161-0.128-0.322-0.193-0.479
				c-0.064-0.156-0.13-0.309-0.195-0.461c-0.064-0.148-0.127-0.296-0.192-0.44c-0.068-0.152-0.136-0.301-0.205-0.449
				c-0.064-0.138-0.129-0.274-0.194-0.409c-0.07-0.146-0.141-0.29-0.213-0.432c-0.065-0.13-0.132-0.256-0.198-0.382
				c-0.073-0.139-0.146-0.278-0.22-0.412c-0.066-0.12-0.133-0.234-0.2-0.35c-0.076-0.132-0.151-0.265-0.228-0.392
				c-0.066-0.11-0.134-0.213-0.201-0.319c-0.154-0.243-0.309-0.475-0.465-0.697c-0.063-0.089-0.125-0.181-0.188-0.267
				c-0.081-0.11-0.163-0.21-0.245-0.314c-0.069-0.087-0.138-0.177-0.207-0.26c-0.082-0.098-0.164-0.188-0.246-0.28
				c-0.071-0.079-0.142-0.159-0.214-0.234c-0.082-0.086-0.165-0.167-0.248-0.247c-0.072-0.07-0.145-0.138-0.218-0.203
				c-0.083-0.075-0.167-0.145-0.251-0.213c-0.073-0.059-0.147-0.115-0.221-0.17c-0.084-0.062-0.169-0.123-0.253-0.178
				c-0.024-0.016-0.048-0.035-0.072-0.051c0.007,0.006,0.013,0.013,0.02,0.019c-0.009-0.006-0.019-0.011-0.028-0.017
				c0.003,0,0.006-0.002,0.009-0.002l0,0c-0.049-0.031-0.099-0.053-0.148-0.082c-0.088-0.051-0.176-0.103-0.264-0.146
				c-0.079-0.039-0.158-0.07-0.237-0.103c-0.082-0.034-0.164-0.072-0.247-0.099c-0.096-0.032-0.193-0.054-0.29-0.077
				c-0.066-0.016-0.132-0.037-0.198-0.048c-0.164-0.028-0.329-0.044-0.494-0.044c-0.164,0-0.327,0.02-0.491,0.052
				c-0.054,0.011-0.108,0.031-0.161,0.045c-0.11,0.029-0.22,0.06-0.33,0.104c-0.064,0.025-0.127,0.058-0.19,0.087
				c-0.1,0.047-0.2,0.096-0.3,0.155c-0.067,0.039-0.133,0.082-0.2,0.126c-0.097,0.064-0.194,0.132-0.29,0.206
				c-0.067,0.051-0.134,0.105-0.201,0.161c-0.097,0.081-0.193,0.168-0.289,0.259c-0.065,0.062-0.131,0.123-0.196,0.19
				c-0.099,0.101-0.198,0.21-0.297,0.321c-0.061,0.068-0.122,0.134-0.182,0.206c-0.109,0.13-0.218,0.271-0.327,0.413
				c-0.049,0.064-0.098,0.123-0.147,0.189c-0.156,0.213-0.311,0.436-0.465,0.671c-0.023,0.036-0.046,0.075-0.069,0.111
				c-0.131,0.204-0.261,0.413-0.39,0.633c-0.054,0.092-0.108,0.19-0.162,0.285c-0.097,0.171-0.194,0.344-0.291,0.524
				c-0.061,0.113-0.12,0.231-0.18,0.347c-0.088,0.17-0.175,0.342-0.262,0.519c-0.063,0.128-0.125,0.259-0.187,0.391
				c-0.083,0.176-0.166,0.354-0.248,0.536c-0.062,0.138-0.124,0.276-0.185,0.417c-0.081,0.186-0.161,0.375-0.241,0.566
				c-0.06,0.143-0.119,0.286-0.178,0.432c-0.081,0.2-0.16,0.405-0.24,0.61c-0.056,0.145-0.113,0.288-0.168,0.435
				c-0.086,0.229-0.17,0.463-0.254,0.698c-0.046,0.129-0.093,0.255-0.139,0.385c-0.126,0.36-0.249,0.726-0.371,1.097
				c-0.043,0.131-0.084,0.266-0.126,0.398c-0.08,0.25-0.16,0.5-0.237,0.755c-0.053,0.173-0.104,0.35-0.156,0.525
				c-0.065,0.22-0.13,0.439-0.193,0.662c-0.053,0.187-0.105,0.375-0.157,0.564c-0.059,0.215-0.118,0.431-0.176,0.648
				c-0.052,0.197-0.103,0.394-0.154,0.593c-0.054,0.213-0.108,0.426-0.161,0.64c-0.05,0.203-0.1,0.407-0.148,0.612
				c-0.051,0.214-0.1,0.429-0.15,0.645c-0.047,0.207-0.094,0.413-0.14,0.621c-0.048,0.218-0.094,0.437-0.14,0.656
				c-0.044,0.207-0.088,0.414-0.13,0.621c-0.003,0.016-0.007,0.031-0.01,0.047c-0.11-0.111-0.238-0.226-0.408-0.348
				c-0.877-0.634-2.19-0.293-2.743-0.104c-0.141,0.048-0.202,0.213-0.127,0.342c0.297,0.503,1.07,1.618,2.148,1.708
				c0.352,0.029,0.623,0.009,0.832-0.037c-0.055,0.302-0.109,0.604-0.16,0.907c-0.035,0.207-0.067,0.413-0.1,0.62
				c-0.036,0.223-0.072,0.447-0.106,0.67c-0.033,0.219-0.064,0.437-0.095,0.655c-0.03,0.211-0.06,0.422-0.089,0.632
				c-0.03,0.22-0.057,0.44-0.085,0.66c-0.026,0.21-0.052,0.419-0.076,0.628c-0.025,0.218-0.049,0.435-0.072,0.652
				c-0.022,0.208-0.043,0.415-0.064,0.622c-0.021,0.217-0.042,0.434-0.061,0.65c-0.006,0.073-0.014,0.147-0.021,0.221l0,0
				c0,0,0.003-0.021,0.004-0.027c-0.137,1.622-0.214,3.206-0.214,4.712c0,5.841,1.1,9.542,2.805,11.856
				c0.033,0.045,0.068,0.087,0.102,0.132c0.103,0.134,0.207,0.265,0.314,0.39c0.042,0.05,0.085,0.098,0.129,0.146
				c0.103,0.115,0.207,0.226,0.314,0.332c0.044,0.044,0.088,0.089,0.133,0.132c0.115,0.11,0.232,0.215,0.35,0.316
				c0.037,0.031,0.072,0.064,0.109,0.095c0.316,0.261,0.644,0.492,0.982,0.696c0.034,0.021,0.069,0.039,0.103,0.059
				c0.133,0.078,0.268,0.152,0.404,0.221c0.052,0.027,0.105,0.052,0.158,0.077c0.121,0.059,0.244,0.115,0.367,0.168
				c0.057,0.025,0.115,0.049,0.173,0.072c0.125,0.05,0.251,0.098,0.378,0.142c0.054,0.019,0.107,0.039,0.161,0.057
				c0.146,0.049,0.294,0.093,0.442,0.135c0.034,0.01,0.068,0.021,0.103,0.03c0.186,0.05,0.372,0.095,0.56,0.136
				c0.031,0.007,0.062,0.012,0.093,0.018c0.004,0.001,0.007,0.001,0.011,0.002l-0.269,0.176l1.632,3.491l0.204,16.361l1.561,0.077
				l-0.271-19.834c0.03,0,0.061,0.001,0.091,0.001c1.899,0,3.769-0.644,5.405-2.025
				C214.942,313.623,217.214,308.299,217.214,299.636L217.214,299.636L217.214,299.636z"/>
		</g>
		<g>
			<path style="fill:#91BBC1;" d="M407.185,303.345c0-0.353-0.005-0.709-0.013-1.066c-0.003-0.117-0.008-0.235-0.011-0.353
				c-0.007-0.241-0.015-0.483-0.026-0.725c-0.006-0.14-0.015-0.28-0.022-0.42c-0.012-0.222-0.024-0.444-0.039-0.667
				c-0.01-0.148-0.021-0.297-0.032-0.446c-0.016-0.216-0.033-0.432-0.052-0.648c-0.013-0.151-0.027-0.302-0.041-0.454
				c-0.021-0.218-0.043-0.436-0.066-0.654c-0.016-0.148-0.031-0.295-0.049-0.443c-0.026-0.225-0.054-0.451-0.083-0.676
				c-0.018-0.139-0.035-0.279-0.053-0.418c-0.034-0.25-0.07-0.5-0.107-0.749c-0.017-0.113-0.032-0.227-0.049-0.339
				c-0.055-0.359-0.113-0.716-0.175-1.072c-0.013-0.076-0.028-0.152-0.042-0.228c-0.05-0.281-0.101-0.562-0.154-0.841
				c-0.026-0.136-0.054-0.27-0.081-0.405c-0.043-0.218-0.087-0.435-0.133-0.651c-0.032-0.149-0.065-0.297-0.097-0.446
				c-0.044-0.201-0.089-0.401-0.135-0.6c-0.036-0.153-0.072-0.305-0.108-0.457c-0.046-0.191-0.092-0.38-0.14-0.569
				c-0.039-0.154-0.078-0.307-0.118-0.46c-0.048-0.185-0.098-0.369-0.148-0.552c-0.041-0.151-0.082-0.302-0.125-0.451
				c-0.052-0.184-0.106-0.365-0.159-0.546c-0.042-0.144-0.084-0.289-0.128-0.431c-0.059-0.194-0.121-0.384-0.182-0.575
				c-0.04-0.125-0.079-0.251-0.12-0.374c-0.099-0.299-0.2-0.594-0.302-0.883c-0.048-0.134-0.097-0.263-0.145-0.395
				c-0.06-0.165-0.12-0.33-0.182-0.491c-0.054-0.141-0.109-0.278-0.164-0.417c-0.058-0.145-0.115-0.291-0.174-0.433
				c-0.058-0.141-0.117-0.279-0.177-0.417c-0.057-0.134-0.115-0.267-0.173-0.398c-0.061-0.137-0.123-0.272-0.185-0.406
				c-0.058-0.125-0.117-0.248-0.176-0.37c-0.064-0.132-0.128-0.262-0.192-0.39c-0.059-0.117-0.119-0.231-0.179-0.345
				c-0.066-0.125-0.132-0.251-0.199-0.372c-0.06-0.108-0.12-0.212-0.181-0.317c-0.068-0.119-0.136-0.239-0.206-0.354
				c-0.06-0.099-0.121-0.192-0.181-0.288c-0.139-0.219-0.279-0.429-0.421-0.63c-0.057-0.08-0.113-0.164-0.17-0.241
				c-0.073-0.099-0.148-0.19-0.222-0.284c-0.062-0.079-0.124-0.16-0.187-0.235c-0.074-0.088-0.148-0.17-0.223-0.253
				c-0.064-0.072-0.128-0.144-0.193-0.211c-0.075-0.078-0.15-0.151-0.225-0.223c-0.065-0.063-0.131-0.125-0.197-0.183
				c-0.076-0.067-0.151-0.131-0.227-0.193c-0.066-0.054-0.133-0.104-0.199-0.153c-0.076-0.056-0.152-0.111-0.229-0.161
				c-0.022-0.014-0.043-0.032-0.065-0.046c0.006,0.005,0.012,0.012,0.018,0.017c-0.009-0.005-0.017-0.01-0.026-0.015
				c0.003,0,0.005-0.001,0.008-0.002h0c-0.044-0.028-0.089-0.048-0.134-0.074c-0.079-0.046-0.159-0.093-0.238-0.132
				c-0.071-0.035-0.143-0.064-0.214-0.093c-0.074-0.031-0.149-0.065-0.223-0.09c-0.087-0.029-0.174-0.048-0.262-0.069
				c-0.06-0.014-0.119-0.034-0.179-0.044c-0.148-0.026-0.297-0.04-0.446-0.04c-0.148,0-0.296,0.018-0.444,0.047
				c-0.049,0.01-0.097,0.028-0.146,0.041c-0.099,0.026-0.199,0.055-0.298,0.094c-0.057,0.023-0.115,0.052-0.172,0.079
				c-0.09,0.043-0.181,0.087-0.271,0.14c-0.06,0.035-0.12,0.075-0.181,0.114c-0.088,0.058-0.175,0.119-0.262,0.186
				c-0.061,0.046-0.121,0.095-0.181,0.145c-0.087,0.073-0.174,0.152-0.261,0.234c-0.059,0.056-0.118,0.111-0.177,0.171
				c-0.09,0.091-0.179,0.19-0.268,0.29c-0.055,0.062-0.11,0.121-0.165,0.186c-0.099,0.118-0.197,0.244-0.295,0.373
				c-0.044,0.058-0.089,0.111-0.133,0.171c-0.141,0.192-0.281,0.394-0.42,0.607c-0.021,0.032-0.042,0.068-0.063,0.101
				c-0.118,0.184-0.236,0.373-0.352,0.572c-0.049,0.083-0.097,0.172-0.146,0.258c-0.088,0.155-0.176,0.31-0.263,0.473
				c-0.055,0.102-0.109,0.209-0.163,0.314c-0.079,0.154-0.158,0.309-0.237,0.469c-0.057,0.116-0.113,0.234-0.169,0.353
				c-0.075,0.159-0.15,0.32-0.224,0.484c-0.056,0.124-0.112,0.25-0.168,0.377c-0.073,0.168-0.145,0.339-0.217,0.512
				c-0.054,0.13-0.108,0.258-0.161,0.391c-0.073,0.181-0.145,0.366-0.217,0.551c-0.051,0.131-0.102,0.26-0.152,0.393
				c-0.078,0.207-0.153,0.418-0.229,0.63c-0.042,0.116-0.084,0.23-0.126,0.348c-0.114,0.325-0.225,0.655-0.335,0.991
				c-0.039,0.118-0.076,0.24-0.114,0.36c-0.072,0.226-0.144,0.452-0.214,0.682c-0.048,0.157-0.094,0.316-0.141,0.474
				c-0.059,0.199-0.117,0.397-0.174,0.598c-0.048,0.169-0.095,0.339-0.141,0.51c-0.053,0.195-0.107,0.389-0.159,0.586
				c-0.047,0.178-0.093,0.356-0.139,0.535c-0.049,0.192-0.097,0.385-0.145,0.578c-0.045,0.184-0.09,0.368-0.134,0.553
				c-0.046,0.194-0.091,0.388-0.135,0.583c-0.043,0.187-0.085,0.374-0.127,0.561c-0.043,0.197-0.085,0.395-0.126,0.592
				c-0.039,0.187-0.08,0.374-0.118,0.562c-0.003,0.014-0.006,0.028-0.009,0.042c-0.099-0.1-0.215-0.204-0.368-0.315
				c-0.792-0.573-1.979-0.265-2.478-0.094c-0.128,0.044-0.183,0.192-0.114,0.309c0.268,0.455,0.967,1.462,1.941,1.544
				c0.318,0.027,0.563,0.009,0.752-0.033c-0.049,0.273-0.099,0.546-0.145,0.819c-0.032,0.187-0.06,0.373-0.09,0.56
				c-0.033,0.202-0.066,0.404-0.096,0.605c-0.03,0.198-0.057,0.395-0.086,0.592c-0.027,0.19-0.055,0.381-0.08,0.571
				c-0.027,0.199-0.052,0.398-0.076,0.596c-0.024,0.189-0.047,0.378-0.069,0.567c-0.023,0.197-0.045,0.393-0.065,0.589
				c-0.02,0.188-0.039,0.375-0.057,0.562c-0.019,0.196-0.038,0.392-0.055,0.587c-0.006,0.066-0.013,0.133-0.019,0.199l0,0
				c0,0,0.003-0.019,0.004-0.025c-0.124,1.466-0.193,2.897-0.193,4.258c0,5.278,0.995,8.622,2.535,10.713
				c0.03,0.041,0.061,0.079,0.092,0.119c0.093,0.121,0.187,0.239,0.284,0.352c0.038,0.045,0.077,0.088,0.116,0.132
				c0.093,0.104,0.187,0.204,0.283,0.3c0.04,0.04,0.08,0.08,0.12,0.119c0.104,0.1,0.209,0.194,0.316,0.286
				c0.033,0.028,0.065,0.058,0.099,0.086c0.286,0.236,0.582,0.445,0.888,0.629c0.031,0.018,0.062,0.035,0.093,0.053
				c0.121,0.07,0.242,0.137,0.365,0.2c0.047,0.024,0.095,0.047,0.143,0.07c0.11,0.053,0.22,0.104,0.332,0.152
				c0.052,0.022,0.104,0.044,0.156,0.065c0.113,0.046,0.227,0.088,0.341,0.129c0.049,0.017,0.097,0.035,0.146,0.051
				c0.132,0.044,0.266,0.085,0.4,0.122c0.031,0.009,0.062,0.019,0.093,0.027c0.168,0.045,0.336,0.086,0.506,0.123
				c0.028,0.006,0.056,0.01,0.084,0.016c0.003,0.001,0.007,0.001,0.01,0.002l-0.243,0.159l1.475,3.155l0.185,14.784l1.411,0.069
				l-0.245-17.922c0.027,0,0.055,0.001,0.082,0.001c1.716,0,3.405-0.582,4.884-1.829
				C405.133,315.984,407.185,311.173,407.185,303.345L407.185,303.345L407.185,303.345z"/>
		</g>
		<g>
			<path style="fill:#91BBC1;" d="M503.319,303.345c0-0.353-0.005-0.709-0.013-1.066c-0.003-0.117-0.008-0.235-0.011-0.353
				c-0.007-0.241-0.015-0.483-0.026-0.725c-0.006-0.14-0.014-0.28-0.022-0.42c-0.012-0.222-0.024-0.444-0.039-0.667
				c-0.01-0.148-0.021-0.297-0.032-0.446c-0.016-0.216-0.033-0.432-0.052-0.648c-0.013-0.151-0.027-0.302-0.041-0.454
				c-0.021-0.218-0.043-0.436-0.067-0.654c-0.016-0.148-0.031-0.295-0.048-0.443c-0.026-0.225-0.054-0.451-0.083-0.676
				c-0.018-0.139-0.035-0.279-0.053-0.418c-0.034-0.25-0.07-0.5-0.107-0.749c-0.017-0.113-0.032-0.227-0.049-0.339
				c-0.055-0.359-0.113-0.716-0.175-1.072c-0.013-0.076-0.028-0.152-0.041-0.228c-0.05-0.281-0.101-0.562-0.154-0.841
				c-0.026-0.136-0.054-0.27-0.081-0.405c-0.044-0.218-0.087-0.435-0.133-0.651c-0.031-0.149-0.065-0.297-0.097-0.446
				c-0.044-0.201-0.089-0.401-0.135-0.6c-0.035-0.153-0.072-0.305-0.108-0.457c-0.046-0.191-0.092-0.38-0.14-0.569
				c-0.039-0.154-0.078-0.307-0.118-0.46c-0.048-0.185-0.098-0.369-0.148-0.552c-0.041-0.151-0.082-0.302-0.124-0.451
				c-0.052-0.184-0.106-0.365-0.159-0.546c-0.043-0.144-0.084-0.289-0.128-0.431c-0.059-0.194-0.121-0.384-0.182-0.575
				c-0.04-0.125-0.079-0.251-0.119-0.374c-0.099-0.299-0.2-0.594-0.303-0.883c-0.047-0.134-0.097-0.263-0.145-0.395
				c-0.06-0.165-0.12-0.33-0.182-0.491c-0.054-0.141-0.109-0.278-0.164-0.417c-0.058-0.145-0.115-0.291-0.174-0.433
				c-0.058-0.141-0.117-0.279-0.177-0.417c-0.058-0.134-0.115-0.267-0.174-0.398c-0.061-0.137-0.123-0.272-0.185-0.406
				c-0.058-0.125-0.117-0.248-0.176-0.37c-0.064-0.132-0.128-0.262-0.192-0.39c-0.059-0.117-0.119-0.231-0.179-0.345
				c-0.066-0.125-0.132-0.251-0.199-0.372c-0.06-0.108-0.12-0.212-0.181-0.317c-0.068-0.119-0.136-0.239-0.206-0.354
				c-0.06-0.099-0.121-0.192-0.181-0.288c-0.139-0.219-0.279-0.429-0.421-0.63c-0.057-0.08-0.113-0.164-0.169-0.241
				c-0.073-0.099-0.148-0.19-0.221-0.284c-0.062-0.079-0.125-0.16-0.187-0.235c-0.074-0.088-0.148-0.17-0.223-0.253
				c-0.064-0.072-0.128-0.144-0.193-0.211c-0.074-0.078-0.149-0.151-0.224-0.223c-0.065-0.063-0.131-0.125-0.197-0.183
				c-0.076-0.067-0.151-0.131-0.227-0.193c-0.066-0.054-0.133-0.104-0.199-0.153c-0.076-0.056-0.152-0.111-0.229-0.161
				c-0.022-0.014-0.043-0.032-0.065-0.046c0.006,0.005,0.012,0.012,0.018,0.017c-0.008-0.005-0.017-0.01-0.026-0.015
				c0.003,0,0.005-0.001,0.008-0.002l0,0c-0.044-0.028-0.089-0.048-0.133-0.074c-0.079-0.046-0.159-0.093-0.238-0.132
				c-0.071-0.035-0.143-0.064-0.214-0.093c-0.074-0.031-0.149-0.065-0.223-0.09c-0.087-0.029-0.174-0.048-0.262-0.069
				c-0.06-0.014-0.119-0.034-0.179-0.044c-0.148-0.026-0.297-0.04-0.446-0.04c-0.148,0-0.296,0.018-0.444,0.047
				c-0.049,0.01-0.097,0.028-0.146,0.041c-0.099,0.026-0.199,0.055-0.298,0.094c-0.057,0.023-0.115,0.052-0.172,0.079
				c-0.09,0.043-0.181,0.087-0.271,0.14c-0.06,0.035-0.12,0.075-0.181,0.114c-0.088,0.058-0.175,0.119-0.262,0.186
				c-0.06,0.046-0.121,0.095-0.181,0.145c-0.087,0.073-0.174,0.152-0.261,0.234c-0.059,0.056-0.118,0.111-0.177,0.171
				c-0.09,0.091-0.179,0.19-0.268,0.29c-0.055,0.062-0.11,0.121-0.165,0.186c-0.099,0.118-0.197,0.244-0.295,0.373
				c-0.044,0.058-0.089,0.111-0.133,0.171c-0.141,0.192-0.281,0.394-0.42,0.607c-0.021,0.032-0.042,0.068-0.063,0.101
				c-0.118,0.184-0.236,0.373-0.352,0.572c-0.049,0.083-0.097,0.172-0.146,0.258c-0.088,0.155-0.176,0.31-0.263,0.473
				c-0.055,0.102-0.109,0.209-0.163,0.314c-0.079,0.154-0.158,0.309-0.237,0.469c-0.057,0.116-0.113,0.234-0.169,0.353
				c-0.075,0.159-0.15,0.32-0.224,0.484c-0.056,0.124-0.112,0.25-0.167,0.377c-0.073,0.168-0.145,0.339-0.217,0.512
				c-0.054,0.13-0.108,0.258-0.161,0.391c-0.073,0.181-0.145,0.366-0.216,0.551c-0.051,0.131-0.102,0.26-0.152,0.393
				c-0.078,0.207-0.153,0.418-0.229,0.63c-0.042,0.116-0.084,0.23-0.126,0.348c-0.114,0.325-0.225,0.655-0.335,0.991
				c-0.039,0.118-0.076,0.24-0.114,0.36c-0.072,0.226-0.144,0.452-0.214,0.682c-0.048,0.157-0.094,0.316-0.141,0.474
				c-0.059,0.199-0.117,0.397-0.175,0.598c-0.048,0.169-0.095,0.339-0.142,0.51c-0.053,0.195-0.107,0.389-0.159,0.586
				c-0.047,0.178-0.093,0.356-0.139,0.535c-0.049,0.192-0.098,0.385-0.145,0.578c-0.045,0.184-0.09,0.368-0.134,0.553
				c-0.046,0.194-0.091,0.388-0.135,0.583c-0.043,0.187-0.085,0.374-0.127,0.561c-0.043,0.197-0.085,0.395-0.126,0.592
				c-0.039,0.187-0.079,0.374-0.118,0.562c-0.003,0.014-0.006,0.028-0.009,0.042c-0.099-0.1-0.215-0.204-0.368-0.315
				c-0.792-0.573-1.979-0.265-2.478-0.094c-0.128,0.044-0.183,0.192-0.115,0.309c0.268,0.455,0.967,1.462,1.941,1.544
				c0.318,0.027,0.563,0.009,0.752-0.033c-0.049,0.273-0.099,0.546-0.145,0.819c-0.032,0.187-0.06,0.373-0.09,0.56
				c-0.033,0.202-0.066,0.404-0.096,0.605c-0.03,0.198-0.057,0.395-0.086,0.592c-0.027,0.19-0.055,0.381-0.08,0.571
				c-0.027,0.199-0.052,0.398-0.076,0.596c-0.024,0.189-0.047,0.378-0.069,0.567c-0.023,0.197-0.045,0.393-0.065,0.589
				c-0.02,0.188-0.039,0.375-0.057,0.562c-0.019,0.196-0.038,0.392-0.055,0.587c-0.006,0.066-0.013,0.133-0.019,0.199l0,0
				c0,0,0.003-0.019,0.004-0.025c-0.124,1.466-0.193,2.897-0.193,4.258c0,5.278,0.994,8.622,2.535,10.713
				c0.03,0.041,0.061,0.079,0.092,0.119c0.093,0.121,0.187,0.239,0.284,0.352c0.038,0.045,0.077,0.088,0.116,0.132
				c0.093,0.104,0.187,0.204,0.283,0.3c0.04,0.04,0.08,0.08,0.12,0.119c0.104,0.1,0.209,0.194,0.316,0.286
				c0.033,0.028,0.065,0.058,0.099,0.086c0.286,0.236,0.582,0.445,0.888,0.629c0.031,0.018,0.063,0.035,0.094,0.053
				c0.12,0.07,0.242,0.137,0.365,0.2c0.047,0.024,0.095,0.047,0.143,0.07c0.11,0.053,0.22,0.104,0.332,0.152
				c0.052,0.022,0.104,0.044,0.156,0.065c0.113,0.046,0.227,0.088,0.341,0.129c0.049,0.017,0.097,0.035,0.146,0.051
				c0.132,0.044,0.266,0.085,0.4,0.122c0.031,0.009,0.062,0.019,0.093,0.027c0.168,0.045,0.336,0.086,0.506,0.123
				c0.028,0.006,0.056,0.01,0.084,0.016c0.003,0.001,0.007,0.001,0.01,0.002l-0.243,0.159l1.475,3.155l0.185,14.784l1.411,0.069
				l-0.245-17.922c0.027,0,0.055,0.001,0.082,0.001c1.716,0,3.405-0.582,4.884-1.829
				C501.266,315.984,503.319,311.173,503.319,303.345L503.319,303.345L503.319,303.345z"/>
		</g>
	</g>
	<g>
		<g>
			<path style="fill:#F8CD99;" d="M81.238,299.122c0,14.846,5.932,20.972,12.145,20.972s12.529-2.568,12.529-17.415
				c0-14.846-6.315-36.348-12.529-36.348S81.238,284.276,81.238,299.122z"/>
		</g>
		<g>
			<path style="fill:#CEA26E;" d="M93.383,320.094c-6.213,0-12.145-6.126-12.145-20.972c0-13.148,4.653-28.725,10.033-32.116
				c-7.111,6.298-8.691,26.544-4.728,40.738c3.786,13.559,16.617,7.642,16.653,7.629C100.778,319.192,97.063,320.094,93.383,320.094
				z"/>
		</g>
		<g>
			<polygon style="fill:#7C6242;" points="94.937,342.312 95.166,323.911 97.002,319.985 95.617,319.078 95.425,312.509 
				93.588,312.562 93.18,342.398 			"/>
		</g>
		<g style="opacity:0.43;">
			<path style="fill:#FFFFFF;" d="M94.534,323.085c0.209-0.752,1.197-1.42,1.858-1.794l-1.225,2.62l-0.23,18.401l-0.901,0.044
				C94.085,338.056,94.264,324.058,94.534,323.085z"/>
		</g>
		<g>
			<path style="fill:#FAD7AD;" d="M105.676,297.411c0,0-4.723-28.987-14.405-30.405l0,0c0.695-0.438,1.401-0.675,2.112-0.675
				C98.892,266.331,104.48,283.232,105.676,297.411L105.676,297.411z"/>
		</g>
		<g>
			<path style="fill:#CEA26E;" d="M107.842,287.37c0.159,0.054,0.228,0.24,0.143,0.384c-0.334,0.566-1.204,1.82-2.416,1.921
				c-1.57,0.132-1.716-0.608-1.716-0.608s-0.372-0.656,0.905-1.58C105.743,286.774,107.22,287.158,107.842,287.37z"/>
		</g>
		<g>
			<path style="fill:#CEA26E;" d="M97.701,307.013c0.147-0.081,0.33-0.007,0.38,0.154c0.193,0.628,0.531,2.116-0.212,3.08
				c-0.963,1.248-1.607,0.856-1.607,0.856s-0.735-0.168-0.555-1.734C95.845,308.16,97.124,307.329,97.701,307.013z"/>
		</g>
		<g>
			<path style="fill:#CEA26E;" d="M91.282,277.531c0.049-0.098,0.174-0.126,0.259-0.058c0.335,0.263,1.066,0.931,1.026,1.72
				c-0.052,1.021-0.54,1.05-0.54,1.05s-0.454,0.182-0.937-0.719C90.716,278.829,91.091,277.913,91.282,277.531z"/>
		</g>
		<g>
			<path style="fill:#CEA26E;" d="M88.212,277.339c-0.001-0.109,0.099-0.191,0.205-0.169c0.418,0.084,1.371,0.351,1.691,1.073
				c0.414,0.935-0.008,1.181-0.008,1.181s-0.323,0.367-1.16-0.219C88.292,278.752,88.214,277.765,88.212,277.339z"/>
		</g>
		<g>
			<path style="fill:#CEA26E;" d="M92.067,307.488c0.029-0.1,0.142-0.147,0.233-0.099c0.359,0.19,1.156,0.692,1.253,1.438
				c0.125,0.966-0.328,1.076-0.328,1.076s-0.395,0.248-1-0.515C91.758,308.8,91.954,307.878,92.067,307.488z"/>
		</g>
	</g>
	<g>
		<g>
			<rect x="404.006" y="297.635" style="fill:#BCE5EC;" width="17.469" height="37.976"/>
		</g>
		<g>
			<path style="fill:#E4F5F7;" d="M418.101,297.635h-14.095v35.805C411.648,323.859,416.449,304.995,418.101,297.635z"/>
		</g>
		<g>
			<rect x="412.231" y="297.635" style="fill:#79A7A8;" width="1.02" height="37.976"/>
		</g>
		<g>
			
				<rect x="412.231" y="294.384" transform="matrix(6.123234e-17 -1 1 6.123234e-17 109.6227 715.8588)" style="fill:#79A7A8;" width="1.02" height="17.469"/>
		</g>
		<g>
			
				<rect x="408.948" y="323.084" transform="matrix(6.123234e-17 -1 1 6.123234e-17 80.9226 744.559)" style="fill:#79A7A8;" width="7.585" height="17.469"/>
		</g>
		<g style="opacity:0.68;">
			<polygon style="fill:#79A7A8;" points="421.475,299.266 405.731,299.266 405.731,335.611 404.006,335.611 404.006,297.635 
				421.475,297.635 			"/>
		</g>
	</g>
	<g>
		<g>
			<path style="fill:#F8CD99;" d="M471.111,236.687c16.98-1.59,31.044,20.984,32.298,34.372c1.254,13.388-11.21,28.569-28.19,30.159
				c-16.98,1.59-32.045-11.013-33.299-24.401C440.666,263.429,454.131,238.277,471.111,236.687z"/>
		</g>
		<g>
			<path style="fill:#CEA26E;" d="M472.78,236.609c21.86,2.232,26.655,28.019,23.35,41.75
				c-2.979,12.375-16.155,16.566-22.031,17.256c-11.323,1.329-27.572-8.426-29.396-10.088c5.307,9.602,17.332,16.925,30.516,15.691
				c16.98-1.59,29.443-16.771,28.19-30.159C502.196,258.112,489.003,236.578,472.78,236.609z"/>
		</g>
		<g>
			<path style="fill:#7C6242;" d="M471.803,336.177c0,0-0.044-37.378-1.524-39.487c-1.48-2.109-8.058-6.17-8.058-6.17l2.285-0.612
				l6.457,4.226l2.17-17.31l2.912,0.451c0,0-4.198,22.04-1.382,29.329l-0.903,29.665L471.803,336.177z"/>
		</g>
		<g style="opacity:0.43;">
			<path style="fill:#FFFFFF;" d="M471.803,336.177l0.864,0.041c0-4.938,0-22.741,0-26.865c0-4.8-1.592-6.723-1.592-6.723h0
				C471.776,313.708,471.803,336.177,471.803,336.177z"/>
		</g>
		<g>
			<path style="fill:#FAD7AD;" d="M472.78,236.609c-0.553,0.001-1.11,0.025-1.67,0.078c-16.438,1.539-29.582,25.161-29.266,38.814
				C455.535,235.359,472.78,236.609,472.78,236.609z"/>
		</g>
		<g>
			<path style="fill:#CEA26E;" d="M459.194,283.548c-0.213-0.042-0.41,0.121-0.409,0.339c0.007,0.851,0.171,2.82,1.465,3.719
				c1.676,1.164,2.318,0.429,2.318,0.429s0.842-0.495,0.008-2.357C461.933,284.239,460.028,283.713,459.194,283.548z"/>
		</g>
		<g>
			<path style="fill:#CEA26E;" d="M456.933,289.481c-0.098,0.106-0.074,0.274,0.049,0.348c0.483,0.291,1.65,0.882,2.607,0.463
				c1.238-0.542,1.046-1.159,1.046-1.159s0.013-0.647-1.327-0.822C458.273,288.174,457.315,289.067,456.933,289.481z"/>
		</g>
		<g>
			<path style="fill:#CEA26E;" d="M466.16,284.376c-0.033-0.14-0.186-0.214-0.317-0.153c-0.51,0.239-1.652,0.879-1.837,1.906
				c-0.24,1.33,0.38,1.515,0.38,1.515s0.53,0.371,1.423-0.644C466.497,286.217,466.29,284.924,466.16,284.376z"/>
		</g>
		<g>
			<path style="fill:#CEA26E;" d="M475.911,259.02c-0.033-0.14-0.186-0.214-0.317-0.153c-0.51,0.239-1.652,0.879-1.837,1.906
				c-0.24,1.33,0.38,1.515,0.38,1.515s0.53,0.371,1.422-0.644C476.249,260.861,476.041,259.569,475.911,259.02z"/>
		</g>
		<g>
			<path style="fill:#CEA26E;" d="M454.186,243.295c-0.099-0.105-0.268-0.092-0.351,0.026c-0.323,0.462-0.991,1.587-0.638,2.57
				c0.457,1.272,1.086,1.122,1.086,1.122s0.644,0.056,0.91-1.269C455.399,244.72,454.573,243.704,454.186,243.295z"/>
		</g>
	</g>
	<g>
		<g>
			<path style="fill:#F8B668;" d="M390.459,209.934c21.554-2.018,39.408,26.638,40.999,43.632s-14.23,36.266-35.785,38.285
				c-21.554,2.018-40.679-13.981-42.271-30.975S368.905,211.953,390.459,209.934z"/>
		</g>
		<g>
			<path style="fill:#CE8C3D;" d="M392.579,209.835c27.75,2.833,33.836,35.568,29.641,52.998
				c-3.781,15.709-20.508,21.03-27.967,21.905c-14.374,1.687-35.001-10.697-37.316-12.806c6.737,12.189,22.002,21.485,38.737,19.918
				c21.554-2.018,37.376-21.29,35.785-38.285C429.92,237.132,413.173,209.795,392.579,209.835z"/>
		</g>
		<g>
			<path style="fill:#7C5425;" d="M391.338,336.23c0,0-0.056-47.448-1.935-50.125c-1.879-2.677-10.229-7.832-10.229-7.832
				l2.901-0.777l8.197,5.365l2.754-21.974l3.697,0.572c0,0-5.328,27.978-1.754,37.231l-1.146,37.658L391.338,336.23z"/>
		</g>
		<g style="opacity:0.43;">
			<path style="fill:#FFFFFF;" d="M391.338,336.23l1.097,0.052c0-6.269,0-28.868,0-34.103c0-6.094-2.021-8.535-2.021-8.535l0,0
				C391.304,307.707,391.338,336.23,391.338,336.23z"/>
		</g>
		<g>
			<path style="fill:#FAC586;" d="M392.579,209.835c-0.702,0.001-1.409,0.032-2.12,0.099c-20.867,1.954-37.552,31.94-37.151,49.271
				C370.687,208.249,392.578,209.835,392.579,209.835z"/>
		</g>
		<g>
			<path style="fill:#CE8C3D;" d="M375.332,269.421c-0.271-0.053-0.521,0.154-0.519,0.43c0.009,1.08,0.217,3.579,1.86,4.72
				c2.127,1.478,2.943,0.544,2.943,0.544s1.068-0.628,0.01-2.992C378.809,270.298,376.391,269.63,375.332,269.421z"/>
		</g>
		<g>
			<path style="fill:#CE8C3D;" d="M372.462,276.952c-0.124,0.134-0.094,0.347,0.063,0.442c0.613,0.369,2.095,1.119,3.309,0.588
				c1.572-0.688,1.328-1.472,1.328-1.472s0.016-0.821-1.685-1.044C374.163,275.294,372.947,276.427,372.462,276.952z"/>
		</g>
		<g>
			<path style="fill:#CE8C3D;" d="M384.174,270.472c-0.042-0.178-0.236-0.272-0.402-0.194c-0.648,0.303-2.097,1.116-2.332,2.42
				c-0.305,1.689,0.482,1.923,0.482,1.923s0.673,0.471,1.806-0.818C384.603,272.809,384.34,271.168,384.174,270.472z"/>
		</g>
		<g>
			<path style="fill:#CE8C3D;" d="M396.553,238.285c-0.042-0.178-0.236-0.272-0.402-0.194c-0.648,0.303-2.097,1.116-2.332,2.42
				c-0.305,1.689,0.482,1.923,0.482,1.923s0.673,0.471,1.806-0.817C396.982,240.621,396.718,238.981,396.553,238.285z"/>
		</g>
		<g>
			<path style="fill:#CE8C3D;" d="M368.974,218.322c-0.126-0.133-0.34-0.117-0.445,0.033c-0.41,0.586-1.258,2.015-0.809,3.262
				c0.58,1.615,1.379,1.424,1.379,1.424s0.818,0.071,1.155-1.611C370.514,220.131,369.466,218.842,368.974,218.322z"/>
		</g>
	</g>
	<g>
		<path style="fill:#CE7B19;" d="M519.7,349.75H80.3v-7.953c0-3.417,2.77-6.186,6.187-6.186h427.028c3.417,0,6.187,2.77,6.187,6.186
			V349.75z"/>
	</g>
	<g>
		<path style="fill:#F8A644;" d="M401.4,349.75H80.3v-4.146c0-3.417,2.77-6.186,6.187-6.186h308.727c3.417,0,6.187,2.77,6.187,6.186
			V349.75z"/>
	</g>
	<g>
		<g>
			<rect x="182.265" y="325.686" style="fill:#52310A;" width="96.41" height="2.972"/>
		</g>
		<g>
			<g>
				<rect x="189.663" y="308.168" style="fill:#52310A;" width="2.144" height="16.414"/>
			</g>
			<g>
				<rect x="269.384" y="308.168" style="fill:#52310A;" width="2.144" height="16.414"/>
			</g>
		</g>
		<g>
			<path style="fill:#A56314;" d="M278.062,309.832H183.13c-0.339,0-0.613-0.275-0.613-0.613v-2.102
				c0-0.339,0.274-0.613,0.613-0.613h94.932c0.339,0,0.613,0.275,0.613,0.613v2.102
				C278.675,309.557,278.401,309.832,278.062,309.832z"/>
		</g>
		<g>
			<path style="fill:#A56314;" d="M278.062,315.38H183.13c-0.339,0-0.613-0.275-0.613-0.613v-2.102c0-0.339,0.274-0.613,0.613-0.613
				h94.932c0.339,0,0.613,0.275,0.613,0.613v2.102C278.675,315.105,278.401,315.38,278.062,315.38z"/>
		</g>
		<g>
			<path style="fill:#A56314;" d="M278.062,320.927H183.13c-0.339,0-0.613-0.274-0.613-0.613v-2.102
				c0-0.339,0.274-0.613,0.613-0.613h94.932c0.339,0,0.613,0.275,0.613,0.613v2.102
				C278.675,320.653,278.401,320.927,278.062,320.927z"/>
		</g>
		<g>
			<rect x="182.517" y="323.413" style="fill:#A56314;" width="96.159" height="2.338"/>
		</g>
		<g>
			<path style="fill:#7C4A0F;" d="M278.062,306.503h-13.677c-2.639,1.123-5.284,2.231-7.933,3.329h21.611
				c0.339,0,0.613-0.275,0.613-0.613v-2.102C278.675,306.778,278.401,306.503,278.062,306.503z"/>
		</g>
		<g>
			<path style="fill:#7C4A0F;" d="M278.062,312.051h-27.041c-2.761,1.122-5.525,2.236-8.298,3.329h35.339
				c0.339,0,0.613-0.275,0.613-0.613v-2.102C278.675,312.326,278.401,312.051,278.062,312.051z"/>
		</g>
		<g>
			<path style="fill:#7C4A0F;" d="M278.062,317.599h-41.04c-2.919,1.127-5.846,2.234-8.778,3.329h49.818
				c0.339,0,0.613-0.275,0.613-0.613v-2.102C278.675,317.873,278.401,317.599,278.062,317.599z"/>
		</g>
		<g>
			<path style="fill:#7C4A0F;" d="M215,325.75h63.675v-2.338h-57.158C219.348,324.201,217.176,324.98,215,325.75z"/>
		</g>
		<g>
			<path style="fill:#52310A;" d="M182.517,327.327h-0.524c-1.11,0-2.01-0.9-2.01-2.01v-11.045c0-0.307,0.249-0.556,0.556-0.556
				h1.421c0.307,0,0.556,0.249,0.556,0.556V327.327z"/>
		</g>
		<g>
			<path style="fill:#52310A;" d="M278.675,327.327h0.524c1.11,0,2.01-0.9,2.01-2.01v-11.045c0-0.307-0.249-0.556-0.556-0.556
				h-1.421c-0.307,0-0.556,0.249-0.556,0.556V327.327z"/>
		</g>
		<g>
			<g>
				<rect x="181.94" y="326.645" style="fill:#52310A;" width="2.534" height="8.966"/>
			</g>
			<g>
				<rect x="276.718" y="326.645" style="fill:#52310A;" width="2.534" height="8.966"/>
			</g>
		</g>
	</g>
	<g>
		<g>
			<path style="fill:#CE7B19;" d="M86.884,222.369c-0.171,0.114-0.193,0.355-0.047,0.499c0.572,0.562,1.995,1.766,3.457,1.503
				c1.894-0.341,1.832-1.26,1.832-1.26s0.231-0.891-1.567-1.578C89.171,221.003,87.55,221.923,86.884,222.369z"/>
		</g>
		<g>
			<path style="fill:#F8A644;" d="M143.206,206.797c-1.012-10.996-10.256-19.607-21.516-19.607
				c-11.936,0-21.612,9.676-21.612,21.612c0,2.162,0.321,4.248,0.912,6.217c-7.222,3.498-12.202,10.897-12.202,19.46
				c0,11.936,9.676,21.612,21.612,21.612c7.812,0,14.654-4.145,18.451-10.356c3.59,2.655,8.03,4.227,12.837,4.227
				c11.936,0,21.612-9.676,21.612-21.612C163.301,216.925,154.434,207.577,143.206,206.797z"/>
		</g>
		<g>
			<g>
				<path style="fill:#CE7B19;" d="M141.051,209.593c0,0-0.016-0.136-0.05-0.365C140.859,209.31,141.051,209.593,141.051,209.593z"
					/>
			</g>
			<g>
				<path style="fill:#CE7B19;" d="M143.206,206.797c-0.98-10.646-9.676-19.057-20.448-19.581
					c14.762,2.033,17.849,19.317,18.243,22.012c0.258-0.149,1.616,0.359,7.219,4.391c6.145,4.423,7.717,19.214-1.024,25.548
					c-8.834,6.401-21.179-1.011-21.179-1.011c-8.755,25.347-35.053,5.74-35.085,5.717c3.495,7.23,10.899,12.218,19.468,12.218
					c7.812,0,14.654-4.145,18.451-10.356c3.59,2.655,8.03,4.227,12.837,4.227c11.936,0,21.612-9.676,21.612-21.612
					C163.301,216.925,154.434,207.577,143.206,206.797z"/>
			</g>
		</g>
		<g>
			<path style="fill:#7C4A0F;" d="M112.821,335.507c0,0-0.768-29.766,0-37.832c0.768-8.066,3.158-46.474-0.341-52.811l0.927-0.448
				c0,0,1.911,2.816,1.783,24.965c-0.128,22.149,14.595-26.627,9.986-41.031h4.225c0,0-6.913,54.346-7.169,61.516
				c0,0,16.516-29.19,17.028-46.09l1.792,0.768c0,0-2.304,12.419-11.01,42.121c-8.706,29.702-6.401,48.842-6.401,48.842H112.821z"/>
		</g>
		<g style="opacity:0.43;">
			<path style="fill:#FFFFFF;" d="M116.278,323.985c-1.728-9.41,1.536-24.389,1.92-43.209c0.058-2.849-0.034-5.299-0.229-7.416
				c-1.615,2.891-2.816,2.413-2.779-3.978c0.014-2.379,0.003-4.522-0.026-6.475c-0.287-0.475-0.57-0.865-0.84-1.187
				c0.119,13.591-1.016,30.851-1.503,35.957c-0.768,8.066,0,37.832,0,37.832h4.055C117.136,332.936,117.202,329.017,116.278,323.985
				z"/>
		</g>
		<g>
			<path style="fill:#FAB869;" d="M114.677,216.634c0,0-0.896-2.689-9.73-4.481c0,0-5.68-13.544,13.8-24.759
				c-10.543,1.437-18.668,10.47-18.668,21.407c0,2.162,0.321,4.248,0.912,6.217c-7.222,3.498-12.202,10.897-12.202,19.46
				C88.789,234.479,93.169,219.451,114.677,216.634z"/>
		</g>
		<g>
			<path style="fill:#CE7B19;" d="M100.649,234.739c-0.205-0.004-0.361,0.181-0.323,0.382c0.148,0.789,0.626,2.59,1.977,3.21
				c1.749,0.803,2.223,0.014,2.223,0.014s0.7-0.599-0.383-2.19C103.307,234.926,101.451,234.753,100.649,234.739z"/>
		</g>
		<g>
			<path style="fill:#CE7B19;" d="M131.57,204.962c-0.077-0.231-0.346-0.332-0.556-0.21c-0.824,0.479-2.648,1.731-2.805,3.489
				c-0.203,2.277,0.869,2.493,0.869,2.493s0.948,0.544,2.298-1.3C132.418,208.01,131.873,205.866,131.57,204.962z"/>
		</g>
		<g>
			<path style="fill:#CE7B19;" d="M121.243,190.188c-0.172-0.172-0.457-0.143-0.591,0.06c-0.524,0.796-1.599,2.73-0.956,4.373
				c0.833,2.128,1.889,1.845,1.889,1.845s1.092,0.065,1.478-2.188C123.36,192.539,121.916,190.862,121.243,190.188z"/>
		</g>
	</g>
	<g>
		<g>
			<path style="fill:#CE7B19;" d="M428.76,185.73c-0.21,0.057-0.313,0.29-0.215,0.483c0.383,0.757,1.399,2.445,2.954,2.677
				c2.013,0.3,2.262-0.641,2.262-0.641s0.534-0.814-1.035-2.111C431.515,185.137,429.579,185.509,428.76,185.73z"/>
		</g>
		<g>
			<path style="fill:#F8A644;" d="M482.018,248.33c-2.868-2.363-7.221-2.335-11.835-0.38c1.322-5.29,2.056-11.039,2.056-17.059
				c0-25.939-13.473-46.967-30.093-46.967c-15.386,0-28.066,18.026-29.865,41.282c-4.149-1.939-8.233-2.288-11.658-0.63
				c-8.827,4.273-9.944,20.211-2.496,35.598c7.448,15.388,20.642,24.398,29.469,20.126c2.103-1.018,3.763-2.704,4.98-4.882
				c3.008,1.574,6.223,2.44,9.57,2.44c3.045,0,5.982-0.712,8.752-2.024c0.198,2.76,1.188,5.072,3.032,6.591
				c5.401,4.449,16.066,0.423,23.822-8.991C485.509,264.018,487.419,252.779,482.018,248.33z"/>
		</g>
		<g>
			<path style="fill:#CE7B19;" d="M482.018,248.33c-2.868-2.363-7.221-2.335-11.835-0.38c1.322-5.289,2.056-11.039,2.056-17.059
				c0-24.507-12.029-44.62-27.373-46.766c30.032,4.858,20.644,71.858,20.644,71.858s7.29-0.374,3.738,7.81
				s-11.215,1.909-11.215,1.909c-6.729,8.224-28.037,3.925-28.037,3.925c-3.737,14.013-27.995-2.745-28.012-2.757
				c7.592,11.174,18.158,17.037,25.611,13.429c2.103-1.018,3.763-2.704,4.98-4.882c3.008,1.574,6.223,2.44,9.57,2.44
				c3.045,0,5.982-0.712,8.752-2.024c0.198,2.76,1.188,5.072,3.032,6.591c5.401,4.449,16.066,0.423,23.822-8.991
				C485.509,264.018,487.419,252.779,482.018,248.33z"/>
		</g>
		<g>
			<path style="fill:#7C4A0F;" d="M430.371,335.611c0,0,4.86-27.853-2.617-39.816c-7.476-11.962-13.458-32.002-13.458-32.002h3.738
				c0,0,4.112,20.413,11.962,25.273c7.85,4.86,6.729-44.859,6.729-44.859h7.85c0,0-5.607,32.896,0,43.737
				c0,0,14.579-8.598,15.327-13.084l1.994,2.741c0,0-10.592,8.349-15.077,13.084c-4.486,4.735-2.118,44.925-2.118,44.925H430.371z"
				/>
		</g>
		<g style="opacity:0.43;">
			<path style="fill:#FFFFFF;" d="M435.399,335.611c2.14-8.026,1.936-30.041-1.663-35.081c-1.87-2.617-4.812-5.05-7.197-6.777
				c0.401,0.701,0.806,1.385,1.216,2.042c7.477,11.962,2.617,39.816,2.617,39.816H435.399z"/>
		</g>
		<g>
			<path style="fill:#FAB869;" d="M440.838,184.125c0.346-0.062,0.674-0.125,1-0.189c-15.246,0.24-27.77,18.171-29.557,41.27
				c-4.149-1.939-8.233-2.288-11.658-0.63c-6.96,3.369-9.122,13.99-6.077,25.876c0.004-0.116,0.711-18.945,9.096-19.136
				c8.411-0.192,13.271,8.142,13.271,8.142S412.054,189.274,440.838,184.125z"/>
		</g>
		<g>
			<path style="fill:#CE7B19;" d="M428.24,243.482c-0.166,0.111-0.188,0.345-0.045,0.485c0.557,0.547,1.941,1.719,3.365,1.463
				c1.844-0.332,1.783-1.226,1.783-1.226s0.225-0.868-1.525-1.536C430.466,242.152,428.889,243.047,428.24,243.482z"/>
		</g>
		<g>
			<path style="fill:#CE7B19;" d="M431.126,237.303c-0.233-0.046-0.448,0.132-0.445,0.369c0.008,0.927,0.186,3.074,1.597,4.054
				c1.827,1.269,2.527,0.467,2.527,0.467s0.918-0.539,0.009-2.57C434.112,238.056,432.036,237.483,431.126,237.303z"/>
		</g>
	</g>
	<g>
		<g>
			<g>
				<g>
					<rect x="172.277" y="75.532" style="fill:#D7F0F3;" width="23.792" height="29.094"/>
				</g>
				<g>
					<path style="fill:#E4F5F7;" d="M193.798,75.532h-21.521v29.094h9.132C189.264,94.321,192.258,81.61,193.798,75.532z"/>
				</g>
				<g>
					<rect x="194.777" y="75.532" style="fill:#91BBC1;" width="1.767" height="29.094"/>
				</g>
				<g>
					
						<rect x="183.527" y="70.06" transform="matrix(6.123234e-17 -1 1 6.123234e-17 102.8627 265.4836)" style="fill:#91BBC1;" width="1.291" height="22.5"/>
				</g>
				<g>
					<rect x="183.527" y="75.532" style="fill:#91BBC1;" width="1.292" height="29.094"/>
				</g>
				<g>
					<rect x="171.869" y="75.532" style="fill:#91BBC1;" width="1.699" height="29.094"/>
				</g>
				<g>
					<rect x="170.68" y="104.626" style="fill:#D7F0F3;" width="26.987" height="1.903"/>
				</g>
			</g>
			<g>
				<g>
					<rect x="209.075" y="75.532" style="fill:#D7F0F3;" width="23.792" height="29.094"/>
				</g>
				<g>
					<path style="fill:#E4F5F7;" d="M230.596,75.532h-21.521v29.094h9.132C226.062,94.321,229.056,81.61,230.596,75.532z"/>
				</g>
				<g>
					<rect x="231.576" y="75.532" style="fill:#91BBC1;" width="1.767" height="29.094"/>
				</g>
				<g>
					
						<rect x="220.325" y="70.06" transform="matrix(6.123234e-17 -1 1 6.123234e-17 139.6608 302.2816)" style="fill:#91BBC1;" width="1.291" height="22.5"/>
				</g>
				<g>
					<rect x="220.325" y="75.532" style="fill:#91BBC1;" width="1.292" height="29.094"/>
				</g>
				<g>
					<rect x="208.667" y="75.532" style="fill:#91BBC1;" width="1.699" height="29.094"/>
				</g>
				<g>
					<rect x="207.478" y="104.626" style="fill:#D7F0F3;" width="26.987" height="1.903"/>
				</g>
			</g>
		</g>
		<g>
			<g>
				<g>
					<rect x="172.277" y="127.018" style="fill:#D7F0F3;" width="23.792" height="29.094"/>
				</g>
				<g>
					<path style="fill:#E4F5F7;" d="M193.798,127.018h-21.521v29.094h9.132C189.264,145.807,192.258,133.096,193.798,127.018z"/>
				</g>
				<g>
					<rect x="194.777" y="127.018" style="fill:#91BBC1;" width="1.767" height="29.094"/>
				</g>
				<g>
					
						<rect x="183.527" y="121.546" transform="matrix(6.123234e-17 -1 1 6.123234e-17 51.3768 316.9696)" style="fill:#91BBC1;" width="1.292" height="22.5"/>
				</g>
				<g>
					<rect x="183.527" y="127.018" style="fill:#91BBC1;" width="1.292" height="29.094"/>
				</g>
				<g>
					<rect x="171.869" y="127.018" style="fill:#91BBC1;" width="1.699" height="29.094"/>
				</g>
				<g>
					<rect x="170.68" y="156.112" style="fill:#D7F0F3;" width="26.987" height="1.903"/>
				</g>
			</g>
			<g>
				<g>
					<rect x="209.075" y="127.018" style="fill:#D7F0F3;" width="23.792" height="29.094"/>
				</g>
				<g>
					<path style="fill:#E4F5F7;" d="M230.596,127.018h-21.521v29.094h9.132C226.062,145.807,229.056,133.096,230.596,127.018z"/>
				</g>
				<g>
					<rect x="231.576" y="127.018" style="fill:#91BBC1;" width="1.767" height="29.094"/>
				</g>
				<g>
					
						<rect x="220.325" y="121.546" transform="matrix(6.123234e-17 -1 1 6.123234e-17 88.1748 353.7676)" style="fill:#91BBC1;" width="1.292" height="22.5"/>
				</g>
				<g>
					<rect x="220.325" y="127.018" style="fill:#91BBC1;" width="1.292" height="29.094"/>
				</g>
				<g>
					<rect x="208.667" y="127.018" style="fill:#91BBC1;" width="1.699" height="29.094"/>
				</g>
				<g>
					<rect x="207.478" y="156.112" style="fill:#D7F0F3;" width="26.987" height="1.903"/>
				</g>
			</g>
		</g>
		<g>
			<g>
				<g>
					<rect x="172.277" y="178.504" style="fill:#D7F0F3;" width="23.792" height="29.094"/>
				</g>
				<g>
					<path style="fill:#E4F5F7;" d="M193.798,178.504h-21.521v29.094h9.132C189.264,197.293,192.258,184.582,193.798,178.504z"/>
				</g>
				<g>
					<rect x="194.777" y="178.504" style="fill:#91BBC1;" width="1.767" height="29.094"/>
				</g>
				<g>
					
						<rect x="183.527" y="173.032" transform="matrix(6.123234e-17 -1 1 6.123234e-17 -0.1092 368.4556)" style="fill:#91BBC1;" width="1.292" height="22.5"/>
				</g>
				<g>
					<rect x="183.527" y="178.504" style="fill:#91BBC1;" width="1.292" height="29.094"/>
				</g>
				<g>
					<rect x="171.869" y="178.504" style="fill:#91BBC1;" width="1.699" height="29.094"/>
				</g>
				<g>
					<rect x="170.68" y="207.598" style="fill:#D7F0F3;" width="26.987" height="1.903"/>
				</g>
			</g>
			<g>
				<g>
					<rect x="209.075" y="178.504" style="fill:#D7F0F3;" width="23.792" height="29.094"/>
				</g>
				<g>
					<path style="fill:#E4F5F7;" d="M230.596,178.504h-21.521v29.094h9.132C226.062,197.293,229.056,184.582,230.596,178.504z"/>
				</g>
				<g>
					<rect x="231.576" y="178.504" style="fill:#91BBC1;" width="1.767" height="29.094"/>
				</g>
				<g>
					
						<rect x="220.325" y="173.032" transform="matrix(6.123234e-17 -1 1 6.123234e-17 36.6888 405.2536)" style="fill:#91BBC1;" width="1.292" height="22.5"/>
				</g>
				<g>
					<rect x="220.325" y="178.504" style="fill:#91BBC1;" width="1.292" height="29.094"/>
				</g>
				<g>
					<rect x="208.667" y="178.504" style="fill:#91BBC1;" width="1.699" height="29.094"/>
				</g>
				<g>
					<rect x="207.478" y="207.598" style="fill:#D7F0F3;" width="26.987" height="1.903"/>
				</g>
			</g>
		</g>
	</g>
	<g>
		<rect x="165.839" y="112.988" style="fill:#91BBC1;" width="10.74" height="3.399"/>
	</g>
	<g>
		<rect x="197.667" y="112.988" style="fill:#BCD8D8;" width="10.74" height="3.399"/>
	</g>
	<g>
		<rect x="176.579" y="116.386" style="fill:#91BBC1;" width="10.74" height="3.399"/>
	</g>
	<g>
		
			<rect x="176.579" y="220.599" transform="matrix(-1 -1.224647e-16 1.224647e-16 -1 363.8989 444.5972)" style="fill:#91BBC1;" width="10.74" height="3.399"/>
	</g>
	<g>
		
			<rect x="165.839" y="166.145" transform="matrix(-1 -1.224647e-16 1.224647e-16 -1 342.4183 335.6893)" style="fill:#91BBC1;" width="10.74" height="3.399"/>
	</g>
	<g>
		
			<rect x="178.157" y="158.016" transform="matrix(-1 -1.224647e-16 1.224647e-16 -1 367.0549 319.4303)" style="fill:#BCD8D8;" width="10.74" height="3.399"/>
	</g>
	<g>
		
			<rect x="165.839" y="223.998" transform="matrix(-1 -1.224647e-16 1.224647e-16 -1 342.4183 451.3948)" style="fill:#91BBC1;" width="10.74" height="3.399"/>
	</g>
	<g>
		
			<rect x="186.926" y="172.022" transform="matrix(-1 -1.224647e-16 1.224647e-16 -1 384.5927 347.4435)" style="fill:#91BBC1;" width="10.74" height="3.399"/>
	</g>
	<g>
		
			<rect x="165.839" y="230.796" transform="matrix(-1 -1.224647e-16 1.224647e-16 -1 342.4183 464.9901)" style="fill:#91BBC1;" width="10.74" height="3.399"/>
	</g>
	<g>
		
			<rect x="172.277" y="247.298" transform="matrix(-1 -1.224647e-16 1.224647e-16 -1 355.2949 497.995)" style="fill:#BCD8D8;" width="10.74" height="3.399"/>
	</g>
	<g>
		<circle style="fill:#FEF8B8;" cx="110.23" cy="75.532" r="24.487"/>
	</g>
	<g>
		<path style="fill:#91B9BA;" d="M391.415,73.825c0,0-7.885,2.356-9.426,6.798c0,0-6.254-0.635-7.16,2.085c0,0,5.891-0.906,8.701,0
			C383.53,82.707,382.669,80.124,391.415,73.825z"/>
	</g>
	<g>
		<path style="fill:#80AFB2;" d="M370.293,72.393c0,0-10.427,3.116-12.465,8.989c0,0-8.27-0.839-9.469,2.757
			c0,0,7.79-1.199,11.506,0C359.866,84.139,358.727,80.723,370.293,72.393z"/>
	</g>
	<g>
		<path style="fill:#9FBEBF;" d="M386.4,94.021c0,0-5.985,1.266-7.396,4.462c0,0-4.594-0.851-5.431,1.108
			c0,0,4.419-0.313,6.445,0.53C380.018,100.121,379.538,98.155,386.4,94.021z"/>
	</g>
	<g>
		<path style="fill:#ABC5C6;" d="M395.714,97.304c0,0-2.857,1.776-2.988,3.692c0,0-2.535,0.421-2.6,1.59c0,0,2.226-0.99,3.431-0.934
			C393.557,101.653,392.941,100.727,395.714,97.304z"/>
	</g>
</g>
</svg>
