<?xml version="1.0" encoding="utf-8"?>
<!-- Generator: Adobe Illustrator 27.5.0, SVG Export Plug-In . SVG Version: 6.00 Build 0)  -->
<svg version="1.1" id="Capa_1" xmlns="http://www.w3.org/2000/svg" xmlns:xlink="http://www.w3.org/1999/xlink" x="0px" y="0px"
	 viewBox="0 0 2122 2122" style="enable-background:new 0 0 2122 2122;" xml:space="preserve">
<path style="fill:#1B0D1B;" d="M1889.55,699.284h-12.673v-54.904c0-20.594-16.848-37.445-37.442-37.445h-836.664L538.219,383.711
	c-18.563-8.921-41.047-1.031-49.968,17.532l-321.812,669.719c-8.921,18.563-1.028,41.052,17.534,49.968l43.013,20.669
	l-10.434,21.714c-8.921,18.563-1.028,41.047,17.535,49.968l253.997,122.053v52.076c0,20.595,16.852,37.442,37.447,37.442h12.668
	v54.904c0,20.594,16.852,37.447,37.447,37.447h290.927l551.785,265.14c18.563,8.921,41.052,1.033,49.968-17.53l118.981-247.61
	h302.241c20.594,0,37.442-16.853,37.442-37.447V736.729C1926.991,716.135,1910.144,699.284,1889.55,699.284z"/>
<path style="fill:#13757B;" d="M1839.435,606.936h-836.664L538.219,383.711c-18.563-8.921-41.047-1.031-49.968,17.532
	l-321.812,669.719c-8.921,18.563-1.028,41.052,17.534,49.968l43.013,20.669l261.099,125.463v120.348
	c0,20.595,16.852,37.442,37.447,37.442h290.925l551.787,265.145c18.563,8.921,41.048,1.028,49.969-17.534l118.981-247.61h302.24
	c20.595,0,37.442-16.847,37.442-37.442V644.381C1876.877,623.786,1860.029,606.936,1839.435,606.936z"/>
<path style="fill:#EADADA;" d="M1839.435,606.936H525.531c-20.594,0-37.447,16.851-37.447,37.445v743.029
	c0,20.595,16.852,37.442,37.447,37.442h1313.903c20.595,0,37.442-16.847,37.442-37.442V644.381
	C1876.877,623.786,1860.029,606.936,1839.435,606.936z"/>
<path style="fill:#ED6D56;" d="M1839.435,606.936H525.531c-20.594,0-37.447,16.851-37.447,37.445v123.13h1388.792v-123.13
	C1876.877,623.786,1860.029,606.936,1839.435,606.936z"/>
<path style="fill:#ED6D56;" d="M849.219,859.604H611.524c-20.595,0-37.442,16.85-37.442,37.444v237.695
	c0,20.594,16.847,37.442,37.442,37.442h237.695c20.595,0,37.447-16.848,37.447-37.442V897.048
	C886.667,876.453,869.814,859.604,849.219,859.604z"/>
<path style="fill:#D7B4B4;" d="M980.021,958.826h768.73c9.861,0,17.929-8.068,17.929-17.927V877.53
	c0-9.861-8.068-17.927-17.929-17.927h-768.73c-9.861,0-17.924,8.066-17.924,17.927v63.369
	C962.096,950.758,970.159,958.826,980.021,958.826z"/>
<path style="fill:#D7B4B4;" d="M970.145,1051.186h788.486c4.424,0,8.048-3.622,8.048-8.048v-33.515c0-4.426-3.625-8.049-8.048-8.049
	H970.145c-4.429,0-8.049,3.622-8.049,8.049v33.515C962.096,1047.564,965.716,1051.186,970.145,1051.186z"/>
<path style="fill:#EADADA;" d="M730.165,1036.853c39.644,0,71.786-32.139,71.786-71.783c0-39.644-32.141-71.783-71.786-71.783
	c-39.644,0-71.78,32.139-71.78,71.783C658.384,1004.714,690.521,1036.853,730.165,1036.853z"/>
<path style="fill:#EADADA;" d="M730.165,1046.417c-54.553,0-98.83,47.556-99.493,106.484h198.986
	C829,1093.973,784.718,1046.417,730.165,1046.417z"/>
<path style="fill:#D7B4B4;" d="M1052.98,1117.92l-1.851-0.804c-3.892-1.691-8.463,0.112-10.153,4.005l-38.348,88.321
	c-1.691,3.893,0.112,8.463,4.005,10.154l1.857,0.804c3.892,1.691,8.458-0.112,10.148-4.005l38.349-88.321
	C1058.676,1124.18,1056.873,1119.61,1052.98,1117.92z"/>
<path style="fill:#D7B4B4;" d="M963.587,1219.596l1.856,0.804c3.893,1.691,8.458-0.112,10.149-4.005l38.348-88.321
	c1.691-3.893-0.112-8.463-4.005-10.154l-1.852-0.804c-3.893-1.691-8.463,0.112-10.149,4.005l-38.353,88.321
	C957.896,1213.335,959.694,1217.905,963.587,1219.596z"/>
<path style="fill:#D7B4B4;" d="M1046.764,1219.596l1.851,0.804c3.893,1.691,8.463-0.112,10.149-4.005l38.353-88.321
	c1.686-3.893-0.112-8.463-4.005-10.154l-1.856-0.804c-3.893-1.691-8.458,0.112-10.149,4.005l-38.348,88.321
	C1041.068,1213.335,1042.871,1217.905,1046.764,1219.596z"/>
<path style="fill:#D7B4B4;" d="M1091.499,1219.596l1.856,0.804c3.893,1.691,8.458-0.112,10.149-4.005l38.348-88.321
	c1.691-3.893-0.112-8.463-4.005-10.154l-1.851-0.804c-3.893-1.691-8.463,0.112-10.149,4.005l-38.353,88.321
	C1085.809,1213.335,1087.607,1217.905,1091.499,1219.596z"/>
<path style="fill:#D7B4B4;" d="M1137.867,1219.596l1.851,0.804c3.892,1.691,8.463-0.112,10.153-4.005l38.348-88.321
	c1.691-3.893-0.112-8.463-4.005-10.154l-1.851-0.804c-3.893-1.691-8.463,0.112-10.153,4.005l-38.349,88.321
	C1132.172,1213.335,1133.974,1217.905,1137.867,1219.596z"/>
<path style="fill:#D7B4B4;" d="M1184.235,1219.596l1.851,0.804c3.893,1.691,8.458-0.112,10.149-4.005l38.348-88.321
	c1.691-3.893-0.112-8.463-4.005-10.154l-1.851-0.804c-3.893-1.691-8.458,0.112-10.149,4.005l-38.348,88.321
	C1178.539,1213.335,1180.342,1217.905,1184.235,1219.596z"/>
<path style="fill:#D7B4B4;" d="M1233.852,1219.596l1.851,0.804c3.893,1.691,8.463-0.112,10.154-4.005l38.348-88.321
	c1.691-3.893-0.112-8.463-4.005-10.154l-1.851-0.804c-3.893-1.691-8.463,0.112-10.154,4.005l-38.348,88.321
	C1228.157,1213.335,1229.96,1217.905,1233.852,1219.596z"/>
<path style="fill:#D7B4B4;" d="M1282.661,1219.596l1.852,0.804c3.893,1.691,8.458-0.112,10.149-4.005l38.348-88.321
	c1.691-3.893-0.112-8.463-4.005-10.154l-1.851-0.804c-3.893-1.691-8.458,0.112-10.149,4.005l-38.348,88.321
	C1276.965,1213.335,1278.768,1217.905,1282.661,1219.596z"/>
<path style="fill:#D7B4B4;" d="M1333.092,1219.596l1.851,0.804c3.893,1.691,8.463-0.112,10.154-4.005l38.348-88.321
	c1.691-3.893-0.112-8.463-4.005-10.154l-1.856-0.804c-3.893-1.691-8.458,0.112-10.149,4.005l-38.348,88.321
	C1327.396,1213.335,1329.199,1217.905,1333.092,1219.596z"/>
<path style="fill:#D7B4B4;" d="M1380.269,1219.596l1.857,0.804c3.892,1.691,8.458-0.112,10.148-4.005l38.349-88.321
	c1.69-3.893-0.112-8.463-4.005-10.154l-1.851-0.804c-3.892-1.691-8.463,0.112-10.148,4.005l-38.353,88.321
	C1374.578,1213.335,1376.376,1217.905,1380.269,1219.596z"/>
<path style="fill:#D7B4B4;" d="M1429.891,1219.596l1.851,0.804c3.892,1.691,8.463-0.112,10.153-4.005l38.348-88.321
	c1.691-3.893-0.112-8.463-4.005-10.154l-1.856-0.804c-3.892-1.691-8.458,0.112-10.148,4.005l-38.349,88.321
	C1424.196,1213.335,1425.998,1217.905,1429.891,1219.596z"/>
<path style="fill:#D7B4B4;" d="M1477.067,1219.596l1.856,0.804c3.893,1.691,8.458-0.112,10.149-4.005l38.348-88.321
	c1.691-3.893-0.112-8.463-4.005-10.154l-1.851-0.804c-3.893-1.691-8.463,0.112-10.149,4.005l-38.353,88.321
	C1471.377,1213.335,1473.175,1217.905,1477.067,1219.596z"/>
<path style="fill:#D7B4B4;" d="M1527.504,1219.596l1.851,0.804c3.893,1.691,8.463-0.112,10.154-4.005l38.348-88.321
	c1.69-3.893-0.112-8.463-4.005-10.154l-1.856-0.804c-3.893-1.691-8.458,0.112-10.149,4.005l-38.348,88.321
	C1521.808,1213.335,1523.611,1217.905,1527.504,1219.596z"/>
<path style="fill:#D7B4B4;" d="M1574.68,1219.596l1.856,0.804c3.893,1.691,8.458-0.112,10.149-4.005l38.348-88.321
	c1.691-3.893-0.112-8.463-4.005-10.154l-1.852-0.804c-3.893-1.691-8.463,0.112-10.154,4.005l-38.348,88.321
	C1568.989,1213.335,1570.787,1217.905,1574.68,1219.596z"/>
<path style="fill:#D7B4B4;" d="M1623.489,1219.596l1.851,0.804c3.892,1.691,8.462-0.112,10.153-4.005l38.348-88.321
	c1.691-3.893-0.112-8.463-4.005-10.154l-1.857-0.804c-3.892-1.691-8.458,0.112-10.148,4.005l-38.349,88.321
	C1617.793,1213.335,1619.596,1217.905,1623.489,1219.596z"/>
<path style="fill:#D7B4B4;" d="M1666.378,1219.596l1.851,0.804c3.893,1.691,8.463-0.112,10.154-4.005l38.348-88.321
	c1.691-3.893-0.112-8.463-4.005-10.154l-1.857-0.804c-3.888-1.691-8.458,0.112-10.149,4.005l-38.348,88.321
	C1660.682,1213.335,1662.485,1217.905,1666.378,1219.596z"/>
<path style="fill:#D7B4B4;" d="M1766.86,1259.561H611.524c-20.595,0-37.442,16.853-37.442,37.447v34.777
	c0,20.594,16.847,37.447,37.442,37.447H1766.86c20.594,0,37.447-16.853,37.447-37.447v-34.777
	C1804.307,1276.414,1787.454,1259.561,1766.86,1259.561z"/>
<path style="fill:#EADADA;" d="M638.866,1335.045h1100.34c9.788,0,17.798-8.009,17.798-17.798v-1.447
	c0-9.788-8.01-17.798-17.798-17.798H638.866c-9.788,0-17.797,8.01-17.797,17.798v1.447
	C621.069,1327.035,629.078,1335.045,638.866,1335.045z"/>
</svg>
