<?xml version="1.0" encoding="utf-8"?>
<!-- Generator: Adobe Illustrator 27.5.0, SVG Export Plug-In . SVG Version: 6.00 Build 0)  -->
<svg version="1.1" id="Capa_1" xmlns="http://www.w3.org/2000/svg" xmlns:xlink="http://www.w3.org/1999/xlink" x="0px" y="0px"
	 viewBox="0 0 2035 2212" style="enable-background:new 0 0 2035 2212;" xml:space="preserve">
<path style="fill:#9AD1ED;" d="M328.838,700.678l-0.351,0.448c-1.098,1.414-2.191,2.833-3.282,4.254l-0.455,0.59
	c-1.073,1.4-2.139,2.806-3.204,4.212l-0.503,0.662c-1.033,1.369-2.061,2.743-3.087,4.119l-0.587,0.785
	c-0.892,1.198-1.777,2.4-2.662,3.604l-0.994,1.346c-0.935,1.275-1.864,2.555-2.792,3.835l-0.8,1.1
	c-0.755,1.045-1.504,2.094-2.254,3.142c-0.451,0.63-0.905,1.258-1.354,1.89c-0.694,0.974-1.381,1.952-2.07,2.929
	c-0.484,0.687-0.972,1.372-1.455,2.06c-0.737,1.052-1.469,2.107-2.202,3.162c-0.434,0.623-0.868,1.244-1.3,1.868
	c-0.679,0.983-1.352,1.969-2.027,2.954c-0.486,0.709-0.974,1.417-1.458,2.128c-0.656,0.964-1.306,1.932-1.959,2.898
	c-0.488,0.724-0.979,1.446-1.466,2.172c-0.614,0.915-1.223,1.836-1.833,2.754c-0.53,0.795-1.061,1.589-1.588,2.386
	c-0.599,0.908-1.193,1.819-1.789,2.73c-0.519,0.793-1.04,1.584-1.558,2.379c-0.696,1.071-1.387,2.146-2.079,3.22
	c-0.412,0.639-0.827,1.277-1.237,1.918c-0.615,0.961-1.225,1.925-1.836,2.888c-0.499,0.785-1,1.569-1.496,2.356
	c-0.492,0.78-0.978,1.563-1.468,2.345c-0.599,0.957-1.201,1.914-1.796,2.873c-0.483,0.779-0.961,1.561-1.442,2.341
	c-0.594,0.965-1.19,1.928-1.782,2.896c-0.487,0.798-0.97,1.599-1.455,2.398c-0.575,0.948-1.152,1.896-1.724,2.847
	c-0.519,0.863-1.033,1.729-1.549,2.594c-0.534,0.896-1.07,1.788-1.601,2.685c-0.494,0.836-0.983,1.674-1.474,2.511
	c-0.551,0.938-1.104,1.875-1.652,2.815c-0.45,0.773-0.895,1.548-1.342,2.322c-0.581,1.006-1.165,2.011-1.743,3.02
	c-0.433,0.756-0.861,1.516-1.293,2.273c-0.584,1.027-1.169,2.052-1.749,3.081c-0.444,0.789-0.884,1.581-1.326,2.372
	c-0.308,0.551-0.617,1.101-0.923,1.652l-0.003-0.005l-0.614,1.109l-0.247,0.445c-0.313,0.565-0.626,1.129-0.937,1.694l-0.077,0.14
	l-0.381,0.695l-0.687,1.251c-0.297,0.543-0.593,1.086-0.889,1.63l-0.134,0.244c-0.343,0.63-0.685,1.26-1.027,1.892l-0.331,0.614
	c-0.417,0.773-0.835,1.547-1.25,2.322l-0.481,0.901l-0.513,0.96l-0.063,0.117c-0.3,0.562-0.598,1.125-0.895,1.687l-0.559,1.056
	l-0.468,0.885l-0.034,0.064c-0.543,1.032-1.084,2.064-1.623,3.099l-0.033,0.064l-0.376,0.724l-0.646,1.245
	c-0.28,0.54-0.559,1.08-0.838,1.621l-0.111,0.216l-0.447,0.87l-0.501,0.974c-0.412,0.805-0.822,1.611-1.231,2.417l-0.396,0.778
	c-0.286,0.565-0.57,1.132-0.856,1.698l-0.087,0.172c-0.305,0.605-0.609,1.21-0.913,1.816l-0.053,0.106l-0.512,1.024l-0.432,0.865
	c-0.294,0.59-0.586,1.183-0.879,1.773l-0.175,0.353c-0.469,0.948-0.936,1.897-1.401,2.847l-0.107,0.218
	c-0.278,0.567-0.556,1.135-0.832,1.704l-0.046,0.096c-0.24,0.493-0.479,0.985-0.717,1.478l-0.208,0.43
	c-0.314,0.649-0.626,1.298-0.938,1.948l-0.12,0.248c-0.404,0.843-0.808,1.687-1.21,2.531l-0.166,0.35
	c-0.299,0.629-0.599,1.258-0.896,1.889l-0.04,0.084c-0.292,0.62-0.585,1.241-0.876,1.861l-0.048,0.102
	c-0.294,0.627-0.587,1.253-0.879,1.88l-0.093,0.198c-0.269,0.576-0.538,1.151-0.805,1.727l-0.295,0.64
	c-0.399,0.863-0.798,1.728-1.194,2.592l-0.035,0.075l-0.423,0.927l-0.43,0.941c-0.293,0.644-0.586,1.288-0.877,1.933l-0.632,1.399
	l-0.227,0.503l-0.031,0.068c-0.485,1.079-0.968,2.16-1.45,3.241l-0.158,0.358c-0.22,0.495-0.439,0.991-0.658,1.487l-0.065,0.148
	c-0.269,0.608-0.538,1.218-0.805,1.827l-0.057,0.129l-0.534,1.219l-0.311,0.711c-0.334,0.765-0.665,1.531-0.996,2.297l-0.361,0.835
	c-0.283,0.657-0.565,1.315-0.847,1.973l-0.051,0.119c-0.279,0.653-0.558,1.306-0.836,1.959l-0.475,1.113l-0.343,0.817l-0.006,0.015
	c-0.351,0.831-0.7,1.663-1.049,2.495l-0.155,0.37c-0.274,0.656-0.547,1.313-0.819,1.969l-0.102,0.244
	c-0.303,0.73-0.605,1.459-0.905,2.189c-0.266,0.647-0.532,1.294-0.796,1.941c-0.317,0.775-0.631,1.551-0.946,2.326l-0.117,0.288
	c-0.246,0.608-0.492,1.216-0.736,1.825l-0.143,0.357c-0.343,0.853-0.685,1.707-1.025,2.561l-0.035,0.088l-0.044,0.114
	c-0.211,0.531-0.422,1.062-0.632,1.593l-0.033,0.085c-0.298,0.755-0.596,1.512-0.893,2.269l-0.509,1.292l-0.255,0.66
	c-0.422,1.083-0.842,2.168-1.259,3.253c-0.23,0.598-0.459,1.197-0.688,1.796c-0.29,0.759-0.579,1.519-0.867,2.279
	c-0.223,0.59-0.447,1.179-0.669,1.769c-0.437,1.16-0.872,2.322-1.303,3.484c-0.222,0.598-0.442,1.197-0.663,1.795
	c-0.293,0.795-0.586,1.59-0.877,2.386l-0.396,1.078l-0.219,0.605l-0.003,0.01c-0.436,1.2-0.869,2.401-1.301,3.603
	c-0.202,0.565-0.403,1.131-0.604,1.697c-0.279,0.784-0.558,1.569-0.834,2.356l-0.01,0.026l-0.364,1.026l-0.256,0.736
	c-0.403,1.151-0.804,2.304-1.203,3.457c-0.179,0.521-0.358,1.043-0.537,1.563c-0.307,0.893-0.613,1.787-0.917,2.682l-0.319,0.935
	l-0.288,0.859L190.886,957c-0.296,0.878-0.59,1.757-0.884,2.637l-0.076,0.226c-0.197,0.593-0.394,1.186-0.591,1.778l-0.094,0.286
	c-0.311,0.939-0.62,1.879-0.927,2.819l-0.262,0.797l-0.29,0.896l-0.006,0.021c-0.285,0.879-0.569,1.759-0.852,2.64l-0.051,0.159
	l-0.427,1.331l-0.051,0.162c-0.385,1.209-0.768,2.42-1.148,3.632l-0.198,0.627l-0.308,0.991c-0.278,0.893-0.555,1.787-0.831,2.682
	c-0.156,0.506-0.314,1.013-0.468,1.519c-0.393,1.282-0.782,2.566-1.169,3.851l-0.143,0.471l-0.286,0.96l-0.009,0.032
	c-0.272,0.911-0.544,1.822-0.813,2.734c-0.162,0.545-0.322,1.089-0.482,1.634c-0.37,1.261-0.738,2.523-1.102,3.787l-0.12,0.412
	l-0.328,1.149c-0.253,0.886-0.505,1.772-0.757,2.659c-0.158,0.559-0.317,1.118-0.473,1.677c-0.352,1.254-0.702,2.508-1.048,3.763
	l-0.1,0.356l-0.26,0.958l-0.014,0.05c-0.267,0.973-0.532,1.947-0.796,2.921l-0.024,0.088c-0.139,0.512-0.276,1.024-0.414,1.537
	l-0.022,0.082c-0.286,1.064-0.569,2.129-0.85,3.195l-0.217,0.816l-0.165,0.633c-0.303,1.158-0.605,2.317-0.904,3.477
	c-0.139,0.541-0.278,1.082-0.417,1.623c-0.251,0.983-0.5,1.966-0.749,2.951l-0.331,1.308c-0.329,1.315-0.655,2.632-0.979,3.95
	c-0.126,0.514-0.251,1.029-0.376,1.542c-0.242,0.995-0.482,1.992-0.721,2.988l-0.326,1.357c-0.318,1.336-0.633,2.673-0.944,4.011
	c-0.11,0.473-0.219,0.947-0.328,1.421c-0.233,1.007-0.464,2.014-0.694,3.023c-0.107,0.474-0.216,0.949-0.323,1.423
	c-0.31,1.372-0.616,2.744-0.919,4.118l-0.236,1.08c-0.238,1.086-0.474,2.173-0.708,3.26c-0.109,0.504-0.217,1.008-0.325,1.513
	c-0.289,1.355-0.576,2.712-0.859,4.07l-0.202,0.979c-0.237,1.144-0.472,2.288-0.704,3.434l-0.279,1.378
	c-0.261,1.297-0.519,2.596-0.774,3.895l-0.132,0.671c-0.26,1.328-0.516,2.658-0.769,3.989c-0.096,0.501-0.19,1.002-0.285,1.504
	c-0.212,1.125-0.423,2.252-0.631,3.38l-0.188,1.011c-0.259,1.41-0.514,2.821-0.766,4.233l-0.231,1.309
	c-0.197,1.111-0.391,2.223-0.583,3.335l-0.209,1.209c-0.238,1.39-0.473,2.781-0.705,4.174l-0.226,1.373
	c-0.18,1.092-0.357,2.184-0.533,3.276l-0.2,1.244c-0.23,1.449-0.458,2.899-0.681,4.35l-0.142,0.928
	c-0.182,1.189-0.361,2.378-0.538,3.569l-0.116,0.769l-0.074,0.511l-0.001,0.009c-0.212,1.439-0.421,2.88-0.626,4.322l-0.009,0.065
	l-0.001,0.006l-0.11,0.787c-0.176,1.25-0.35,2.5-0.52,3.751l-0.087,0.624l-0.074,0.556c-0.191,1.415-0.38,2.83-0.565,4.247
	l-0.052,0.4c-0.183,1.407-0.36,2.815-0.536,4.225c-0.061,0.485-0.12,0.97-0.18,1.455c-0.153,1.247-0.304,2.493-0.453,3.741
	l-0.085,0.711c-0.171,1.453-0.338,2.907-0.502,4.363c-0.052,0.468-0.105,0.938-0.156,1.406c-0.128,1.158-0.255,2.316-0.379,3.476
	l-0.114,1.061c-0.156,1.474-0.308,2.947-0.457,4.422l-0.113,1.147c-0.118,1.185-0.233,2.37-0.347,3.556l-0.113,1.191
	c-0.139,1.481-0.274,2.964-0.406,4.448l-0.08,0.922c-0.11,1.254-0.217,2.51-0.322,3.766l-0.097,1.171
	c-0.124,1.51-0.245,3.021-0.361,4.532l-0.043,0.572c-0.102,1.345-0.201,2.691-0.297,4.037l-0.085,1.207
	c-0.105,1.499-0.208,2.999-0.305,4.499l-0.008,0.115c-0.098,1.51-0.189,3.021-0.28,4.532l-0.075,1.288
	c-0.078,1.337-0.153,2.674-0.225,4.012l-0.031,0.585c-0.081,1.521-0.157,3.046-0.229,4.569l-0.055,1.188
	c-0.057,1.244-0.112,2.488-0.165,3.733l-0.044,1.032c-0.061,1.502-0.118,3.004-0.172,4.508l-0.039,1.122
	c-0.042,1.236-0.083,2.475-0.12,3.712l-0.034,1.134c-0.044,1.507-0.084,3.016-0.12,4.525l-0.022,1.004
	c-0.028,1.243-0.054,2.486-0.077,3.73l-0.023,1.287c-0.026,1.521-0.049,3.045-0.067,4.569l-0.006,0.574
	c-0.015,1.346-0.026,2.691-0.036,4.038l-0.008,1.37c-0.008,1.53-0.013,3.062-0.013,4.594c0,1.575,0.006,3.149,0.015,4.723
	l0.001,0.363l0.003,0.781l0.01,1.097c0.009,1.129,0.02,2.259,0.033,3.387l0.016,1.347l0.011,0.827
	c0.016,1.131,0.035,2.261,0.055,3.391l0.022,1.245l0.013,0.675l0.029,1.274c0.022,1.023,0.043,2.047,0.069,3.068l0.032,1.188
	l0.001,0.048c0.013,0.491,0.026,0.983,0.04,1.476c0.023,0.813,0.046,1.628,0.072,2.44c0.017,0.569,0.036,1.14,0.055,1.708
	l0.023,0.745l0.018,0.545c0.026,0.757,0.055,1.514,0.083,2.27c0.02,0.537,0.038,1.075,0.06,1.612c0.019,0.498,0.04,0.997,0.06,1.495
	c0.019,0.47,0.039,0.938,0.059,1.406c0.028,0.695,0.056,1.39,0.087,2.084l0.032,0.689c0.022,0.504,0.047,1.006,0.07,1.51
	l0.061,1.299c0.025,0.512,0.05,1.024,0.076,1.534c0.03,0.6,0.061,1.199,0.092,1.798c0.037,0.696,0.071,1.393,0.109,2.089
	l0.033,0.579l0.033,0.576c0.038,0.671,0.075,1.343,0.114,2.013c0.043,0.751,0.088,1.501,0.134,2.251l0.081,1.32
	c0.03,0.479,0.058,0.957,0.089,1.437c0.074,1.163,0.152,2.326,0.23,3.487l0.035,0.532l0.05,0.738
	c0.045,0.652,0.093,1.305,0.14,1.957c0.067,0.937,0.134,1.874,0.204,2.811l0.038,0.515c0.048,0.64,0.098,1.277,0.147,1.917
	c0.073,0.945,0.148,1.89,0.225,2.834l0.031,0.381l0.057,0.705l0.087,1.076c0.1,1.194,0.203,2.388,0.307,3.581l0.078,0.861
	l0.074,0.838c0.044,0.497,0.088,0.995,0.133,1.492c0.081,0.89,0.162,1.779,0.246,2.668c0.08,0.849,0.162,1.699,0.245,2.549
	c0.075,0.766,0.149,1.532,0.226,2.298c0.077,0.777,0.156,1.554,0.235,2.33l0.013,0.131l0.02,0.201
	c0.075,0.734,0.153,1.468,0.23,2.202c0.117,1.101,0.233,2.202,0.354,3.302l0.034,0.305c0.058,0.534,0.118,1.067,0.178,1.601
	c0.063,0.561,0.123,1.121,0.186,1.681c0.09,0.797,0.183,1.594,0.276,2.39l0.001,0.01l0.08,0.677c0.063,0.545,0.127,1.09,0.192,1.635
	c0.124,1.043,0.25,2.085,0.377,3.127c0.063,0.507,0.126,1.013,0.189,1.52c0.189,1.519,0.381,3.035,0.578,4.55l0.029,0.229
	l0.001,0.008l0.045,0.338c0.235,1.802,0.475,3.602,0.721,5.398l0.003,0.021l0.018,0.137l0.074,0.542l0.083,0.605
	c0.17,1.233,0.344,2.466,0.52,3.697l0.109,0.761c0.159,1.104,0.32,2.209,0.483,3.313c0.111,0.75,0.223,1.5,0.335,2.25l0.056,0.369
	l0.026,0.176l0.036,0.232c0.207,1.367,0.416,2.732,0.629,4.097l0.02,0.131l0.087,0.552l0.045,0.285
	c50.679,322.707,278.386,586.654,580.609,689.329l0.573,0.194c1.456,0.493,2.913,0.983,4.372,1.47l0.097,0.032
	c1.556,0.519,3.113,1.032,4.673,1.542l0.188,0.061c1.405,0.459,2.813,0.913,4.222,1.365l0.902,0.288
	c1.176,0.376,2.354,0.749,3.532,1.12l1.104,0.348c1.456,0.456,2.913,0.91,4.373,1.358l0.245,0.075
	c4.934,1.516,9.887,2.988,14.858,4.418l0.831,0.238c1.379,0.396,2.762,0.788,4.145,1.177l0.797,0.225
	c3.201,0.896,6.409,1.774,9.625,2.637l1.129,0.3c1.216,0.324,2.434,0.646,3.652,0.965l1.333,0.348
	c1.567,0.408,3.136,0.813,4.706,1.211l0.168,0.043c3.413,0.866,6.834,1.712,10.262,2.537c3.429,0.825,6.865,1.63,10.309,2.415
	l0.923,0.21c1.204,0.273,2.41,0.544,3.616,0.813l0.739,0.163c3.897,0.862,7.803,1.699,11.72,2.509l0.712,0.148
	c1.131,0.232,2.263,0.462,3.396,0.691l1.302,0.262c1.078,0.216,2.155,0.43,3.234,0.642c0.51,0.1,1.021,0.198,1.53,0.297
	c1.062,0.207,2.124,0.414,3.187,0.616l1.085,0.204c2.142,0.405,4.287,0.803,6.435,1.192c0.47,0.085,0.939,0.172,1.409,0.256
	c0.962,0.173,1.926,0.343,2.889,0.513c0.672,0.118,1.345,0.237,2.019,0.354c0.931,0.161,1.862,0.321,2.793,0.48
	c0.65,0.11,1.301,0.22,1.952,0.329c0.96,0.161,1.92,0.323,2.882,0.481c0.658,0.108,1.316,0.214,1.975,0.32
	c1.587,0.258,3.174,0.511,4.764,0.76c0.835,0.131,1.67,0.263,2.506,0.391c0.841,0.13,1.683,0.256,2.525,0.383
	c0.782,0.117,1.563,0.234,2.347,0.351c0.863,0.127,1.728,0.254,2.591,0.379c0.802,0.115,1.604,0.23,2.406,0.344
	c0.823,0.117,1.645,0.234,2.468,0.349c0.908,0.126,1.816,0.249,2.725,0.372c0.997,0.136,1.993,0.271,2.991,0.402
	c1.271,0.168,2.542,0.334,3.814,0.497c0.736,0.094,1.473,0.185,2.21,0.276c0.917,0.115,1.836,0.229,2.754,0.342
	c0.767,0.094,1.535,0.186,2.302,0.277c0.946,0.112,1.892,0.224,2.838,0.333c0.717,0.083,1.433,0.166,2.149,0.247
	c1.07,0.122,2.141,0.24,3.211,0.357c0.595,0.065,1.19,0.133,1.786,0.196c1.6,0.172,3.201,0.34,4.804,0.504
	c0.59,0.06,1.18,0.117,1.77,0.176c1.087,0.108,2.174,0.216,3.261,0.321c0.685,0.065,1.371,0.13,2.056,0.194
	c1.013,0.095,2.027,0.188,3.041,0.279c0.703,0.063,1.406,0.127,2.109,0.189c1.117,0.098,2.233,0.192,3.351,0.286
	c0.544,0.046,1.089,0.094,1.634,0.138c1.635,0.135,3.272,0.265,4.91,0.39c0.541,0.042,1.082,0.08,1.623,0.12
	c1.151,0.086,2.302,0.171,3.455,0.252c0.676,0.048,1.351,0.094,2.027,0.14c1.041,0.071,2.082,0.141,3.124,0.208
	c0.668,0.044,1.337,0.087,2.006,0.128c1.166,0.073,2.333,0.143,3.5,0.211c0.523,0.03,1.045,0.063,1.568,0.093
	c1.683,0.095,3.367,0.186,5.052,0.271l1.044,0.051c1.348,0.067,2.696,0.132,4.046,0.192c0.606,0.027,1.213,0.053,1.819,0.079
	c1.144,0.049,2.288,0.096,3.433,0.141c0.599,0.023,1.197,0.047,1.796,0.069c1.212,0.045,2.425,0.087,3.639,0.127
	c0.517,0.017,1.033,0.034,1.549,0.052c1.702,0.052,3.404,0.101,5.108,0.145l0.677,0.016c1.486,0.037,2.973,0.069,4.461,0.099
	c0.572,0.012,1.144,0.021,1.716,0.031c1.182,0.021,2.365,0.04,3.549,0.056c0.595,0.009,1.19,0.017,1.785,0.023
	c1.18,0.013,2.36,0.024,3.542,0.033c0.579,0.005,1.157,0.01,1.736,0.014c1.705,0.01,3.411,0.016,5.119,0.016h0.001
	c31.974,0,63.545-1.721,94.627-5.075c1.828-0.197,3.654-0.401,5.48-0.609c21.898-2.504,43.552-5.818,64.927-9.914
	c1.782-0.341,3.561-0.688,5.339-1.04c12.441-2.465,24.788-5.194,37.033-8.184c1.749-0.427,3.497-0.858,5.242-1.296
	c41.884-10.499,82.566-24.027,121.801-40.339c1.635-0.68,3.267-1.364,4.896-2.053c16.297-6.894,32.341-14.269,48.113-22.106
	c1.578-0.784,3.152-1.572,4.724-2.365c9.432-4.759,18.765-9.684,27.995-14.771c1.539-0.848,3.074-1.699,4.606-2.557
	c16.861-9.426,33.376-19.396,49.522-29.884c2.936-1.907,5.859-3.831,8.771-5.773c27.655-18.442,54.198-38.424,79.504-59.822
	c2.664-2.252,5.314-4.52,7.95-6.804c14.5-12.56,28.581-25.591,42.22-39.067c4.96-4.9,9.86-9.86,14.701-14.878
	c7.263-7.526,14.391-15.184,21.38-22.967c3.496-3.892,6.956-7.815,10.381-11.77c3.426-3.954,6.816-7.939,10.172-11.956
	c1.118-1.339,2.232-2.681,3.343-4.026c14.436-17.492,28.202-35.556,41.261-54.154c1.004-1.431,2.004-2.864,3.001-4.302
	c11.952-17.242,23.3-34.938,34.011-53.053c0.893-1.51,1.78-3.022,2.664-4.538c3.534-6.063,6.997-12.17,10.39-18.324
	c0.848-1.538,1.69-3.08,2.53-4.624c5.032-9.265,9.902-18.631,14.605-28.095c1.567-3.154,3.116-6.319,4.646-9.496
	c6.887-14.292,13.396-28.801,19.513-43.514c0.68-1.635,1.354-3.273,2.024-4.912c41.539-101.666,64.434-212.929,64.434-329.538
	c0-1.773-0.008-3.544-0.018-5.315l-0.011-1.403c-0.011-1.297-0.022-2.594-0.038-3.889c-0.007-0.576-0.015-1.151-0.022-1.728
	c-0.017-1.188-0.036-2.376-0.057-3.563c-0.011-0.618-0.022-1.235-0.034-1.853c-0.024-1.211-0.052-2.421-0.082-3.631
	c-0.012-0.534-0.023-1.068-0.037-1.602c-0.037-1.432-0.079-2.86-0.122-4.29l-0.03-0.994c-0.057-1.771-0.118-3.539-0.185-5.307
	l-0.035-0.86c-0.056-1.438-0.114-2.875-0.177-4.311c-0.026-0.592-0.054-1.184-0.082-1.774c-0.053-1.16-0.107-2.319-0.164-3.478
	c-0.031-0.621-0.063-1.241-0.096-1.862c-0.059-1.133-0.119-2.265-0.183-3.396c-0.036-0.651-0.072-1.303-0.11-1.953
	c-0.065-1.14-0.135-2.278-0.205-3.416c-0.037-0.589-0.071-1.179-0.109-1.768c-0.098-1.522-0.199-3.043-0.303-4.563l-0.081-1.152
	c-0.106-1.517-0.217-3.033-0.331-4.548c-0.048-0.63-0.099-1.259-0.147-1.889c-0.084-1.078-0.169-2.155-0.256-3.231
	c-0.061-0.732-0.122-1.464-0.184-2.195c-0.081-0.971-0.164-1.94-0.249-2.909c-0.067-0.775-0.136-1.55-0.205-2.325
	c-0.088-0.974-0.179-1.946-0.27-2.919c-0.067-0.726-0.134-1.45-0.204-2.175c-0.106-1.115-0.218-2.23-0.329-3.345
	c-0.059-0.59-0.115-1.18-0.176-1.769c-0.167-1.643-0.339-3.283-0.516-4.923c-0.072-0.675-0.148-1.349-0.223-2.022
	c-0.11-1.004-0.221-2.008-0.334-3.01c-0.094-0.824-0.19-1.647-0.286-2.471c-0.098-0.846-0.197-1.693-0.298-2.539
	c-0.104-0.877-0.211-1.754-0.318-2.63c-0.099-0.801-0.197-1.601-0.298-2.401c-0.111-0.89-0.223-1.78-0.337-2.67
	c-0.099-0.77-0.201-1.54-0.302-2.311c-0.119-0.91-0.237-1.822-0.36-2.732c-0.1-0.743-0.203-1.486-0.305-2.229
	c-0.258-1.89-0.523-3.779-0.794-5.665c-0.078-0.546-0.155-1.091-0.234-1.635c-0.147-1.012-0.298-2.022-0.449-3.033
	c-0.097-0.652-0.193-1.305-0.292-1.957c-0.153-1.01-0.31-2.021-0.466-3.03c-0.095-0.605-0.188-1.211-0.284-1.816
	c-0.166-1.055-0.332-2.109-0.502-3.162c-0.091-0.564-0.184-1.129-0.275-1.693c-0.175-1.068-0.349-2.137-0.527-3.204
	c-0.079-0.477-0.161-0.953-0.241-1.429c-0.682-4.042-1.391-8.076-2.127-12.1l-0.085-0.464c-0.231-1.26-0.467-2.519-0.704-3.777
	l-0.195-1.04c-0.236-1.245-0.475-2.488-0.716-3.731l-0.179-0.914c-0.253-1.297-0.508-2.594-0.768-3.89l-0.096-0.474
	c-0.736-3.673-1.497-7.338-2.279-10.994s-1.588-7.305-2.416-10.943l-0.066-0.291c-0.329-1.442-0.661-2.884-0.997-4.324l-0.006-0.021
	c-0.416-1.782-0.839-3.562-1.266-5.34l-0.337-1.393c-0.352-1.452-0.705-2.902-1.063-4.351l-0.267-1.075
	c-0.455-1.832-0.916-3.662-1.383-5.489l-0.052-0.201c-0.444-1.737-0.896-3.471-1.351-5.204l-0.278-1.058
	c-0.442-1.677-0.889-3.352-1.342-5.025l-0.098-0.362c-0.516-1.904-1.037-3.805-1.564-5.704l-0.037-0.13
	c-0.503-1.807-1.012-3.611-1.526-5.413l-0.16-0.561c-0.451-1.578-0.908-3.153-1.368-4.727l-0.39-1.324
	c-0.351-1.192-0.702-2.384-1.059-3.574l-0.394-1.314c-0.392-1.303-0.785-2.605-1.184-3.905l-0.247-0.815
	c-1.002-3.265-2.022-6.522-3.061-9.77l-0.229-0.718c-0.447-1.393-0.897-2.786-1.352-4.176l-0.256-0.784
	c-1.625-4.964-3.292-9.908-5.002-14.832l-0.027-0.078C1727.58,623.083,1426,385,1066.228,365.058l-0.337-1.149
	c-0.143-0.49-0.286-0.98-0.432-1.469c-0.156-0.529-0.313-1.057-0.473-1.584c-0.156-0.518-0.314-1.036-0.473-1.552
	c-0.253-0.825-0.509-1.648-0.767-2.47l-0.381-1.204c-0.622-1.956-1.261-3.904-1.915-5.845l-0.28-0.826
	c-0.7-2.06-1.418-4.111-2.154-6.153l-0.118-0.327c-0.78-2.157-1.579-4.305-2.399-6.441l-0.005-0.013
	c-0.426-1.111-0.857-2.219-1.295-3.325l-0.33-0.826c-0.334-0.839-0.669-1.678-1.01-2.515l-0.357-0.87
	c-0.335-0.819-0.672-1.637-1.014-2.453l-0.381-0.905c-0.34-0.805-0.682-1.609-1.026-2.411l-0.376-0.867
	c-0.355-0.821-0.713-1.64-1.074-2.457l-0.356-0.801c-0.377-0.848-0.758-1.693-1.142-2.538l-0.315-0.693
	c-0.403-0.881-0.81-1.761-1.22-2.639l-0.274-0.588c-0.452-0.963-0.909-1.925-1.369-2.884l-0.13-0.271
	c-58.163-120.903-181.806-204.356-324.947-204.356c-199.042,0-360.397,161.355-360.397,360.397
	c0,46.689,12.589,103.066,33.559,162.017c-8.647,8.869-17.109,17.919-25.376,27.15C354.198,669.226,341.249,684.731,328.838,700.678
	z"/>
<path style="fill:#C1E4ED;" d="M808.058,1239.406c-78.779-67.525-213.829,0-292.608-45.017
	c-135.049-78.779-11.254-247.591-33.762-371.387c-2.372-7.114-4.618-14.478-6.831-21.972
	c-24.629-42.208-46.934-86.812-65.224-130.95c-11.127-8.006-24.399-13.592-40.487-15.89h-1.481
	c-13.465,15.035-26.416,30.54-38.826,46.487l-0.351,0.448c-1.098,1.414-2.191,2.833-3.282,4.254l-0.455,0.59
	c-1.073,1.4-2.139,2.806-3.204,4.212l-0.503,0.662c-1.033,1.369-2.061,2.743-3.087,4.119l-0.587,0.785
	c-0.892,1.198-1.777,2.4-2.662,3.604l-0.994,1.346c-0.935,1.275-1.864,2.555-2.792,3.835l-0.8,1.1
	c-0.755,1.045-1.504,2.094-2.254,3.142c-0.451,0.63-0.905,1.258-1.354,1.89c-0.694,0.974-1.381,1.952-2.07,2.929
	c-0.484,0.687-0.972,1.372-1.455,2.06c-0.737,1.052-1.469,2.107-2.202,3.162c-0.434,0.623-0.868,1.244-1.3,1.868
	c-0.679,0.983-1.352,1.969-2.027,2.954c-0.486,0.709-0.974,1.417-1.458,2.128c-0.656,0.964-1.306,1.932-1.959,2.898
	c-0.488,0.724-0.979,1.446-1.466,2.172c-0.614,0.915-1.223,1.836-1.833,2.754c-0.53,0.795-1.061,1.589-1.588,2.386
	c-0.599,0.908-1.193,1.819-1.789,2.73c-0.519,0.793-1.04,1.584-1.558,2.379c-0.696,1.071-1.387,2.146-2.079,3.22
	c-0.412,0.639-0.827,1.277-1.237,1.918c-0.615,0.961-1.225,1.925-1.836,2.888c-0.499,0.785-1,1.569-1.496,2.356
	c-0.492,0.78-0.978,1.563-1.468,2.345c-0.599,0.957-1.201,1.914-1.796,2.873c-0.483,0.779-0.961,1.561-1.442,2.341
	c-0.594,0.965-1.19,1.928-1.782,2.896c-0.487,0.798-0.97,1.599-1.455,2.398c-0.575,0.948-1.152,1.896-1.724,2.847
	c-0.519,0.863-1.033,1.729-1.549,2.594c-0.534,0.896-1.07,1.788-1.601,2.685c-0.494,0.836-0.983,1.674-1.474,2.511
	c-0.551,0.938-1.104,1.875-1.652,2.815c-0.45,0.773-0.895,1.548-1.342,2.322c-0.581,1.006-1.165,2.011-1.743,3.02
	c-0.433,0.756-0.861,1.516-1.293,2.273c-0.584,1.027-1.169,2.052-1.749,3.081c-0.444,0.789-0.884,1.581-1.326,2.372
	c-0.308,0.551-0.617,1.101-0.923,1.652c25.456,42.463,26.874,101.441,20.546,148.903c-15.606,109.245-57.224,260.108,57.224,317.331
	c72.83,36.415,161.267-5.202,223.692,52.021c72.83,57.224-46.819,72.83-72.83,114.447c-5.202,10.404,0,26.011,0,41.617
	c10.404,36.415,52.022,72.83,20.809,114.447c-8.505,14.885-19.619,27.16-32.983,37.54l-0.075-0.023h-0.002v0.002l0.017,0.006
	c-19.329,15.007-43.328,26.082-71,35.305c-15.606,5.202-5.202,31.213-5.202,52.021c10.836,51.472,34.332,107.171,42.645,160.496
	c79.147,70.465,171.197,126.756,272.195,164.819c0.367-4.819-0.145-9.823-1.421-14.836l-0.197-0.753
	c-0.812-3.008-1.896-6.017-3.228-8.987c-0.443-0.989-0.915-1.976-1.413-2.956c-0.623-1.226-1.287-2.442-1.991-3.647
	c-0.282-0.482-0.569-0.963-0.863-1.44c-2.06-3.349-4.425-6.598-7.056-9.688l-0.568-0.659
	c-13.156-15.119-32.709-26.277-53.895-26.277c-11.605-1.934-22.214-5.53-31.94-10.446c-0.884-0.447-1.761-0.905-2.63-1.374
	c-0.87-0.468-1.732-0.947-2.587-1.437l-1.278-0.742c-5.513-3.249-10.726-6.932-15.665-10.977c-0.759-0.622-1.513-1.253-2.26-1.893
	c-1.494-1.278-2.962-2.59-4.404-3.933c-0.721-0.672-1.437-1.352-2.145-2.038c-1.772-1.717-3.506-3.482-5.202-5.29l-1.014-1.089
	c-4.708-5.11-9.126-10.552-13.282-16.237l-0.887-1.223c-4.414-6.129-8.53-12.53-12.387-19.096l-0.768-1.315
	c-10.955-18.884-19.786-39.058-27.347-57.961c-10.903-38.158-5.962-73.677,10.983-102.718c0.273-0.468,0.55-0.935,0.829-1.4
	c8.107-13.485,18.827-25.54,31.768-35.771l1.346-1.052c5.418-4.182,11.214-8.048,17.36-11.572c0.512-0.294,1.027-0.586,1.544-0.875
	c3.102-1.733,6.291-3.381,9.563-4.938c1.09-0.52,2.191-1.028,3.3-1.528c1.109-0.499,2.228-0.988,3.355-1.468
	c0.564-0.239,1.129-0.476,1.697-0.71c1.137-0.469,2.282-0.927,3.436-1.375c1.154-0.448,2.317-0.886,3.489-1.313
	c1.758-0.641,3.535-1.258,5.331-1.851c2.395-0.79,4.824-1.538,7.286-2.241c-0.596-2.236-1.083-4.403-1.636-6.611l-0.008-0.034
	l-0.077-0.012c-41.192-164.528,37.866-252.783,215.55-297.204C864.328,1374.456,853.074,1273.169,808.058,1239.406z"/>
<path style="fill:#C1E4ED;" d="M1156.936,811.749c67.525-45.017,123.796,33.762,168.813,78.779
	c22.508,11.254,45.016,22.508,67.524,11.254c45.017-33.763,33.763-123.796,90.033-146.305
	c78.779-22.508,112.542,56.272,101.288,123.796c-22.509,101.287-146.305,146.304-101.288,236.337
	c21.014,39.399,52.442,68.981,89.569,89.181l0.012-0.021c93.859,51.068,224.118,42.188,314.57-19.673
	c-1.067-18.702-2.779-37.228-5.009-55.593c-61.382,15.684-128.926,4.376-181.67-32.856c-23.312-13.598-40.081-33.005-50.876-55.501
	l-0.007,0.016c-18.119-37.749-19.381-84.212-6.341-126.59c15.606-62.426,31.213-119.649,10.404-182.076
	c-20.809-67.628-93.639-130.054-166.469-104.043c-46.819,15.606-36.415,93.639-93.639,109.245
	c-46.82,10.404-78.033-36.415-119.65-57.224c-83.234-36.415-130.054,67.628-197.682,104.043
	c-26.011,10.405-52.021-5.202-67.628-26.011c-5.202-10.404-5.202-31.213,0-41.617c20.285-36.512,46.896-73.024,42.826-107.069
	c-0.272,0.8-0.546,1.601-0.821,2.403c-1.006,2.921-2.032,5.849-3.081,8.785c-1.049,2.936-2.12,5.879-3.211,8.828
	c-0.364,0.983-0.73,1.967-1.099,2.951c-1.105,2.953-2.231,5.912-3.379,8.875c-0.764,1.976-1.538,3.954-2.32,5.934
	c-0.782,1.98-1.573,3.962-2.373,5.946c-0.801,1.983-1.609,3.968-2.426,5.955c-0.817,1.987-1.644,3.975-2.478,5.964
	c-0.834,1.989-1.677,3.979-2.527,5.971c-0.425,0.995-0.854,1.991-1.282,2.987c-0.859,1.992-1.727,3.985-2.601,5.979
	c-0.875,1.993-1.758,3.987-2.648,5.981c-1.336,2.991-2.689,5.983-4.06,8.975c-1.371,2.991-2.758,5.982-4.162,8.972
	c-0.936,1.993-1.879,3.986-2.829,5.977s-1.907,3.983-2.872,5.973c-1.928,3.98-3.885,7.955-5.867,11.925
	c-0.496,0.992-0.993,1.984-1.492,2.975c-0.998,1.983-2.002,3.964-3.013,5.943c-1.011,1.98-2.028,3.956-3.051,5.932
	c-1.024,1.975-2.053,3.947-3.088,5.917c-1.553,2.955-3.12,5.904-4.7,8.848c-1.053,1.961-2.112,3.92-3.177,5.876
	c-1.064,1.956-2.134,3.909-3.21,5.858c-4.302,7.796-8.691,15.538-13.157,23.208c-2.233,3.835-4.485,7.651-6.754,11.448
	c-1.703,2.847-3.414,5.683-5.136,8.507c-1.148,1.882-2.299,3.76-3.455,5.631c-1.156,1.872-2.315,3.737-3.479,5.598
	c-1.164,1.86-2.331,3.714-3.502,5.562c-0.586,0.924-1.172,1.847-1.759,2.767c-1.763,2.762-3.533,5.51-5.311,8.244
	c-8.889,13.664-17.965,26.95-27.159,39.746c-1.226,1.706-2.454,3.404-3.684,5.092c-3.074,4.222-6.161,8.387-9.257,12.492
	c-1.238,1.642-2.477,3.274-3.719,4.897c-3.103,4.057-6.214,8.051-9.331,11.979c-1.246,1.572-2.494,3.132-3.742,4.683
	c-3.121,3.875-6.246,7.683-9.374,11.419c-3.752,4.483-7.509,8.863-11.263,13.133c-3.754,4.271-7.506,8.43-11.252,12.472
	c-2.498,2.695-4.993,5.337-7.483,7.926c-4.867,5.058-9.718,9.907-14.543,14.535c73.546,49.902,161.266,94.716,240.311,35.432
	C1123.173,969.307,1100.665,868.019,1156.936,811.749z"/>
<path style="fill:#C1E4ED;" d="M1819.034,1555.843c-0.728,0.603-1.454,1.206-2.181,1.811l-1.09,0.908
	c-1.451,1.211-2.899,2.427-4.346,3.646c-2.53,2.134-5.053,4.277-7.569,6.427c-0.719,0.614-1.437,1.229-2.154,1.844
	c-1.077,0.922-2.153,1.846-3.228,2.77c-0.716,0.616-1.433,1.232-2.147,1.849c-1.073,0.925-2.146,1.85-3.216,2.775
	c-0.715,0.616-1.429,1.233-2.142,1.85c-1.07,0.926-2.14,1.851-3.207,2.774c-0.712,0.616-1.425,1.232-2.136,1.848
	c-0.712,0.616-1.422,1.231-2.134,1.846c-1.776,1.538-3.552,3.073-5.325,4.604l-1.064,0.918c-0.708,0.612-1.418,1.223-2.126,1.833
	c-0.709,0.61-1.418,1.22-2.127,1.828c-0.708,0.609-1.416,1.217-2.124,1.823c-1.062,0.91-2.123,1.818-3.185,2.723
	c-3.893,3.32-7.78,6.606-11.669,9.842c-0.707,0.589-1.414,1.175-2.121,1.761c-1.061,0.877-2.121,1.751-3.183,2.62l-1.061,0.868
	c-6.013,4.91-12.032,9.682-18.072,14.256l-1.066,0.805c-2.488,1.874-4.981,3.714-7.478,5.516l-1.071,0.77
	c-0.714,0.512-1.429,1.021-2.144,1.525l-1.071,0.756c-3.22,2.258-6.446,4.45-9.685,6.566c-1.8,1.176-3.604,2.328-5.41,3.456
	c-3.252,2.029-6.517,3.979-9.797,5.84l-1.094,0.617c-2.919,1.636-5.849,3.2-8.793,4.688c-0.736,0.372-1.473,0.739-2.211,1.102
	c-7.008,3.441-14.096,6.439-21.283,8.912c-0.756,0.261-1.514,0.515-2.272,0.763c-1.896,0.622-3.802,1.206-5.713,1.752
	c-0.765,0.219-1.53,0.431-2.298,0.637c-1.534,0.412-3.073,0.8-4.617,1.161l-1.159,0.266c-4.253,0.958-8.546,1.721-12.88,2.271
	l-1.184,0.145c-28.031,3.302-57.87-2.282-90.627-21c-81.694-49.017-86.322-157.311-117.146-238.835l0.025-0.029
	c-11.639-30.782-27.015-57.744-51.692-76.252c-123.795-90.033-236.337,78.779-281.353,213.828
	c-7.857,28.285-13.075,57.228-15.786,86.396l0.04-0.013c-15.206,163.55,48.5,334.269,169.522,436.659
	c33.043-8.846,65.288-19.627,96.657-32.134c-1.006-0.828-2.006-1.662-3-2.5l-1.202-1.026c-0.597-0.509-1.195-1.016-1.788-1.527
	l-1.271-1.11c-0.558-0.487-1.118-0.974-1.672-1.465l-1.304-1.167c-0.54-0.483-1.083-0.966-1.62-1.452l-1.328-1.218
	c-0.513-0.471-1.027-0.938-1.536-1.412c-0.479-0.444-0.952-0.894-1.429-1.341c-0.469-0.441-0.94-0.88-1.407-1.324
	c-0.471-0.448-0.938-0.9-1.406-1.352c-0.473-0.454-0.946-0.907-1.416-1.363l-1.314-1.293c-0.489-0.481-0.979-0.963-1.466-1.447
	l-1.32-1.329c-0.47-0.473-0.939-0.943-1.405-1.419l-1.357-1.397l-1.346-1.391c-0.454-0.475-0.905-0.953-1.356-1.429l-1.305-1.383
	c-0.472-0.504-0.94-1.011-1.408-1.518l-1.205-1.305c-0.477-0.521-0.949-1.045-1.423-1.568l-1.188-1.317
	c-0.463-0.518-0.921-1.036-1.381-1.557l-1.183-1.341c-0.463-0.53-0.922-1.063-1.382-1.595l-1.144-1.328
	c-0.463-0.541-0.923-1.085-1.382-1.629l-1.114-1.324c-0.459-0.549-0.915-1.102-1.371-1.654l-1.084-1.316
	c-0.467-0.571-0.93-1.145-1.393-1.718l-1.018-1.266c-0.469-0.587-0.935-1.175-1.398-1.764l-1.003-1.274
	c-0.468-0.601-0.933-1.201-1.397-1.804l-0.929-1.208c-0.49-0.641-0.978-1.284-1.463-1.93l-0.848-1.128
	c-0.485-0.649-0.969-1.301-1.449-1.953l-0.852-1.16c-0.483-0.662-0.966-1.325-1.445-1.991l-0.789-1.1
	c-0.49-0.686-0.978-1.373-1.463-2.062l-0.757-1.079c-0.496-0.708-0.988-1.419-1.479-2.131l-0.681-0.992
	c-0.507-0.74-1.011-1.482-1.513-2.228l-0.625-0.934c-0.518-0.773-1.033-1.549-1.545-2.326l-0.543-0.829
	c-0.532-0.813-1.061-1.627-1.587-2.444l-0.469-0.732c-0.548-0.854-1.092-1.71-1.632-2.568l-0.396-0.634
	c-0.549-0.876-1.094-1.754-1.636-2.635l-0.388-0.633c-0.558-0.911-1.112-1.824-1.663-2.74l-0.246-0.411
	c-0.59-0.985-1.177-1.973-1.759-2.963l-0.137-0.235c-0.611-1.042-1.219-2.086-1.82-3.135l-0.057-0.102
	c-60.592-105.621-73.997-242.324-54.192-362.8c0.576-3.507,1.179-7,1.812-10.479c10.404-52.021,72.83-119.649,104.043-78.032
	c3.969,4.274,7.646,8.766,11.078,13.443c44.53,60.722,46.803,153.4,84.953,222.887l0.004,0.007c0.777,1.416,1.569,2.822,2.377,4.218
	l0.022,0.039c0.397,0.688,0.8,1.373,1.206,2.056l0.025,0.044c0.621,1.043,1.25,2.081,1.889,3.111c0.958,1.548,1.938,3.08,2.938,4.6
	c0.667,1.013,1.345,2.02,2.031,3.02c0.344,0.5,0.689,0.998,1.038,1.494l0.12,0.169c0.408,0.581,0.818,1.158,1.234,1.733l0.359,0.494
	c0.346,0.476,0.692,0.95,1.043,1.423l0.43,0.574l0.984,1.306l0.507,0.658l0.954,1.229l0.541,0.684l0.919,1.149l0.601,0.739
	l0.919,1.114l0.616,0.736l0.915,1.078l0.64,0.744l0.942,1.076l0.64,0.723l0.967,1.073l0.643,0.704l0.978,1.053l0.683,0.728
	l0.972,1.013l0.693,0.719l1.066,1.077l0.629,0.633l1.21,1.185l0.523,0.511c0.583,0.562,1.17,1.119,1.765,1.673
	c78.032,72.83,182.075,5.202,265.31-41.617l0.962-0.395c0.64-0.26,1.277-0.512,1.914-0.756c1.433-0.549,2.856-1.059,4.272-1.531
	c0.708-0.235,1.413-0.463,2.117-0.68c0.704-0.218,1.405-0.426,2.104-0.625c1.243-0.353,2.48-0.677,3.71-0.973
	c0.615-0.147,1.229-0.289,1.84-0.422c0.918-0.201,1.832-0.386,2.742-0.555c0.91-0.17,1.817-0.324,2.721-0.462
	c0.602-0.093,1.201-0.179,1.8-0.258s1.196-0.151,1.792-0.217c1.19-0.132,2.375-0.237,3.553-0.317l-0.617,0.872l0.047-0.007
	c0.588-0.851,1.178-1.697,1.762-2.55c0.604-0.882,1.206-1.765,1.807-2.648c1.202-1.767,2.397-3.539,3.586-5.316
	c0.595-0.888,1.188-1.777,1.778-2.668c2.365-3.563,4.704-7.144,7.019-10.743c8.098-12.597,15.881-25.416,23.338-38.446
	c1.064-1.861,2.123-3.728,3.175-5.598c0.525-0.936,1.05-1.871,1.573-2.809c1.045-1.874,2.083-3.753,3.114-5.635
	c3.096-5.649,6.13-11.336,9.103-17.06c0.991-1.908,1.975-3.82,2.952-5.736c3.42-6.706,6.756-13.463,10.006-20.268
	c0.929-1.945,1.851-3.894,2.766-5.846c9.146-19.523,17.591-39.442,25.301-59.724c-0.737,0.585-1.473,1.172-2.209,1.761
	C1826.329,1549.846,1822.673,1552.83,1819.034,1555.843z"/>
<path style="fill:#A59BCC;" d="M1080.273,464.88c0-0.627-0.002-1.254-0.005-1.881l-0.004-0.591
	c-0.005-0.648-0.011-1.295-0.019-1.942l-0.006-0.41c-0.008-0.557-0.017-1.113-0.027-1.67l-0.011-0.583
	c-0.013-0.644-0.026-1.288-0.042-1.931l-0.014-0.515c-0.014-0.519-0.028-1.038-0.045-1.556l-0.019-0.607
	c-0.02-0.63-0.042-1.259-0.065-1.889l-0.023-0.599c-0.02-0.511-0.041-1.022-0.063-1.533l-0.023-0.551
	c-0.028-0.624-0.058-1.246-0.089-1.867l-0.034-0.67c-0.026-0.501-0.053-1.003-0.081-1.503l-0.029-0.529
	c-0.035-0.624-0.074-1.248-0.113-1.872l-0.04-0.647c-0.036-0.56-0.073-1.12-0.112-1.679l-0.039-0.558
	c-0.039-0.548-0.079-1.096-0.12-1.644l-0.052-0.682c-0.046-0.601-0.094-1.202-0.143-1.802l-0.052-0.623l-0.119-1.379l-0.065-0.75
	c-0.053-0.579-0.105-1.157-0.159-1.736l-0.073-0.757l-0.121-1.235l-0.082-0.802c-0.057-0.559-0.115-1.118-0.175-1.676l-0.096-0.883
	l-0.117-1.049l-0.107-0.951c-0.061-0.518-0.12-1.034-0.183-1.551l-0.115-0.95l-0.126-1.022l-0.173-1.358l-0.146-1.11l-0.133-0.999
	l-0.112-0.824c-0.085-0.612-0.17-1.224-0.258-1.835l-0.098-0.688l-0.172-1.179l-0.063-0.416c-0.111-0.746-0.226-1.49-0.342-2.235
	l-0.077-0.498c-0.204-1.305-0.416-2.606-0.636-3.906l-0.074-0.443c-0.227-1.337-0.461-2.672-0.703-4.003l-0.041-0.223
	c-0.252-1.391-0.513-2.779-0.782-4.164l-0.001-0.005c-0.142-0.73-0.286-1.46-0.432-2.189l-0.11-0.538
	c-0.112-0.558-0.227-1.114-0.341-1.671l-0.127-0.604c-0.113-0.539-0.227-1.077-0.341-1.615l-0.13-0.603
	c-0.128-0.594-0.258-1.188-0.389-1.781l-0.082-0.369c-0.333-1.503-0.676-3.001-1.028-4.498l-0.018-0.074
	c-0.167-0.708-0.336-1.414-0.508-2.121l-0.07-0.289c-0.164-0.675-0.33-1.349-0.498-2.023l-0.04-0.16
	c-39.146-156.688-180.849-272.758-349.664-272.758c-199.042,0-360.397,161.355-360.397,360.397
	c0,141.857,116.206,373.132,230.625,494.316c12.315,13.044,24.611,24.813,36.739,35.057c25.637,21.657,50.523,36.498,73.271,42.178
	l0.193,0.048l0.775,0.188l0.294,0.069l0.728,0.17l0.307,0.068l1.114,0.242l0.587,0.123l0.492,0.099l0.579,0.113l0.501,0.095
	l0.599,0.108l0.45,0.08l1.036,0.174l0.007,0.001c1,0.161,1.997,0.303,2.989,0.425l0.169,0.021l0.853,0.099l0.11,0.012
	c0.642,0.07,1.282,0.132,1.919,0.185l0.206,0.017l0.734,0.056l0.239,0.017l0.792,0.049l0.142,0.008l0.928,0.046l0.186,0.007
	l0.725,0.025l0.279,0.008l0.658,0.015l0.279,0.004l0.894,0.006c0.961,0,1.929-0.023,2.904-0.069
	c0.488-0.022,0.977-0.051,1.468-0.084c7.364-0.511,15.107-2.287,23.158-5.218c0.536-0.196,1.075-0.396,1.614-0.602
	c1.888-0.719,3.792-1.502,5.712-2.345c0.549-0.241,1.098-0.486,1.649-0.737c1.377-0.627,2.763-1.285,4.156-1.974
	c1.393-0.688,2.793-1.407,4.201-2.157l0.845-0.453c1.128-0.608,2.262-1.236,3.398-1.883c0.853-0.485,1.708-0.98,2.567-1.486
	c0.571-0.338,1.144-0.68,1.719-1.026l0.861-0.523c1.15-0.703,2.304-1.424,3.463-2.163c1.737-1.108,3.483-2.258,5.237-3.447
	c0.585-0.397,1.171-0.798,1.757-1.203l0.881-0.611c3.819-2.664,7.676-5.512,11.565-8.538c4.188-3.258,8.414-6.721,12.668-10.377
	l0.452-0.39l1.374-1.19l0.914-0.798c0.61-0.534,1.22-1.072,1.831-1.614l0.917-0.816c1.223-1.091,2.448-2.198,3.676-3.32
	c1.533-1.402,3.07-2.829,4.61-4.278c0.616-0.58,1.232-1.163,1.849-1.751c0.617-0.587,1.234-1.178,1.852-1.772
	c0.927-0.892,1.854-1.791,2.783-2.699c0.619-0.605,1.238-1.214,1.857-1.827c0.619-0.612,1.239-1.227,1.86-1.847
	c0.62-0.62,1.241-1.243,1.861-1.869c0.622-0.627,1.243-1.257,1.864-1.89l0.933-0.953c0.932-0.956,1.867-1.919,2.8-2.889
	c1.557-1.618,3.115-3.257,4.674-4.917l0.558-0.595c0.438-0.467,0.875-0.936,1.314-1.406c3.122-3.353,6.246-6.787,9.374-10.299
	c0.938-1.054,1.876-2.114,2.815-3.182c5.006-5.693,10.014-11.583,15.015-17.651c0.625-0.758,1.25-1.52,1.875-2.284
	c0.625-0.764,1.25-1.531,1.875-2.3c0.624-0.77,1.248-1.542,1.872-2.317c1.561-1.938,3.121-3.892,4.678-5.863
	c0.623-0.788,1.246-1.579,1.868-2.373c1.868-2.381,3.733-4.785,5.597-7.211c0.621-0.808,1.242-1.62,1.861-2.434
	c1.241-1.627,2.48-3.264,3.718-4.911c0.619-0.824,1.237-1.649,1.855-2.478c4.944-6.625,9.862-13.401,14.743-20.311
	c0.611-0.864,1.221-1.729,1.829-2.598c9.136-13.018,18.137-26.501,26.934-40.336c0.88-1.383,1.757-2.771,2.633-4.161
	c2.334-3.708,4.655-7.44,6.958-11.194c0.576-0.939,1.151-1.879,1.725-2.82c2.009-3.295,4.004-6.606,5.986-9.932
	c0.849-1.426,1.697-2.854,2.541-4.285c1.408-2.385,2.808-4.778,4.2-7.178c0.835-1.439,1.668-2.882,2.498-4.326
	c0.554-0.963,1.105-1.927,1.656-2.892c0.551-0.965,1.101-1.932,1.649-2.898c0.274-0.483,0.547-0.967,0.822-1.452
	c0.819-1.452,1.638-2.906,2.453-4.363c1.9-3.398,3.786-6.808,5.653-10.228c0.801-1.466,1.598-2.934,2.392-4.403
	c1.588-2.938,3.164-5.883,4.727-8.834c0.781-1.476,1.559-2.954,2.333-4.431c0.517-0.986,1.031-1.972,1.544-2.959
	c1.026-1.974,2.047-3.95,3.061-5.928c0.254-0.495,0.507-0.989,0.76-1.484c0.505-0.99,1.009-1.979,1.511-2.97
	c0.251-0.495,0.502-0.99,0.752-1.486c0.5-0.991,0.999-1.982,1.496-2.974c0.747-1.488,1.489-2.977,2.228-4.466
	c0.245-0.496,0.491-0.993,0.736-1.49c0.491-0.993,0.98-1.987,1.467-2.981c0.244-0.497,0.488-0.994,0.729-1.491
	c0.486-0.995,0.97-1.989,1.452-2.984c0.723-1.492,1.442-2.985,2.158-4.479c0.715-1.494,1.426-2.987,2.134-4.482
	c0.236-0.499,0.471-0.997,0.706-1.494c0.469-0.997,0.937-1.993,1.403-2.99c0.233-0.498,0.466-0.997,0.698-1.495
	c0.697-1.496,1.389-2.991,2.076-4.487c0.459-0.996,0.916-1.994,1.371-2.991c0.455-0.998,0.907-1.994,1.359-2.992
	c0.451-0.997,0.9-1.994,1.347-2.991c0.447-0.997,0.893-1.994,1.336-2.991c0.443-0.997,0.885-1.994,1.324-2.991
	c0.659-1.495,1.314-2.99,1.964-4.485c0.434-0.997,0.865-1.993,1.295-2.989c0.215-0.498,0.429-0.996,0.643-1.494
	c0.428-0.996,0.853-1.991,1.276-2.986c0.423-0.996,0.845-1.991,1.263-2.986c0.839-1.99,1.669-3.978,2.49-5.966
	c0.205-0.496,0.41-0.993,0.614-1.49c0.408-0.993,0.815-1.986,1.22-2.979c1.011-2.482,2.008-4.961,2.991-7.437
	c0.394-0.991,0.785-1.98,1.174-2.97c0.194-0.495,0.388-0.989,0.582-1.483c0.773-1.979,1.538-3.954,2.293-5.928
	c1.511-3.947,2.985-7.886,4.422-11.812c0.718-1.963,1.428-3.924,2.126-5.881c0.35-0.978,0.697-1.956,1.042-2.934
	c0.345-0.977,0.688-1.953,1.026-2.928c0.511-1.463,1.015-2.925,1.514-4.384c0.664-1.945,1.32-3.888,1.965-5.825
	c0.322-0.969,0.643-1.938,0.96-2.904c0.477-1.45,0.946-2.899,1.411-4.345c5.575-17.352,10.317-34.366,14.104-50.851
	c0.945-4.121,1.833-8.208,2.658-12.261c1.925-9.454,3.514-18.712,4.743-27.735c1.99-14.608,3.037-28.603,3.037-41.82
	L1080.273,464.88z"/>
<path style="fill:#EFE1DA;" d="M962.637,454.887c-0.001-0.568-0.003-1.136-0.008-1.703l-0.006-0.685
	c-0.006-0.52-0.013-1.04-0.021-1.56l-0.007-0.449c-0.013-0.635-0.027-1.271-0.044-1.905l-0.018-0.648
	c-0.015-0.487-0.03-0.973-0.047-1.458l-0.02-0.571c-0.023-0.636-0.049-1.273-0.078-1.91l-0.027-0.543
	c-0.023-0.501-0.048-1.002-0.075-1.503l-0.032-0.596c-0.036-0.632-0.073-1.264-0.113-1.895l-0.032-0.486
	c-0.034-0.514-0.069-1.027-0.106-1.54l-0.043-0.588c-0.046-0.637-0.096-1.272-0.148-1.908l-0.022-0.258
	c-0.048-0.58-0.1-1.16-0.152-1.739l-0.054-0.591c-0.052-0.553-0.105-1.107-0.161-1.659l-0.032-0.328
	c-0.065-0.646-0.133-1.29-0.205-1.934l-0.055-0.503c-0.06-0.537-0.122-1.075-0.186-1.611l-0.049-0.42
	c-0.077-0.642-0.156-1.282-0.239-1.922l-0.061-0.468c-0.068-0.519-0.137-1.038-0.208-1.557l-0.068-0.499
	c-0.089-0.642-0.181-1.283-0.275-1.923l-0.049-0.33c-0.084-0.564-0.169-1.128-0.257-1.691l-0.067-0.43
	c-0.209-1.331-0.43-2.658-0.66-3.982l-0.063-0.357c-0.235-1.333-0.48-2.663-0.737-3.988l-0.068-0.353
	c-0.12-0.615-0.242-1.229-0.366-1.843l-0.028-0.139c-0.139-0.68-0.279-1.358-0.425-2.036l-0.041-0.192
	c-0.136-0.638-0.275-1.274-0.416-1.91l-0.033-0.15c-0.308-1.38-0.627-2.756-0.958-4.128l-0.028-0.117
	c-0.336-1.389-0.683-2.773-1.042-4.153l-0.009-0.033c-0.129-0.495-0.261-0.99-0.394-1.485l-0.11-0.411l-0.314-1.152l-0.094-0.343
	c-0.281-1.017-0.569-2.031-0.862-3.042l-0.069-0.235l-0.403-1.366l-0.052-0.178c-0.313-1.046-0.633-2.089-0.959-3.129l-0.028-0.089
	c-30.945-98.472-122.947-169.897-231.634-169.897c-41.06,0-79.738,10.194-113.643,28.189
	c-60.739,32.236-106.158,89.506-122.504,158.056c-4.324,18.134-6.614,37.058-6.614,56.516c0,116.513,82.082,213.852,191.573,237.353
	l0.327,0.07l1.111,0.234l0.371,0.077l1.066,0.218l0.398,0.08l1.069,0.211l0.387,0.076l1.04,0.199l0.434,0.082
	c0.473,0.089,0.947,0.177,1.42,0.263l0.027,0.005c1.823,0.33,3.653,0.64,5.49,0.929l0.142,0.022c0.542,0.085,1.086,0.168,1.629,0.25
	l0.255,0.038c0.551,0.082,1.104,0.163,1.656,0.241l0.123,0.018c1.208,0.171,2.419,0.332,3.631,0.484l0.26,0.033
	c0.502,0.062,1.004,0.123,1.506,0.183l0.377,0.044c0.489,0.057,0.979,0.113,1.469,0.167l0.331,0.037
	c1.2,0.131,2.402,0.253,3.607,0.367l0.268,0.025c0.485,0.044,0.971,0.089,1.457,0.131l0.526,0.044l1.318,0.109l0.451,0.036
	c0.502,0.039,1.004,0.076,1.506,0.112l0.287,0.021c0.592,0.042,1.186,0.081,1.78,0.119l0.358,0.021l1.401,0.083l0.572,0.031
	l1.243,0.063l0.556,0.026l1.379,0.059l0.396,0.017c0.6,0.023,1.2,0.045,1.8,0.064l0.226,0.006c0.507,0.016,1.015,0.03,1.523,0.042
	l0.614,0.014l1.19,0.024l0.63,0.01l1.225,0.015l0.582,0.005c0.588,0.004,1.177,0.007,1.767,0.007c1.047,0,2.093-0.007,3.138-0.021
	c1.044-0.013,2.086-0.033,3.128-0.059c0.521-0.013,1.042-0.028,1.56-0.044c1.04-0.033,2.078-0.073,3.113-0.119
	c3.627-0.161,7.232-0.401,10.816-0.719c1.024-0.091,2.045-0.189,3.065-0.292c0.511-0.052,1.02-0.105,1.529-0.16
	c1.018-0.11,2.035-0.226,3.049-0.349c1.522-0.184,3.039-0.381,4.552-0.593c1.008-0.142,2.015-0.288,3.02-0.442
	c0.501-0.076,1.004-0.154,1.505-0.234c1.504-0.24,3.003-0.493,4.497-0.76c1.993-0.355,3.977-0.736,5.953-1.141
	c0.987-0.202,1.973-0.41,2.957-0.625c3.441-0.749,6.855-1.571,10.24-2.465c0.967-0.255,1.933-0.516,2.895-0.783
	c1.444-0.4,2.883-0.815,4.315-1.24c0.956-0.284,1.908-0.574,2.858-0.87c1.426-0.443,2.845-0.898,4.259-1.368
	c0.472-0.155,0.942-0.313,1.412-0.472c1.409-0.477,2.814-0.967,4.212-1.469c5.127-1.842,10.174-3.851,15.135-6.021
	c0.901-0.395,1.8-0.795,2.697-1.2c0.896-0.405,1.789-0.816,2.68-1.232c0.89-0.415,1.778-0.836,2.662-1.263
	c13.267-6.393,25.863-13.955,37.654-22.555c3.931-2.867,7.771-5.849,11.519-8.941l1.121-0.931c2.982-2.491,5.903-5.053,8.762-7.682
	l1.068-0.989c47.612-44.322,77.391-107.545,77.391-177.724L962.637,454.887z"/>
<path style="fill:#9A8EC2;" d="M1080.273,464.88c0-0.627-0.002-1.254-0.005-1.881l-0.004-0.591
	c-0.005-0.648-0.011-1.295-0.019-1.942l-0.006-0.41c-0.008-0.557-0.017-1.113-0.027-1.67l-0.011-0.583
	c-0.013-0.644-0.026-1.288-0.042-1.931l-0.014-0.515c-0.014-0.519-0.028-1.038-0.045-1.556l-0.019-0.607
	c-0.02-0.63-0.042-1.259-0.065-1.889l-0.023-0.599c-0.02-0.511-0.041-1.022-0.063-1.533l-0.023-0.551
	c-0.028-0.624-0.058-1.246-0.089-1.867l-0.034-0.67c-0.026-0.501-0.053-1.003-0.081-1.503l-0.029-0.529
	c-0.035-0.624-0.074-1.248-0.113-1.872l-0.04-0.647c-0.036-0.56-0.073-1.12-0.112-1.679l-0.039-0.558
	c-0.039-0.548-0.079-1.096-0.12-1.644l-0.052-0.682c-0.046-0.601-0.094-1.202-0.143-1.802l-0.052-0.623l-0.119-1.379l-0.065-0.75
	c-0.053-0.579-0.105-1.157-0.159-1.736l-0.073-0.757l-0.121-1.235l-0.082-0.802c-0.057-0.559-0.115-1.118-0.175-1.676l-0.096-0.883
	l-0.117-1.049l-0.107-0.951c-0.061-0.518-0.12-1.034-0.183-1.551l-0.115-0.95l-0.126-1.022l-0.173-1.358l-0.146-1.11l-0.133-0.999
	l-0.112-0.824c-0.085-0.612-0.17-1.224-0.258-1.835l-0.098-0.688l-0.172-1.179l-0.063-0.416c-0.111-0.746-0.226-1.49-0.342-2.235
	l-0.077-0.498c-0.204-1.305-0.416-2.606-0.636-3.906l-0.074-0.443c-0.227-1.337-0.461-2.672-0.703-4.003l-0.041-0.223
	c-0.252-1.391-0.513-2.779-0.782-4.164l-0.001-0.005c-19.317-99.445-79.53-184.281-162.421-236.323
	c50.211,61.936,80.312,140.838,80.312,226.782c0,199.042-237.341,574.129-360.396,574.129c-17.486,0-36.695-6.675-56.846-18.623
	c46.538,53.281,93.678,89.873,133.467,96.268l0.007,0.001c1,0.161,1.997,0.303,2.989,0.425l0.169,0.021l0.853,0.099l0.11,0.012
	c0.642,0.07,1.282,0.132,1.919,0.185l0.206,0.017l0.734,0.056l0.239,0.017l0.792,0.049l0.142,0.008l0.928,0.046l0.186,0.007
	l0.725,0.025l0.279,0.008l0.658,0.015l0.279,0.004l0.894,0.006c0.961,0,1.929-0.023,2.904-0.069
	c0.488-0.022,0.977-0.051,1.468-0.084c7.364-0.511,15.107-2.287,23.158-5.218c0.536-0.196,1.075-0.396,1.614-0.602
	c1.888-0.719,3.792-1.502,5.712-2.345c0.549-0.241,1.098-0.486,1.649-0.737c1.377-0.627,2.763-1.285,4.156-1.974
	c1.393-0.688,2.793-1.407,4.201-2.157l0.845-0.453c1.128-0.608,2.262-1.236,3.398-1.883c0.853-0.485,1.708-0.98,2.567-1.486
	c0.571-0.338,1.144-0.68,1.719-1.026l0.861-0.523c1.15-0.703,2.304-1.424,3.463-2.163c1.737-1.108,3.483-2.258,5.237-3.447
	c0.585-0.397,1.171-0.798,1.757-1.203l0.881-0.611c3.819-2.664,7.676-5.512,11.565-8.538c4.188-3.258,8.414-6.721,12.668-10.377
	l0.452-0.39l1.374-1.19l0.914-0.798c0.61-0.534,1.22-1.072,1.831-1.614l0.917-0.816c1.223-1.091,2.448-2.198,3.676-3.32
	c1.533-1.402,3.07-2.829,4.61-4.278c0.616-0.58,1.232-1.163,1.849-1.751c0.617-0.587,1.234-1.178,1.852-1.772
	c0.927-0.892,1.854-1.791,2.783-2.699c0.619-0.605,1.238-1.214,1.857-1.827c0.619-0.612,1.239-1.227,1.86-1.847
	c0.62-0.62,1.241-1.243,1.861-1.869c0.622-0.627,1.243-1.257,1.864-1.89l0.933-0.953c0.932-0.956,1.867-1.919,2.8-2.889
	c1.557-1.618,3.115-3.257,4.674-4.917l0.558-0.595c0.438-0.467,0.875-0.936,1.314-1.406c3.122-3.353,6.246-6.787,9.374-10.299
	c0.938-1.054,1.876-2.114,2.815-3.182c5.006-5.693,10.014-11.583,15.015-17.651c0.625-0.758,1.25-1.52,1.875-2.284
	c0.625-0.764,1.25-1.531,1.875-2.3c0.624-0.77,1.248-1.542,1.872-2.317c1.561-1.938,3.121-3.892,4.678-5.863
	c0.623-0.788,1.246-1.579,1.868-2.373c1.868-2.381,3.733-4.785,5.597-7.211c0.621-0.808,1.242-1.62,1.861-2.434
	c1.241-1.627,2.48-3.264,3.718-4.911c0.619-0.824,1.237-1.649,1.855-2.478c4.944-6.625,9.862-13.401,14.743-20.311
	c0.611-0.864,1.221-1.729,1.829-2.598c9.136-13.018,18.137-26.501,26.934-40.336c0.88-1.383,1.757-2.771,2.633-4.161
	c2.334-3.708,4.655-7.44,6.958-11.194c0.576-0.939,1.151-1.879,1.725-2.82c2.009-3.295,4.004-6.606,5.986-9.932
	c0.849-1.426,1.697-2.854,2.541-4.285c1.408-2.385,2.808-4.778,4.2-7.178c0.835-1.439,1.668-2.882,2.498-4.326
	c0.554-0.963,1.105-1.927,1.656-2.892c0.551-0.965,1.101-1.932,1.649-2.898c0.274-0.483,0.547-0.967,0.822-1.452
	c0.819-1.452,1.638-2.906,2.453-4.363c1.9-3.398,3.786-6.808,5.653-10.228c0.801-1.466,1.598-2.934,2.392-4.403
	c1.588-2.938,3.164-5.883,4.727-8.834c0.781-1.476,1.559-2.954,2.333-4.431c0.517-0.986,1.031-1.972,1.544-2.959
	c1.026-1.974,2.047-3.95,3.061-5.928c0.254-0.495,0.507-0.989,0.76-1.484c0.505-0.99,1.009-1.979,1.511-2.97
	c0.251-0.495,0.502-0.99,0.752-1.486c0.5-0.991,0.999-1.982,1.496-2.974c0.747-1.488,1.489-2.977,2.228-4.466
	c0.245-0.496,0.491-0.993,0.736-1.49c0.491-0.993,0.98-1.987,1.467-2.981c0.244-0.497,0.488-0.994,0.729-1.491
	c0.486-0.995,0.97-1.989,1.452-2.984c0.723-1.492,1.442-2.985,2.158-4.479c0.715-1.494,1.426-2.987,2.134-4.482
	c0.236-0.499,0.471-0.997,0.706-1.494c0.469-0.997,0.937-1.993,1.403-2.99c0.233-0.498,0.466-0.997,0.698-1.495
	c0.697-1.496,1.389-2.991,2.076-4.487c0.459-0.996,0.916-1.994,1.371-2.991c0.455-0.998,0.907-1.994,1.359-2.992
	c0.451-0.997,0.9-1.994,1.347-2.991c0.447-0.997,0.893-1.994,1.336-2.991c0.443-0.997,0.885-1.994,1.324-2.991
	c0.659-1.495,1.313-2.99,1.964-4.485c0.434-0.997,0.865-1.993,1.295-2.989c0.215-0.498,0.429-0.996,0.643-1.494
	c0.428-0.996,0.853-1.991,1.276-2.986c0.423-0.996,0.845-1.991,1.263-2.986c0.839-1.99,1.669-3.978,2.49-5.966
	c0.205-0.496,0.41-0.993,0.614-1.49c0.408-0.993,0.815-1.986,1.22-2.979c1.011-2.482,2.008-4.961,2.991-7.437
	c0.394-0.991,0.785-1.98,1.174-2.97c0.194-0.495,0.388-0.989,0.582-1.483c0.773-1.979,1.538-3.954,2.293-5.928
	c1.511-3.947,2.985-7.886,4.422-11.812c0.718-1.963,1.428-3.924,2.126-5.881c0.35-0.978,0.697-1.956,1.042-2.934
	c0.345-0.977,0.688-1.953,1.026-2.928c0.511-1.463,1.015-2.925,1.514-4.384c0.664-1.945,1.32-3.888,1.965-5.825
	c0.322-0.969,0.643-1.938,0.96-2.904c0.476-1.45,0.946-2.899,1.411-4.345c5.575-17.352,10.317-34.366,14.104-50.851
	c0.945-4.121,1.833-8.208,2.658-12.261c1.925-9.454,3.514-18.712,4.743-27.735c1.99-14.608,3.037-28.603,3.037-41.82
	L1080.273,464.88z"/>
<path style="fill:#C3BCDE;" d="M606.234,240.56c6.804-5.735,13.925-10.989,21.425-15.492c11.531-6.921,22.902-15.689,25.801-29.65
	c6.32-30.446-30.294-32.948-51.548-31.558c-60.923,3.984-111.097,42.335-146.307,90.352c-8.976,12.239-16.978,25.107-23.939,38.194
	c-15.216,28.607-30.547,72.184-5.682,100.125c14.053,15.792,39.536,16.816,57.747,6.085
	C500.076,330.065,545.495,272.795,606.234,240.56z"/>
<path style="fill:#C3BCDE;" d="M439.201,446.002c-2.296-5.679,0.174-12.258-2.072-17.943c-5.157-13.048-23.736-8.846-32.075-1.94
	c-3.855,3.192-7.493,6.706-10.351,10.815c-7.295,10.491-8.904,23.959-8.22,36.719c0.579,10.799,3.589,22.908,12.285,30.114
	c12.996,10.771,33.212,8.992,48.511,5.395c16.571-3.896,25.792-14.267,27.835-31.273
	C478.582,449.027,447.052,465.418,439.201,446.002z"/>
<path style="fill:#EBD2C6;" d="M823.504,235.553c27.195,39.217,43.145,86.823,43.145,138.161
	c0,134.073-108.688,242.76-242.762,242.76c-37.072,0-72.197-8.322-103.627-23.182c35.949,51.841,91.562,89.012,156.052,100.701
	l0.027,0.005c1.823,0.33,3.653,0.64,5.49,0.929l0.142,0.022c0.542,0.085,1.086,0.168,1.629,0.25l0.255,0.038
	c0.551,0.082,1.104,0.163,1.656,0.241l0.123,0.018c1.208,0.171,2.419,0.332,3.631,0.484l0.26,0.033
	c0.502,0.062,1.004,0.123,1.506,0.183l0.377,0.044c0.489,0.057,0.979,0.113,1.469,0.167l0.331,0.037
	c1.2,0.131,2.402,0.253,3.607,0.367l0.268,0.025c0.485,0.044,0.971,0.089,1.457,0.131l0.526,0.044l1.318,0.109l0.451,0.036
	c0.502,0.039,1.004,0.076,1.506,0.112l0.287,0.021c0.592,0.042,1.186,0.081,1.78,0.119l0.358,0.021l1.401,0.083l0.572,0.031
	l1.243,0.063l0.556,0.026l1.379,0.059l0.396,0.017c0.6,0.023,1.2,0.045,1.8,0.064l0.226,0.006c0.507,0.016,1.015,0.03,1.523,0.042
	l0.614,0.014l1.19,0.024l0.63,0.01l1.225,0.015l0.582,0.005c0.588,0.004,1.177,0.007,1.767,0.007c1.047,0,2.093-0.007,3.138-0.021
	c1.044-0.013,2.086-0.033,3.128-0.059c0.521-0.013,1.042-0.028,1.56-0.044c1.04-0.033,2.078-0.073,3.113-0.119
	c3.627-0.161,7.232-0.401,10.816-0.719c1.024-0.091,2.045-0.189,3.065-0.292c0.511-0.052,1.02-0.105,1.529-0.16
	c1.018-0.11,2.035-0.226,3.049-0.349c1.522-0.184,3.039-0.381,4.552-0.593c1.008-0.142,2.015-0.288,3.02-0.442
	c0.501-0.076,1.004-0.154,1.505-0.234c1.504-0.24,3.003-0.493,4.497-0.76c1.993-0.355,3.977-0.736,5.953-1.141
	c0.987-0.202,1.973-0.41,2.957-0.625c3.441-0.749,6.855-1.571,10.24-2.465c0.967-0.255,1.933-0.516,2.895-0.783
	c1.444-0.4,2.883-0.815,4.315-1.24c0.956-0.284,1.908-0.574,2.858-0.87c1.426-0.443,2.845-0.898,4.259-1.368
	c0.472-0.155,0.942-0.313,1.412-0.472c1.409-0.477,2.814-0.967,4.212-1.469c5.127-1.842,10.174-3.851,15.135-6.021
	c0.901-0.395,1.8-0.795,2.697-1.2c0.896-0.405,1.789-0.816,2.68-1.232c0.89-0.415,1.778-0.836,2.662-1.263
	c13.267-6.393,25.863-13.955,37.654-22.555c3.931-2.867,7.771-5.849,11.519-8.941l1.121-0.931c2.982-2.491,5.903-5.053,8.762-7.682
	l1.068-0.989c47.612-44.322,77.391-107.545,77.391-177.724l-0.001-0.244c-0.001-0.568-0.003-1.136-0.008-1.703l-0.006-0.685
	c-0.006-0.52-0.013-1.04-0.021-1.56l-0.007-0.449c-0.013-0.635-0.027-1.271-0.044-1.905l-0.018-0.648
	c-0.015-0.487-0.03-0.973-0.047-1.458l-0.02-0.571c-0.023-0.636-0.049-1.273-0.078-1.91l-0.027-0.543
	c-0.023-0.501-0.048-1.002-0.075-1.503l-0.032-0.596c-0.036-0.632-0.073-1.264-0.113-1.895l-0.032-0.486
	c-0.034-0.514-0.069-1.027-0.106-1.54l-0.043-0.588c-0.046-0.637-0.096-1.272-0.148-1.908l-0.022-0.258
	c-0.048-0.58-0.1-1.16-0.152-1.739l-0.054-0.591c-0.052-0.553-0.105-1.107-0.161-1.659l-0.032-0.328
	c-0.065-0.646-0.133-1.29-0.205-1.934l-0.055-0.503c-0.06-0.537-0.122-1.075-0.186-1.611l-0.049-0.42
	c-0.077-0.642-0.156-1.282-0.239-1.922l-0.061-0.468c-0.068-0.519-0.137-1.038-0.208-1.557l-0.068-0.499
	c-0.089-0.642-0.181-1.283-0.275-1.923l-0.049-0.33c-0.084-0.564-0.169-1.128-0.257-1.691l-0.067-0.43
	c-0.209-1.331-0.43-2.658-0.66-3.982l-0.063-0.357c-0.235-1.333-0.48-2.663-0.737-3.988l-0.068-0.353
	c-0.12-0.615-0.242-1.229-0.366-1.843l-0.028-0.139c-0.139-0.68-0.279-1.358-0.425-2.036l-0.041-0.192
	c-0.136-0.638-0.275-1.274-0.416-1.91l-0.033-0.15c-0.308-1.38-0.627-2.756-0.958-4.128l-0.028-0.117
	c-0.336-1.389-0.683-2.773-1.042-4.153l-0.009-0.033C936.525,323.648,887.746,265.924,823.504,235.553z"/>
<path style="fill:#FAF1ED;" d="M556.533,305.136c-0.429,0.514-0.854,1.031-1.275,1.552c-13.787,17.054-34.311,50.969-18.414,72.208
	c8.466,11.313,27.161,11.501,37.576,1.951c10.888-9.982,16.429-25.48,26.295-36.604c6.375-7.188,13.669-13.561,21.65-18.912
	c16.358-10.968,36.169-17.335,46.104-35.845c5.434-10.126,1.227-22.529-8.708-27.987c-12.293-6.754-28.646-1.692-41.01,2.24
	C594.684,271.395,572.745,285.728,556.533,305.136z"/>
<path style="fill:#FAF1ED;" d="M539.278,440.762c9.297-1.369,14.854-6.643,16.773-15.903c3.256-15.714-14.854-8.17-18.266-19.218
	c-0.998-3.231,0.668-6.735-0.302-9.967c-2.227-7.418-12.643-5.975-17.554-2.566c-2.27,1.577-4.434,3.339-6.199,5.466
	c-4.503,5.43-6.018,12.763-6.237,19.814c-0.186,5.968,0.904,12.77,5.351,17.14C519.49,442.059,530.693,442.025,539.278,440.762z"/>
<path style="fill:#D5ECF2;" d="M275.388,961.393c-15.606,109.245-57.224,260.108,57.224,317.331
	c72.83,36.415,161.267-5.202,223.692,52.021c72.83,57.224-46.819,72.83-72.83,114.447c-5.202,10.404,0,26.011,0,41.617
	c10.404,36.415,52.022,72.83,20.809,114.447c-8.505,14.885-19.619,27.16-32.983,37.54c46.988,14.092,95.146,25.099,143.716,32.862
	c-41.192-164.528,37.866-252.783,215.55-297.204c33.763,0,22.508-101.287-22.508-135.05c-78.779-67.525-213.829,0-292.608-45.017
	c-135.049-78.779-11.254-247.591-33.762-371.387c-2.372-7.114-4.618-14.478-6.831-21.972
	c-24.629-42.208-46.934-86.812-65.224-130.95c-11.127-8.006-24.399-13.592-40.487-15.89h-1.481
	c-13.465,15.035-26.416,30.54-38.826,46.487l-0.351,0.448c-1.098,1.414-2.191,2.833-3.282,4.254l-0.455,0.59
	c-1.073,1.4-2.139,2.806-3.204,4.212l-0.503,0.662c-1.033,1.369-2.061,2.743-3.087,4.119l-0.587,0.785
	c-0.892,1.198-1.777,2.4-2.662,3.604l-0.994,1.346c-0.935,1.275-1.864,2.555-2.792,3.835l-0.8,1.1
	c-0.755,1.045-1.504,2.094-2.254,3.142c-0.451,0.63-0.905,1.258-1.354,1.89c-0.694,0.974-1.381,1.952-2.07,2.929
	c-0.484,0.687-0.972,1.372-1.455,2.06c-0.737,1.052-1.469,2.107-2.202,3.162c-0.434,0.623-0.868,1.244-1.3,1.868
	c-0.679,0.983-1.352,1.969-2.027,2.954c-0.486,0.709-0.974,1.417-1.458,2.128c-0.656,0.964-1.306,1.932-1.959,2.898
	c-0.488,0.724-0.979,1.446-1.466,2.172c-0.614,0.915-1.223,1.836-1.833,2.754c-0.53,0.795-1.061,1.589-1.588,2.386
	c-0.599,0.908-1.193,1.819-1.789,2.73c-0.519,0.793-1.04,1.584-1.558,2.379c-0.696,1.071-1.387,2.146-2.079,3.22
	c-0.412,0.639-0.827,1.277-1.237,1.918c-0.615,0.961-1.225,1.925-1.836,2.888c-0.499,0.785-1,1.569-1.496,2.356
	c-0.492,0.78-0.978,1.563-1.468,2.345c-0.599,0.957-1.201,1.914-1.796,2.873c-0.483,0.779-0.961,1.561-1.442,2.341
	c-0.594,0.965-1.19,1.928-1.782,2.896c-0.487,0.798-0.97,1.599-1.455,2.398c-0.575,0.948-1.152,1.896-1.724,2.847
	c-0.519,0.863-1.033,1.729-1.549,2.594c-0.534,0.896-1.07,1.788-1.601,2.685c-0.494,0.836-0.983,1.674-1.474,2.511
	c-0.551,0.938-1.104,1.875-1.652,2.815c-0.45,0.773-0.895,1.548-1.342,2.322c-0.581,1.006-1.165,2.011-1.743,3.02
	c-0.433,0.756-0.861,1.516-1.293,2.273c-0.584,1.027-1.169,2.052-1.749,3.081c-0.444,0.789-0.884,1.581-1.326,2.372
	c-0.308,0.551-0.617,1.101-0.923,1.652C280.299,854.953,281.716,913.931,275.388,961.393z"/>
<path style="fill:#C0E4F2;" d="M156.239,1373.302c0.173,1.087,0.347,2.175,0.524,3.261c0.112,0.688,0.225,1.377,0.339,2.066
	c0.165,1.001,0.333,2,0.502,3c0.118,0.699,0.234,1.398,0.355,2.097c0.202,1.183,0.409,2.363,0.616,3.543
	c0.195,1.107,0.392,2.214,0.59,3.319c0.158,0.879,0.316,1.759,0.476,2.637c0.165,0.905,0.334,1.809,0.502,2.713
	c0.134,0.722,0.269,1.443,0.405,2.164c0.179,0.946,0.358,1.893,0.54,2.838c0.119,0.618,0.239,1.234,0.359,1.852
	c0.2,1.027,0.399,2.056,0.604,3.083l0.099,0.491c0.523,2.631,1.058,5.258,1.605,7.88l0.083,0.399
	c0.267,1.277,0.538,2.553,0.81,3.828l0.161,0.753c0.281,1.309,0.564,2.615,0.851,3.921l0.049,0.222
	c5.988,27.241,13.25,54.004,21.72,80.224c3.275,2.262,6.562,4.501,9.859,6.722c1.486,1.002,2.973,1.999,4.463,2.992l0.269,0.179
	c0.739,0.492,1.479,0.981,2.22,1.471c0.482,0.319,0.965,0.641,1.448,0.959c1.034,0.682,2.068,1.359,3.104,2.037
	c0.97,0.633,1.941,1.266,2.913,1.896l0.141,0.092l1.103,0.717c0.889,0.575,1.779,1.147,2.67,1.719l0.948,0.61l0.936,0.597
	c1.19,0.761,2.382,1.52,3.575,2.274l1.123,0.708c1.324,0.836,2.649,1.669,3.976,2.498l0.372,0.232
	c1.521,0.95,3.044,1.896,4.57,2.837l0.509,0.314l0.325,0.199c2.221,1.366,4.447,2.723,6.677,4.07
	c0.774,0.468,1.55,0.934,2.325,1.398c4.042,2.427,8.097,4.822,12.167,7.186c1.621,0.941,3.242,1.879,4.868,2.81
	c0.973,0.558,1.948,1.111,2.922,1.666c0.816,0.463,1.633,0.925,2.449,1.385c2.96,1.67,5.925,3.322,8.898,4.958
	c2.856,1.57,5.718,3.128,8.586,4.667l0.435,0.231c0.808,0.433,1.617,0.86,2.426,1.29c0.813,0.434,1.626,0.867,2.441,1.297
	c1.422,0.75,2.844,1.497,4.269,2.24c2.124,1.107,4.251,2.208,6.383,3.298c2.368,1.211,4.74,2.412,7.115,3.601l0.078,0.039
	c1.292,0.646,2.585,1.29,3.879,1.93c1.491,0.737,2.985,1.47,4.481,2.199l1,0.486l0.696,0.338c0.936,0.454,1.872,0.908,2.81,1.359
	l0.771,0.371c0.5,0.24,1.001,0.48,1.502,0.72c0.923,0.441,1.847,0.884,2.771,1.322l0.133,0.063c0.563,0.267,1.126,0.533,1.69,0.799
	c1.031,0.487,2.063,0.975,3.097,1.459c0.556,0.26,1.114,0.52,1.671,0.779c1.046,0.487,2.094,0.974,3.143,1.458
	c0.548,0.254,1.096,0.505,1.644,0.758c1.067,0.49,2.135,0.979,3.204,1.466c0.526,0.24,1.053,0.48,1.58,0.719
	c1.116,0.505,2.234,1.009,3.352,1.511c0.484,0.218,0.968,0.436,1.453,0.652c1.201,0.536,2.404,1.071,3.608,1.604l1.161,0.515
	c1.436,0.633,2.875,1.263,4.314,1.891l0.462,0.201c9.98,4.341,20.053,8.531,30.208,12.572l0.136,0.055
	c1.64,0.652,3.283,1.301,4.927,1.945l0.205,0.08c1.67,0.654,3.342,1.305,5.017,1.95h0.001c13.675,5.276,27.495,10.281,41.439,15.011
	l0.038,0.013c1.65,0.56,3.302,1.115,4.956,1.668l0.648,0.215c1.433,0.478,2.867,0.952,4.303,1.424l1.172,0.384
	c1.263,0.413,2.527,0.824,3.793,1.232c0.499,0.161,0.999,0.323,1.498,0.483c1.183,0.381,2.367,0.758,3.551,1.134
	c0.547,0.174,1.093,0.349,1.64,0.521c1.067,0.337,2.137,0.672,3.205,1.006c0.697,0.218,1.394,0.437,2.091,0.653
	c0.855,0.266,1.711,0.528,2.567,0.792c0.877,0.27,1.753,0.541,2.629,0.809l1.273,0.385c1.196,0.363,2.393,0.726,3.59,1.085
	c13.365-10.38,24.478-22.655,32.983-37.54c31.213-41.617-10.404-78.032-20.809-114.447c0-15.606-5.202-31.213,0-41.617
	c26.011-41.617,145.66-57.224,72.83-114.447c-62.426-57.224-150.862-15.606-223.692-52.021
	c-114.448-57.224-72.83-208.086-57.224-317.331c6.328-47.462,4.911-106.44-20.546-148.903l-0.003-0.005l-0.614,1.109l-0.247,0.445
	c-0.313,0.565-0.626,1.129-0.937,1.694l-0.077,0.14l-0.381,0.695l-0.592,1.08l-0.095,0.171c-0.297,0.543-0.593,1.086-0.889,1.63
	l-0.134,0.244c-0.343,0.63-0.685,1.26-1.027,1.892l-0.331,0.614c-0.417,0.773-0.835,1.547-1.25,2.322l-0.038,0.07l-0.443,0.831
	l-0.513,0.96l-0.063,0.117c-0.3,0.562-0.598,1.125-0.895,1.687l-0.077,0.146l-0.481,0.909l-0.468,0.885l-0.034,0.064
	c-0.543,1.032-1.084,2.064-1.623,3.099l-0.033,0.064l-0.376,0.724l-0.551,1.061l-0.096,0.184c-0.28,0.54-0.559,1.08-0.838,1.621
	l-0.111,0.216l-0.447,0.87l-0.435,0.846l-0.066,0.127c-0.412,0.805-0.822,1.611-1.231,2.417l-0.396,0.778
	c-0.286,0.565-0.57,1.132-0.856,1.698l-0.087,0.172c-0.305,0.605-0.609,1.21-0.913,1.816l-0.053,0.106l-0.512,1.024l-0.391,0.784
	l-0.04,0.081c-0.294,0.59-0.586,1.183-0.879,1.773l-0.175,0.353c-0.469,0.948-0.936,1.897-1.401,2.847l-0.107,0.218
	c-0.278,0.567-0.556,1.135-0.832,1.704l-0.046,0.096c-0.24,0.493-0.479,0.985-0.717,1.478l-0.166,0.342l-0.042,0.088
	c-0.314,0.649-0.626,1.298-0.938,1.948l-0.12,0.248c-0.404,0.843-0.808,1.687-1.21,2.531l-0.166,0.35
	c-0.299,0.629-0.599,1.258-0.896,1.889l-0.04,0.084c-0.292,0.62-0.585,1.241-0.876,1.861l-0.048,0.102
	c-0.294,0.627-0.587,1.253-0.879,1.88l-0.093,0.198c-0.269,0.576-0.538,1.151-0.805,1.727l-0.295,0.64
	c-0.399,0.863-0.798,1.728-1.194,2.592l-0.035,0.075l-0.423,0.927l-0.376,0.823l-0.054,0.119c-0.293,0.644-0.586,1.288-0.877,1.933
	l-0.067,0.149l-0.565,1.25l-0.227,0.503l-0.031,0.068c-0.485,1.079-0.968,2.16-1.45,3.241l-0.03,0.069l-0.128,0.289
	c-0.22,0.495-0.439,0.991-0.658,1.487l-0.065,0.148c-0.269,0.608-0.538,1.218-0.805,1.827l-0.057,0.129l-0.534,1.219l-0.279,0.637
	l-0.032,0.074c-0.334,0.765-0.665,1.531-0.996,2.297l-0.361,0.835c-0.283,0.657-0.565,1.315-0.847,1.973l-0.051,0.119
	c-0.279,0.653-0.558,1.306-0.836,1.959l-0.012,0.027c-0.27,0.634-0.538,1.268-0.807,1.903l-0.006,0.015
	c-0.351,0.831-0.7,1.663-1.049,2.495l-0.155,0.37c-0.274,0.656-0.547,1.313-0.819,1.969l-0.102,0.244
	c-0.303,0.73-0.605,1.459-0.905,2.189l-0.04,0.098c-0.24,0.583-0.479,1.167-0.718,1.751l-0.038,0.093
	c-0.317,0.775-0.631,1.551-0.946,2.326l-0.117,0.288c-0.246,0.608-0.492,1.216-0.736,1.825l-0.143,0.357
	c-0.343,0.853-0.685,1.707-1.025,2.561l-0.035,0.088l-0.044,0.114c-0.211,0.531-0.422,1.062-0.632,1.593l-0.033,0.085
	c-0.298,0.755-0.596,1.512-0.893,2.269l-0.021,0.055c-0.248,0.633-0.496,1.265-0.742,1.897c-0.422,1.083-0.842,2.168-1.259,3.253
	c-0.23,0.598-0.459,1.197-0.688,1.796c-0.29,0.759-0.579,1.519-0.867,2.279c-0.223,0.59-0.447,1.179-0.669,1.769
	c-0.437,1.16-0.872,2.322-1.303,3.484c-0.222,0.598-0.442,1.197-0.663,1.795c-0.293,0.795-0.586,1.59-0.877,2.386
	c-0.205,0.561-0.41,1.121-0.614,1.683l-0.003,0.01c-0.436,1.2-0.869,2.401-1.301,3.603l-0.021,0.061
	c-0.179,0.497-0.355,0.995-0.532,1.492l-0.052,0.144c-0.279,0.784-0.558,1.569-0.834,2.356l-0.01,0.026
	c-0.207,0.587-0.414,1.175-0.62,1.762c-0.403,1.151-0.804,2.304-1.203,3.457c-0.179,0.521-0.358,1.043-0.537,1.563
	c-0.307,0.893-0.613,1.787-0.917,2.682c-0.203,0.598-0.405,1.195-0.607,1.793L190.886,957c-0.296,0.878-0.59,1.757-0.884,2.637
	l-0.076,0.226c-0.197,0.593-0.394,1.186-0.591,1.778l-0.094,0.286c-0.311,0.939-0.62,1.879-0.927,2.819l-0.005,0.016
	c-0.183,0.559-0.365,1.118-0.546,1.677l-0.006,0.021c-0.285,0.879-0.569,1.759-0.852,2.64l-0.051,0.159l-0.427,1.331l-0.051,0.162
	c-0.385,1.209-0.768,2.42-1.148,3.632l-0.004,0.011c-0.168,0.535-0.334,1.072-0.502,1.607c-0.278,0.893-0.555,1.787-0.831,2.682
	c-0.156,0.506-0.314,1.013-0.468,1.519c-0.393,1.282-0.782,2.566-1.169,3.851c-0.143,0.477-0.285,0.954-0.428,1.431l-0.009,0.032
	c-0.272,0.911-0.544,1.822-0.813,2.734l-0.033,0.112c-0.143,0.483-0.286,0.968-0.428,1.452l-0.021,0.07
	c-0.37,1.261-0.738,2.523-1.102,3.787l-0.002,0.006c-0.15,0.518-0.297,1.037-0.446,1.555c-0.253,0.886-0.505,1.772-0.757,2.659
	c-0.158,0.559-0.317,1.118-0.473,1.677c-0.352,1.254-0.702,2.508-1.048,3.763l-0.36,1.315l-0.014,0.05
	c-0.267,0.973-0.532,1.947-0.796,2.921l-0.024,0.088c-0.139,0.512-0.276,1.024-0.414,1.537l-0.022,0.082
	c-0.286,1.064-0.569,2.129-0.85,3.195l-0.014,0.05l-0.369,1.399c-0.303,1.158-0.605,2.317-0.904,3.477
	c-0.139,0.541-0.278,1.082-0.417,1.623c-0.251,0.983-0.5,1.966-0.749,2.951l-0.331,1.308c-0.329,1.315-0.655,2.632-0.979,3.95
	c-0.126,0.514-0.251,1.029-0.376,1.542c-0.242,0.995-0.482,1.992-0.721,2.988l-0.326,1.357c-0.318,1.336-0.633,2.673-0.944,4.011
	c-0.11,0.473-0.219,0.947-0.328,1.421c-0.233,1.007-0.464,2.014-0.694,3.023c-0.107,0.474-0.216,0.949-0.323,1.423
	c-0.31,1.372-0.616,2.744-0.919,4.118l-0.236,1.08c-0.238,1.086-0.474,2.173-0.708,3.26c-0.109,0.504-0.217,1.008-0.325,1.513
	c-0.289,1.355-0.576,2.712-0.859,4.07l-0.202,0.979c-0.237,1.144-0.472,2.288-0.704,3.434l-0.279,1.378
	c-0.261,1.297-0.519,2.596-0.774,3.895l-0.132,0.671c-0.26,1.328-0.516,2.658-0.769,3.989c-0.096,0.501-0.19,1.002-0.285,1.504
	c-0.212,1.125-0.423,2.252-0.631,3.38l-0.188,1.011c-0.259,1.41-0.514,2.821-0.766,4.233l-0.231,1.309
	c-0.197,1.111-0.391,2.223-0.583,3.335l-0.209,1.209c-0.238,1.39-0.473,2.781-0.705,4.174l-0.226,1.373
	c-0.18,1.092-0.357,2.184-0.533,3.276l-0.2,1.244c-0.23,1.449-0.458,2.899-0.681,4.35l-0.142,0.928
	c-0.182,1.189-0.361,2.378-0.538,3.569l-0.19,1.28l-0.001,0.009c-0.212,1.439-0.421,2.88-0.626,4.322l-0.009,0.065l-0.001,0.006
	l-0.08,0.573l-0.03,0.214c-0.176,1.25-0.35,2.5-0.52,3.751l-0.002,0.015l-0.159,1.165c-0.191,1.415-0.38,2.83-0.565,4.247
	l-0.052,0.4c-0.183,1.407-0.36,2.815-0.536,4.225c-0.061,0.485-0.12,0.97-0.18,1.455c-0.153,1.247-0.304,2.493-0.453,3.741
	l-0.085,0.711c-0.171,1.453-0.338,2.907-0.502,4.363c-0.052,0.468-0.105,0.938-0.156,1.406c-0.128,1.158-0.255,2.316-0.379,3.476
	l-0.114,1.061c-0.156,1.474-0.308,2.947-0.457,4.422l-0.113,1.147c-0.118,1.185-0.233,2.37-0.347,3.556l-0.113,1.191
	c-0.139,1.481-0.274,2.964-0.406,4.448l-0.08,0.922c-0.11,1.254-0.217,2.51-0.322,3.766l-0.097,1.171
	c-0.124,1.51-0.245,3.021-0.361,4.532l-0.043,0.572c-0.102,1.345-0.201,2.691-0.297,4.037l-0.085,1.207
	c-0.105,1.499-0.208,2.999-0.305,4.499l-0.008,0.115c-0.098,1.51-0.189,3.021-0.28,4.532l-0.075,1.288
	c-0.078,1.337-0.153,2.674-0.225,4.012l-0.031,0.585c-0.081,1.521-0.157,3.046-0.229,4.569l-0.055,1.188
	c-0.057,1.244-0.112,2.488-0.165,3.733l-0.044,1.032c-0.061,1.502-0.118,3.004-0.172,4.508l-0.039,1.122
	c-0.042,1.236-0.083,2.475-0.12,3.712l-0.034,1.134c-0.044,1.507-0.084,3.016-0.12,4.525l-0.022,1.004
	c-0.028,1.243-0.054,2.486-0.077,3.73l-0.023,1.287c-0.026,1.521-0.049,3.045-0.067,4.569l-0.006,0.574
	c-0.015,1.346-0.026,2.691-0.036,4.038l-0.008,1.37c-0.008,1.53-0.013,3.062-0.013,4.594c0,1.575,0.006,3.149,0.015,4.723
	l0.003,0.686l0.001,0.459l0.01,1.097c0.012,1.413,0.026,2.825,0.043,4.237l0.005,0.496l0.011,0.827
	c0.025,1.772,0.055,3.542,0.09,5.311l0.029,1.274c0.03,1.42,0.064,2.84,0.102,4.257l0.001,0.048c0.013,0.491,0.026,0.983,0.04,1.476
	c0.046,1.632,0.095,3.264,0.15,4.894l0.018,0.545c0.062,1.794,0.129,3.586,0.202,5.377c0.019,0.47,0.039,0.938,0.059,1.406
	c0.06,1.429,0.122,2.856,0.189,4.283l0.061,1.299c0.087,1.809,0.179,3.615,0.277,5.421l0.033,0.579
	c0.089,1.614,0.183,3.228,0.281,4.84l0.081,1.32l0.004,0.057c0.101,1.623,0.206,3.246,0.315,4.867l0.035,0.532
	c0.126,1.837,0.257,3.672,0.395,5.506l0.038,0.515l0.039,0.491c0.117,1.548,0.239,3.096,0.364,4.641l0.057,0.705l0.027,0.335
	c0.143,1.729,0.292,3.457,0.444,5.184l0.074,0.838c0.15,1.678,0.303,3.354,0.462,5.03l0.089,0.924
	c0.164,1.702,0.332,3.403,0.505,5.103l0.028,0.28l0.013,0.131c0.195,1.903,0.396,3.805,0.604,5.705l0.034,0.305
	c0.193,1.761,0.392,3.521,0.595,5.278l0.045,0.392l0.001,0.01l0.035,0.298c0.437,3.743,0.896,7.481,1.38,11.21l0.029,0.229
	l0.001,0.008l0.045,0.338c0.235,1.802,0.475,3.602,0.721,5.398l0.003,0.021l0.018,0.137c0.529,3.853,1.082,7.699,1.66,11.537
	l0.026,0.176l0.036,0.232c0.207,1.367,0.416,2.732,0.629,4.097l0.02,0.131l0.087,0.552
	C156.053,1372.136,156.146,1372.718,156.239,1373.302z"/>
<path style="fill:#D5ECF2;" d="M1649.896,1041.164c-18.119-37.749-19.381-84.212-6.341-126.59
	c15.606-62.426,31.213-119.649,10.404-182.076c-20.809-67.628-93.639-130.054-166.469-104.043
	c-46.819,15.606-36.415,93.639-93.639,109.245c-46.82,10.404-78.033-36.415-119.65-57.224
	c-83.234-36.415-130.054,67.628-197.682,104.043c-26.011,10.405-52.021-5.202-67.628-26.011c-5.202-10.404-5.202-31.213,0-41.617
	c20.285-36.512,46.896-73.024,42.826-107.069c-0.272,0.8-0.546,1.601-0.821,2.403c-1.006,2.921-2.032,5.849-3.081,8.785
	c-1.049,2.936-2.12,5.879-3.211,8.828c-0.364,0.983-0.73,1.967-1.099,2.951c-1.105,2.953-2.231,5.912-3.379,8.875
	c-0.764,1.976-1.538,3.954-2.32,5.934c-0.782,1.98-1.573,3.962-2.373,5.946c-0.801,1.983-1.609,3.968-2.426,5.955
	c-0.817,1.987-1.644,3.975-2.478,5.964c-0.834,1.989-1.677,3.979-2.527,5.971c-0.425,0.995-0.854,1.991-1.282,2.987
	c-0.859,1.992-1.727,3.985-2.601,5.979c-0.875,1.993-1.758,3.987-2.648,5.981c-1.336,2.991-2.689,5.983-4.06,8.975
	c-1.371,2.991-2.758,5.982-4.162,8.972c-0.936,1.993-1.879,3.986-2.829,5.977s-1.907,3.983-2.872,5.973
	c-1.928,3.98-3.885,7.955-5.867,11.925c-0.496,0.992-0.993,1.984-1.492,2.975c-0.998,1.983-2.002,3.964-3.013,5.943
	c-1.011,1.98-2.028,3.956-3.051,5.932c-1.024,1.975-2.053,3.947-3.088,5.917c-1.553,2.955-3.12,5.904-4.7,8.848
	c-1.053,1.961-2.112,3.92-3.177,5.876c-1.064,1.956-2.134,3.909-3.21,5.858c-4.302,7.796-8.691,15.538-13.157,23.208
	c-2.233,3.835-4.485,7.651-6.754,11.448c-1.703,2.847-3.414,5.683-5.136,8.507c-1.148,1.882-2.299,3.76-3.455,5.631
	c-1.156,1.872-2.315,3.737-3.479,5.598c-1.164,1.86-2.331,3.714-3.502,5.562c-0.586,0.924-1.172,1.847-1.759,2.767
	c-1.763,2.762-3.533,5.51-5.311,8.244c-8.889,13.664-17.965,26.95-27.159,39.746c-1.226,1.706-2.454,3.404-3.684,5.092
	c-3.074,4.222-6.161,8.387-9.257,12.492c-1.238,1.642-2.477,3.274-3.719,4.897c-3.103,4.057-6.214,8.051-9.331,11.979
	c-1.246,1.572-2.494,3.132-3.742,4.683c-3.121,3.875-6.246,7.683-9.374,11.419c-3.752,4.483-7.509,8.863-11.263,13.133
	c-3.754,4.271-7.506,8.43-11.252,12.472c-2.498,2.695-4.993,5.337-7.483,7.926c-4.867,5.058-9.718,9.907-14.543,14.535
	c73.546,49.902,161.266,94.716,240.311,35.432c56.271-45.017,33.763-146.304,90.033-202.574
	c67.525-45.017,123.796,33.762,168.813,78.779c22.508,11.254,45.016,22.508,67.524,11.254
	c45.017-33.763,33.763-123.796,90.033-146.305c78.779-22.508,112.542,56.272,101.288,123.796
	c-22.509,101.287-146.305,146.304-101.288,236.337c21.014,39.399,52.442,68.981,89.569,89.181l0.012-0.021l-0.024-0.013
	C1602.655,1152.425,1628.744,1097.573,1649.896,1041.164z"/>
<path style="fill:#D5ECF2;" d="M1092.681,367.222c-8.759-0.753-17.545-1.409-26.377-1.9c0.16,0.556,0.314,1.114,0.472,1.67
	l0.186,0.655c0.164,0.584,0.325,1.169,0.486,1.755l0.246,0.902c0.15,0.555,0.301,1.11,0.449,1.665l0.254,0.963
	c0.263,0.997,0.521,1.996,0.775,2.996l0.251,0.987c0.141,0.556,0.278,1.113,0.415,1.67l0.238,0.974
	c0.135,0.553,0.269,1.106,0.4,1.66l0.233,0.989c0.244,1.039,0.483,2.08,0.719,3.122l0.193,0.857c0.126,0.56,0.249,1.122,0.371,1.684
	l0.231,1.069l0.222,1.021c6.294-7.94,13.01-15.552,20.109-22.752L1092.681,367.222L1092.681,367.222z"/>
<path style="fill:#C0E4F2;" d="M1092.556,367.21c-7.1,7.2-13.815,14.812-20.109,22.752l0.135,0.65l0.092,0.44
	c0.135,0.648,0.269,1.296,0.4,1.945l0.099,0.49c0.126,0.627,0.252,1.255,0.374,1.883l0.15,0.777c0.104,0.537,0.208,1.073,0.31,1.611
	c0.152,0.807,0.303,1.615,0.449,2.423l0.012,0.063c0.385,2.123,0.752,4.251,1.1,6.386c0.116,0.712,0.229,1.424,0.342,2.137
	l0.029,0.19c0.143,0.91,0.281,1.822,0.417,2.734l0.012,0.081c0.279,1.883,0.544,3.771,0.794,5.664l0.042,0.33
	c0.108,0.828,0.214,1.657,0.317,2.487l0.048,0.384c0.229,1.874,0.446,3.752,0.647,5.635l0.021,0.202
	c0.089,0.839,0.175,1.679,0.258,2.52l0.056,0.563c0.078,0.794,0.152,1.589,0.225,2.384l0.034,0.372
	c0.167,1.855,0.319,3.715,0.459,5.577l0.042,0.576c0.054,0.75,0.106,1.502,0.157,2.254l0.038,0.585
	c0.12,1.855,0.228,3.715,0.32,5.578l0.022,0.492c0.037,0.759,0.071,1.52,0.104,2.28l0.027,0.67c0.032,0.788,0.061,1.577,0.088,2.366
	l0.015,0.42c0.03,0.935,0.057,1.87,0.08,2.806l0.009,0.401c0.019,0.777,0.034,1.555,0.048,2.334l0.013,0.799
	c0.011,0.712,0.02,1.425,0.026,2.138l0.006,0.627c0.007,0.935,0.012,1.87,0.012,2.807c0,8.528-0.436,17.38-1.279,26.511
	c-0.064,0.702-0.132,1.406-0.202,2.112c-0.14,1.411-0.289,2.83-0.447,4.254c-0.158,1.424-0.326,2.855-0.504,4.292
	c-0.178,1.437-0.364,2.88-0.561,4.329c-0.098,0.725-0.198,1.451-0.301,2.179c-0.206,1.455-0.421,2.917-0.645,4.383
	c-1.008,6.602-2.2,13.322-3.569,20.146c-1.623,8.087-3.492,16.321-5.595,24.676c-1.636,6.499-3.411,13.07-5.319,19.705
	c-2.454,8.53-5.129,17.163-8.009,25.875c-0.32,0.968-0.643,1.938-0.968,2.907c-0.379,1.131-0.763,2.263-1.148,3.397l-0.01,0.032
	c4.069,34.045-22.541,70.557-42.826,107.069c-5.202,10.404-5.202,31.213,0,41.617c15.606,20.809,41.617,36.416,67.628,26.011
	c67.628-36.415,114.447-140.458,197.682-104.043c41.617,20.809,72.83,67.628,119.65,57.224
	c57.224-15.607,46.819-93.639,93.639-109.245c72.83-26.011,145.66,36.415,166.469,104.043
	c20.809,62.426,5.202,119.65-10.404,182.076c-13.04,42.378-11.778,88.842,6.341,126.59l0.007-0.016l-0.002-0.001
	c5.894-15.726,11.407-31.57,16.51-47.516l0.089-0.28c1.483-4.64,2.932-9.288,4.344-13.944l0.325-1.076
	c0.344-1.137,0.686-2.274,1.025-3.413l0.399-1.343c0.313-1.055,0.623-2.109,0.933-3.164c0.138-0.472,0.276-0.943,0.413-1.415
	c0.429-1.473,0.855-2.944,1.277-4.418c0.294-1.028,0.583-2.055,0.872-3.083l0.389-1.392c0.253-0.906,0.506-1.813,0.755-2.718
	c0.645-2.337,1.275-4.675,1.895-7.013c0.25-0.942,0.497-1.885,0.743-2.826l0.21-0.802c0.268-1.028,0.533-2.056,0.795-3.084
	l0.312-1.235c0.409-1.616,0.813-3.231,1.21-4.847c0.255-1.035,0.508-2.071,0.759-3.106c0.272-1.128,0.544-2.256,0.812-3.384
	l0.052-0.22l0.279-1.2c0.386-1.644,0.765-3.287,1.14-4.93c0.152-0.67,0.306-1.34,0.456-2.01l0.267-1.2l0.024-0.108
	c0.11-0.496,0.218-0.992,0.328-1.488c0.322-1.464,0.643-2.928,0.956-4.392l0.253-1.173l0.173-0.825
	c0.131-0.622,0.261-1.244,0.391-1.866c0.104-0.492,0.208-0.985,0.31-1.477l0.236-1.161l0.223-1.094
	c0.133-0.652,0.267-1.304,0.398-1.956l0.137-0.697l0.109-0.552c0.194-0.979,0.39-1.958,0.58-2.938l0.229-1.198
	c0.192-0.992,0.383-1.984,0.57-2.977c0.106-0.564,0.21-1.128,0.314-1.692l0.091-0.488c0.122-0.659,0.246-1.317,0.366-1.976
	l0.004-0.017l0.101-0.56c0.218-1.199,0.435-2.397,0.646-3.596l0.001-0.004c0.157-0.89,0.31-1.778,0.464-2.667
	c0.088-0.509,0.178-1.019,0.266-1.528c0.135-0.793,0.267-1.585,0.398-2.378c0.103-0.604,0.205-1.209,0.306-1.814
	c0.09-0.543,0.176-1.087,0.265-1.63c0.141-0.868,0.283-1.736,0.422-2.604l0.095-0.604c0.078-0.494,0.153-0.988,0.231-1.482
	c0.083-0.528,0.165-1.056,0.247-1.585c0.091-0.594,0.181-1.188,0.271-1.782l0.137-0.905l0.158-1.05
	c0.09-0.599,0.178-1.198,0.265-1.797l0.156-1.073l0.204-1.41l0.148-1.04c0.071-0.502,0.14-1.004,0.21-1.506
	c0.101-0.721,0.202-1.443,0.301-2.164l0.139-1.032l0.155-1.158c0.075-0.565,0.15-1.13,0.226-1.695l0.137-1.05
	c0.084-0.648,0.166-1.296,0.249-1.945c0.076-0.604,0.155-1.208,0.23-1.812l0.076-0.622l0.167-1.372
	c0.09-0.739,0.182-1.477,0.27-2.215l0.146-1.258c0.114-0.977,0.229-1.954,0.34-2.932l0.145-1.309
	c0.106-0.96,0.215-1.919,0.318-2.879l0.065-0.622c0.134-1.257,0.266-2.515,0.395-3.773l0.111-1.123
	c0.096-0.956,0.191-1.913,0.284-2.869l0.097-1.028l0.083-0.891c0.072-0.766,0.146-1.531,0.215-2.296l0.067-0.767
	c0.103-1.142,0.204-2.284,0.302-3.426l0.066-0.808c0.095-1.125,0.188-2.252,0.278-3.377l0.082-1.067
	c0.081-1.034,0.162-2.068,0.238-3.104l0.091-1.25c0.071-0.991,0.144-1.982,0.211-2.973l0.054-0.813l0.054-0.808
	c0.067-1.012,0.134-2.023,0.198-3.035l0.047-0.772c0.061-0.993,0.122-1.985,0.18-2.979l0.007-0.119l0.042-0.779
	c0.063-1.098,0.124-2.196,0.182-3.295l0.038-0.756l0.005-0.12l0.048-0.943c0.04-0.785,0.08-1.57,0.116-2.355l0.045-0.984
	c0.049-1.082,0.098-2.164,0.143-3.246l0.021-0.533l0.03-0.762c0.045-1.115,0.087-2.23,0.127-3.345l0.021-0.604
	c0.037-1.058,0.074-2.115,0.106-3.172l0.009-0.322c0.04-1.292,0.076-2.583,0.109-3.875l0.009-0.398
	c0.032-1.261,0.062-2.522,0.087-3.783l0.014-0.759c0.021-1.138,0.043-2.275,0.061-3.413l0.007-0.523l0.011-0.887
	c0.013-0.938,0.025-1.875,0.034-2.812l0.002-0.242l0.009-1.15c0.008-0.94,0.016-1.88,0.02-2.82v-0.133l0.003-0.991
	c0.003-1.025,0.006-2.05,0.006-3.076l-0.001-0.208c-0.001-0.489-0.003-0.978-0.005-1.466c-0.001-0.84-0.003-1.68-0.008-2.521
	l-0.002-0.184l-0.011-1.315c-0.005-0.727-0.012-1.455-0.019-2.182c-0.006-0.544-0.013-1.088-0.02-1.631l-0.004-0.349
	c-0.008-0.632-0.017-1.264-0.026-1.896l-0.021-1.358l-0.005-0.246c-0.02-1.161-0.04-2.321-0.064-3.482l-0.009-0.385
	c-0.024-1.147-0.053-2.295-0.083-3.442l-0.024-0.941l-0.009-0.307c-0.028-1.02-0.057-2.041-0.089-3.062l-0.015-0.506l-0.012-0.316
	c-0.038-1.233-0.08-2.467-0.125-3.7l-0.01-0.253l-0.024-0.622c-0.035-0.947-0.072-1.895-0.111-2.843l-0.055-1.32l-0.025-0.587
	c-0.03-0.701-0.061-1.402-0.093-2.102l-0.046-1.016l-0.041-0.841c-0.049-1.02-0.098-2.04-0.149-3.059l-0.011-0.2l-0.052-0.961
	c-0.054-1.017-0.108-2.034-0.165-3.051l-0.044-0.753c-0.06-1.049-0.122-2.098-0.186-3.147l-0.041-0.679l-0.053-0.829
	c-0.059-0.926-0.116-1.851-0.177-2.777l-0.019-0.293l-0.094-1.369c-0.058-0.843-0.114-1.687-0.174-2.531
	C1557.034,512.402,1339.512,388.363,1092.556,367.21z"/>
<path style="fill:#D5ECF2;" d="M1370.764,1340.693c-123.795-90.033-236.337,78.779-281.353,213.828
	c-7.857,28.285-13.075,57.228-15.786,86.396l0.04-0.013l0.003-0.039c45.184-14.654,89.012-32.999,131.095-55.141
	c0.576-3.507,1.179-7,1.812-10.479c10.404-52.021,72.83-119.649,104.043-78.032c3.969,4.274,7.646,8.766,11.078,13.443
	c1.02-0.787,2.039-1.575,3.055-2.368l0.149-0.116c2.614-2.039,5.218-4.098,7.812-6.174l0.706-0.567
	c1.008-0.809,2.015-1.62,3.021-2.435l1.119-0.909c0.864-0.703,1.728-1.408,2.59-2.115l1.319-1.085
	c0.813-0.67,1.625-1.342,2.437-2.016l1.279-1.063c0.868-0.724,1.734-1.45,2.601-2.179l1.129-0.949
	c1.223-1.031,2.442-2.067,3.66-3.107c0.994-0.85,1.985-1.703,2.975-2.56l0.985-0.854c0.731-0.635,1.462-1.273,2.19-1.911
	c0.585-0.513,1.167-1.025,1.749-1.539c0.532-0.47,1.063-0.939,1.594-1.41c0.617-0.549,1.234-1.099,1.85-1.649l0.392-0.352
	c20.375-18.273,39.692-37.862,58.108-58.368l0.017,0.044l0.025-0.029C1410.817,1386.163,1395.441,1359.201,1370.764,1340.693z"/>
<path style="fill:#87C7E8;" d="M1245.06,2077.041c-0.625,0.173-1.246,0.356-1.872,0.523
	c-121.022-102.391-184.729-273.109-169.522-436.659l-0.04,0.013c-72.443,23.49-148.37,37.486-226.174,42.416
	c-76.451,4.844-154.924,0.74-232.351-11.628c0.553,2.208,1.04,4.375,1.636,6.611c-2.462,0.703-4.891,1.451-7.286,2.241
	c-1.796,0.593-3.573,1.21-5.331,1.851c-1.171,0.427-2.335,0.864-3.489,1.313c-1.154,0.448-2.299,0.906-3.436,1.375
	c-0.568,0.234-1.133,0.471-1.697,0.71c-1.127,0.479-2.246,0.969-3.355,1.468c-1.109,0.5-2.21,1.009-3.3,1.528
	c-3.272,1.558-6.461,3.205-9.563,4.938c-0.517,0.289-1.032,0.581-1.544,0.875c-6.146,3.524-11.941,7.391-17.36,11.572l-1.346,1.052
	c-12.941,10.231-23.661,22.286-31.768,35.771c-0.279,0.466-0.556,0.933-0.829,1.4c-16.945,29.041-21.886,64.56-10.983,102.718
	c7.561,18.903,16.393,39.077,27.347,57.961l0.768,1.315c3.857,6.565,7.973,12.967,12.387,19.096l0.887,1.223
	c4.157,5.686,8.575,11.127,13.282,16.237l1.014,1.089c1.696,1.808,3.43,3.573,5.202,5.29c0.708,0.687,1.424,1.366,2.145,2.038
	c1.442,1.343,2.91,2.654,4.404,3.933c0.746,0.64,1.5,1.271,2.26,1.893c4.938,4.045,10.151,7.728,15.665,10.977l1.278,0.742
	c0.855,0.489,1.718,0.969,2.587,1.437c0.87,0.469,1.747,0.927,2.63,1.374c9.726,4.916,20.334,8.513,31.94,10.446
	c21.186,0,40.739,11.158,53.895,26.277l0.568,0.659c2.631,3.091,4.997,6.34,7.056,9.688c0.294,0.478,0.582,0.958,0.863,1.44
	c0.704,1.205,1.368,2.422,1.991,3.647c0.498,0.98,0.97,1.967,1.413,2.956c1.332,2.971,2.416,5.979,3.228,8.987l0.197,0.753
	c1.275,5.01,1.787,10.012,1.421,14.83c16.694,6.326,33.591,12.24,50.773,17.524l0.245,0.075c4.934,1.516,9.888,2.988,14.858,4.418
	l0.831,0.238c1.379,0.396,2.762,0.788,4.145,1.177l0.797,0.225c3.201,0.896,6.409,1.774,9.625,2.637l1.129,0.3
	c1.216,0.324,2.434,0.646,3.652,0.965l1.333,0.348c1.567,0.408,3.136,0.813,4.706,1.211l0.168,0.043
	c3.413,0.866,6.834,1.712,10.262,2.537c3.429,0.825,6.865,1.63,10.309,2.415l0.923,0.21c1.204,0.273,2.41,0.544,3.616,0.813
	l0.739,0.163c3.897,0.862,7.803,1.699,11.72,2.509l0.712,0.148c1.131,0.232,2.263,0.462,3.396,0.691l1.302,0.262
	c1.078,0.216,2.155,0.43,3.234,0.642c0.51,0.1,1.021,0.198,1.53,0.297c1.062,0.207,2.124,0.414,3.187,0.616l1.085,0.204
	c2.142,0.405,4.288,0.803,6.435,1.192c0.47,0.085,0.939,0.172,1.409,0.256c0.962,0.173,1.926,0.343,2.889,0.513
	c0.672,0.118,1.345,0.237,2.019,0.354c0.931,0.161,1.862,0.321,2.793,0.48c0.65,0.11,1.301,0.22,1.952,0.329
	c0.96,0.161,1.92,0.323,2.882,0.481c0.658,0.108,1.316,0.214,1.975,0.32c1.587,0.258,3.174,0.511,4.764,0.76
	c0.835,0.131,1.67,0.263,2.506,0.391c0.841,0.13,1.683,0.256,2.525,0.383c0.782,0.117,1.563,0.234,2.347,0.351
	c0.863,0.127,1.728,0.254,2.591,0.379c0.802,0.115,1.604,0.23,2.406,0.344c0.823,0.117,1.645,0.234,2.468,0.349
	c0.908,0.126,1.816,0.249,2.725,0.372c0.997,0.136,1.993,0.271,2.991,0.402c1.271,0.168,2.542,0.334,3.814,0.497
	c0.736,0.094,1.473,0.185,2.21,0.276c0.917,0.115,1.836,0.229,2.754,0.342c0.767,0.094,1.535,0.186,2.302,0.277
	c0.946,0.112,1.892,0.224,2.838,0.333c0.717,0.083,1.433,0.166,2.149,0.247c1.07,0.122,2.141,0.24,3.211,0.357
	c0.595,0.065,1.19,0.133,1.786,0.196c1.6,0.172,3.201,0.34,4.804,0.504c0.59,0.06,1.18,0.117,1.77,0.176
	c1.087,0.108,2.174,0.216,3.261,0.321c0.685,0.065,1.371,0.13,2.056,0.194c1.013,0.095,2.027,0.188,3.041,0.279
	c0.703,0.063,1.406,0.127,2.109,0.189c1.117,0.098,2.233,0.192,3.351,0.286c0.544,0.046,1.089,0.094,1.634,0.138
	c1.635,0.135,3.272,0.265,4.91,0.39c0.541,0.042,1.082,0.08,1.623,0.12c1.151,0.086,2.302,0.171,3.455,0.252
	c0.676,0.048,1.351,0.094,2.027,0.14c1.041,0.071,2.082,0.141,3.124,0.208c0.668,0.044,1.337,0.087,2.006,0.128
	c1.166,0.073,2.333,0.143,3.5,0.211c0.523,0.03,1.045,0.063,1.568,0.093c1.683,0.095,3.367,0.186,5.052,0.271l1.044,0.051
	c1.348,0.067,2.696,0.132,4.046,0.192c0.606,0.027,1.213,0.053,1.819,0.079c1.144,0.049,2.288,0.096,3.433,0.141
	c0.599,0.023,1.197,0.047,1.796,0.069c1.212,0.045,2.425,0.087,3.639,0.127c0.517,0.017,1.033,0.034,1.549,0.052
	c1.702,0.052,3.404,0.101,5.108,0.145l0.677,0.016c1.486,0.037,2.973,0.069,4.461,0.099c0.572,0.012,1.144,0.021,1.716,0.031
	c1.182,0.021,2.365,0.04,3.549,0.056c0.595,0.009,1.19,0.017,1.785,0.023c1.18,0.013,2.36,0.024,3.542,0.033
	c0.579,0.005,1.157,0.01,1.736,0.014c1.705,0.01,3.411,0.016,5.119,0.016h0.001c31.974,0,63.545-1.721,94.627-5.075
	c1.828-0.197,3.654-0.401,5.48-0.609c21.898-2.504,43.552-5.818,64.927-9.914c1.782-0.341,3.561-0.688,5.339-1.04
	c12.441-2.465,24.788-5.194,37.033-8.184c1.749-0.427,3.497-0.858,5.242-1.296c5.114-1.282,10.188-2.666,15.253-4.07
	L1245.06,2077.041z"/>
<path style="fill:#87C7E8;" d="M1888.985,1228.788c-0.011-1.297-0.022-2.594-0.038-3.889c-0.007-0.576-0.015-1.151-0.022-1.728
	c-0.017-1.188-0.036-2.376-0.057-3.563c-0.011-0.618-0.022-1.235-0.034-1.853c-0.024-1.211-0.052-2.421-0.082-3.631
	c-0.012-0.534-0.023-1.068-0.037-1.602c-0.037-1.432-0.079-2.86-0.122-4.29l-0.03-0.994c-0.057-1.771-0.118-3.539-0.185-5.307
	l-0.035-0.86c-0.056-1.438-0.114-2.875-0.177-4.311c-0.026-0.592-0.054-1.184-0.082-1.774c-0.053-1.16-0.107-2.319-0.164-3.478
	c-0.031-0.621-0.063-1.241-0.096-1.862c-0.059-1.133-0.119-2.265-0.183-3.396l-0.078-1.378l-0.12,0.026l0.014,0.199
	c-90.452,61.861-220.711,70.741-314.57,19.673l-0.012,0.021c-10.826,19.016-22.141,37.698-33.889,56.001
	c-34.717,54.085-73.048,107.733-116.53,156.153l-0.025,0.029c30.823,81.524,35.451,189.818,117.146,238.835
	c32.757,18.718,62.596,24.302,90.627,21l1.184-0.145c4.334-0.55,8.627-1.313,12.88-2.271l1.159-0.266
	c1.544-0.361,3.083-0.749,4.617-1.161c0.768-0.206,1.533-0.418,2.298-0.637c1.911-0.546,3.816-1.13,5.713-1.752
	c0.759-0.248,1.517-0.502,2.272-0.763c7.188-2.473,14.275-5.471,21.283-8.912c0.738-0.362,1.475-0.729,2.211-1.102
	c2.944-1.488,5.874-3.053,8.793-4.688l1.094-0.617c3.28-1.861,6.545-3.811,9.797-5.84c1.807-1.128,3.61-2.28,5.41-3.456
	c3.238-2.116,6.465-4.309,9.685-6.566l1.071-0.756c0.715-0.505,1.43-1.014,2.144-1.525l1.071-0.77
	c2.496-1.802,4.989-3.642,7.478-5.516l1.066-0.805c6.04-4.574,12.06-9.346,18.072-14.256l1.061-0.868
	c1.062-0.869,2.122-1.743,3.183-2.62c0.707-0.586,1.414-1.172,2.121-1.761c3.889-3.235,7.776-6.521,11.669-9.842
	c1.062-0.904,2.123-1.813,3.185-2.723c0.708-0.606,1.416-1.214,2.124-1.823c0.709-0.608,1.418-1.218,2.127-1.828
	c0.708-0.61,1.418-1.221,2.126-1.833l1.064-0.918c1.773-1.53,3.549-3.065,5.325-4.604c0.712-0.614,1.422-1.229,2.134-1.846
	c0.711-0.615,1.424-1.231,2.136-1.848c1.067-0.924,2.137-1.849,3.207-2.774c0.713-0.616,1.427-1.233,2.142-1.85
	c1.07-0.926,2.143-1.851,3.216-2.775c0.715-0.616,1.432-1.232,2.147-1.849c1.074-0.924,2.15-1.848,3.228-2.77
	c0.718-0.615,1.436-1.229,2.154-1.844c2.517-2.149,5.039-4.293,7.569-6.427c1.446-1.219,2.895-2.435,4.346-3.646l1.09-0.908
	c0.727-0.604,1.453-1.208,2.181-1.811c3.639-3.013,7.295-5.997,10.973-8.938c0.736-0.589,1.472-1.176,2.209-1.761
	c-0.389,1.022-0.818,2.024-1.222,3.04l0.249-0.252c37.257-97.002,57.771-202.306,57.771-312.426c0-1.773-0.008-3.544-0.018-5.315
	L1888.985,1228.788z"/>
<path style="fill:#ACDBEC;" d="M437.684,1886.613c-8.311-53.327-31.81-109.029-42.646-160.504c0-20.809-10.404-46.819,5.202-52.021
	c27.672-9.223,51.671-20.298,71-35.305c-1.178-0.354-2.354-0.713-3.531-1.07l-1.273-0.385c-0.877-0.268-1.752-0.539-2.629-0.809
	c-0.856-0.264-1.712-0.526-2.567-0.792c-0.698-0.217-1.394-0.436-2.091-0.653c-1.068-0.334-2.138-0.669-3.205-1.006
	c-0.547-0.173-1.093-0.348-1.64-0.521c-1.184-0.376-2.368-0.753-3.551-1.134c-0.499-0.16-0.998-0.322-1.498-0.483
	c-1.265-0.408-2.529-0.819-3.793-1.232l-1.172-0.384c-1.436-0.472-2.87-0.946-4.303-1.424l-0.648-0.215
	c-1.654-0.553-3.306-1.108-4.956-1.668l-0.038-0.013c-13.944-4.729-27.764-9.734-41.439-15.011h-0.001
	c-1.675-0.646-3.347-1.296-5.017-1.95l-0.205-0.08c-1.644-0.645-3.287-1.293-4.927-1.945l-0.136-0.055
	c-10.156-4.041-20.228-8.231-30.208-12.572l-0.462-0.201c-1.44-0.628-2.878-1.258-4.314-1.891l-1.161-0.515
	c-1.204-0.532-2.407-1.067-3.608-1.604c-0.484-0.217-0.968-0.435-1.453-0.652c-1.118-0.502-2.236-1.006-3.352-1.511
	c-0.527-0.239-1.054-0.479-1.58-0.719c-1.069-0.487-2.137-0.976-3.204-1.466c-0.548-0.253-1.096-0.504-1.644-0.758
	c-1.049-0.484-2.097-0.971-3.143-1.458c-0.557-0.26-1.115-0.52-1.671-0.779c-1.034-0.484-2.065-0.972-3.097-1.459
	c-0.564-0.266-1.128-0.532-1.69-0.799l-0.02-0.009l-0.113-0.055c-0.924-0.438-1.848-0.881-2.771-1.322
	c-0.501-0.239-1.002-0.479-1.502-0.72l-0.428-0.204l-0.343-0.167c-0.938-0.451-1.875-0.905-2.81-1.359
	c-0.49-0.238-0.982-0.475-1.471-0.714l-0.225-0.11c-1.496-0.729-2.99-1.462-4.481-2.199c-1.294-0.64-2.587-1.283-3.879-1.93
	l-0.078-0.039c-2.375-1.188-4.747-2.39-7.115-3.601c-2.131-1.09-4.258-2.19-6.383-3.298c-1.425-0.743-2.847-1.49-4.269-2.24
	c-0.815-0.43-1.628-0.863-2.441-1.297c-0.508-0.27-1.018-0.538-1.525-0.81l-0.901-0.48l-0.435-0.231
	c-2.868-1.539-5.73-3.097-8.586-4.667c-2.973-1.636-5.939-3.288-8.898-4.958c-0.47-0.265-0.941-0.529-1.411-0.795l-0.157-0.089
	l-0.881-0.501c-0.974-0.555-1.949-1.108-2.922-1.666c-1.625-0.931-3.247-1.868-4.868-2.81c-0.579-0.336-1.156-0.671-1.734-1.009
	l-0.975-0.567c-1.037-0.605-2.071-1.216-3.107-1.826l-0.637-0.375c-0.842-0.497-1.683-0.998-2.523-1.499l-1.257-0.747l-1.245-0.746
	l-0.69-0.416c-0.775-0.465-1.551-0.931-2.325-1.398l-0.006-0.004c-1.077-0.65-2.153-1.302-3.229-1.957
	c-0.549-0.335-1.097-0.672-1.645-1.009c-0.599-0.366-1.199-0.733-1.797-1.101l-0.325-0.199l-0.509-0.314
	c-1.526-0.94-3.049-1.887-4.57-2.837l-0.372-0.232c-1.327-0.829-2.652-1.661-3.976-2.498l-1.123-0.708
	c-1.192-0.755-2.384-1.514-3.575-2.274l-0.936-0.597l-0.948-0.61c-0.891-0.571-1.781-1.144-2.67-1.719l-1.103-0.717l-0.141-0.092
	c-0.972-0.63-1.943-1.262-2.913-1.896c-1.035-0.678-2.07-1.355-3.104-2.037c-1.224-0.807-2.447-1.616-3.668-2.43l-0.269-0.179
	c-1.49-0.993-2.977-1.99-4.463-2.992c-3.265-2.198-6.518-4.416-9.761-6.654C235.78,1652.964,323.171,1784.665,437.684,1886.613z"/>
<path style="fill:#ACDBEC;" d="M1700.778,1096.649c52.745,37.232,120.288,48.54,181.671,32.855
	c-19.692-162.389-84.059-310.952-180.393-433.13c0.091,1.273,0.176,2.545,0.261,3.818l0.019,0.293
	c0.08,1.202,0.155,2.404,0.229,3.605l0.041,0.679c0.081,1.329,0.16,2.658,0.235,3.987l0.006,0.108
	c0.054,0.952,0.104,1.903,0.153,2.855l0.052,0.961l0.011,0.2l0.011,0.209c0.063,1.231,0.122,2.461,0.18,3.691l0.046,1.016
	c0.041,0.896,0.081,1.793,0.118,2.689l0.055,1.32c0.039,0.947,0.076,1.895,0.111,2.843l0.024,0.622l0.01,0.253l0.008,0.203
	c0.046,1.272,0.089,2.543,0.129,3.814l0.015,0.506c0.035,1.122,0.067,2.247,0.098,3.369l0.024,0.941
	c0.03,1.147,0.058,2.295,0.083,3.442l0.009,0.385c0.026,1.243,0.048,2.485,0.069,3.728l0.021,1.358
	c0.011,0.748,0.021,1.497,0.03,2.245c0.007,0.544,0.014,1.088,0.02,1.631c0.012,1.166,0.022,2.331,0.029,3.497l0.002,0.184
	l0.001,0.134c0.004,0.796,0.006,1.591,0.007,2.387c0.002,0.488,0.004,0.978,0.005,1.466l0.001,0.208v0.139
	c0.001,1.309-0.002,2.619-0.009,3.928v0.133v0.14c-0.004,0.893-0.012,1.787-0.02,2.681l-0.009,1.15l-0.002,0.242v0.132
	c-0.013,1.189-0.028,2.378-0.045,3.567l-0.007,0.523l-0.002,0.118c-0.016,1.049-0.036,2.098-0.056,3.148l-0.003,0.148l-0.014,0.759
	l-0.002,0.159c-0.019,0.877-0.041,1.753-0.062,2.629l-0.023,0.995l-0.009,0.398l-0.005,0.194c-0.029,1.175-0.064,2.35-0.1,3.524
	l-0.005,0.157l-0.009,0.322l-0.004,0.156c-0.038,1.207-0.079,2.414-0.123,3.621c-0.04,1.115-0.082,2.231-0.127,3.345l-0.004,0.077
	l-0.026,0.685l-0.021,0.533l-0.007,0.186c-0.029,0.694-0.063,1.387-0.093,2.08l-0.043,0.979l-0.045,0.984l-0.006,0.127
	c-0.034,0.742-0.073,1.485-0.11,2.227l-0.048,0.943l-0.005,0.12l-0.038,0.756l-0.006,0.128c-0.07,1.315-0.143,2.631-0.218,3.945
	l-0.007,0.119l-0.006,0.114c-0.07,1.213-0.145,2.425-0.221,3.637c-0.064,1.012-0.131,2.023-0.198,3.035l-0.028,0.428l-0.025,0.38
	l-0.054,0.813l-0.009,0.137c-0.047,0.687-0.098,1.374-0.147,2.061l-0.055,0.774l-0.091,1.25l-0.007,0.106
	c-0.051,0.672-0.104,1.345-0.155,2.017l-0.076,0.98l-0.082,1.067l-0.01,0.127c-0.049,0.61-0.101,1.221-0.151,1.832
	c-0.039,0.472-0.078,0.945-0.117,1.418l-0.066,0.808l-0.013,0.141c-0.094,1.095-0.191,2.19-0.289,3.285l-0.067,0.767l-0.009,0.094
	c-0.066,0.734-0.137,1.467-0.206,2.202l-0.083,0.891l-0.097,1.028l-0.009,0.087c-0.125,1.301-0.254,2.603-0.387,3.905
	c-0.129,1.258-0.261,2.516-0.395,3.773l-0.065,0.622l-0.008,0.07c-0.078,0.728-0.161,1.455-0.241,2.182l-0.069,0.626l-0.145,1.309
	l-0.011,0.103c-0.076,0.667-0.155,1.334-0.233,2.002l-0.096,0.827l-0.146,1.258l-0.009,0.075c-0.14,1.17-0.283,2.341-0.428,3.513
	l-0.076,0.622l-0.004,0.037c-0.155,1.24-0.314,2.479-0.476,3.72l-0.137,1.05c-0.125,0.951-0.252,1.902-0.381,2.853l-0.139,1.032
	c-0.167,1.224-0.337,2.446-0.511,3.67l-0.148,1.04c-0.119,0.827-0.238,1.655-0.36,2.482c-0.087,0.599-0.175,1.198-0.265,1.797
	c-0.097,0.651-0.195,1.303-0.295,1.955c-0.09,0.594-0.18,1.188-0.271,1.782c-0.081,0.528-0.165,1.056-0.247,1.585
	c-0.078,0.494-0.153,0.988-0.231,1.482l-0.095,0.604l-0.011,0.066c-0.133,0.836-0.271,1.672-0.407,2.509l-0.004,0.028
	c-0.089,0.543-0.175,1.087-0.265,1.63l-0.006,0.036l-0.2,1.188l-0.1,0.591c-0.132,0.794-0.264,1.586-0.398,2.378
	c-0.088,0.509-0.178,1.018-0.266,1.528c-0.154,0.889-0.307,1.777-0.464,2.667l-0.001,0.004c-0.212,1.199-0.429,2.397-0.646,3.596
	l-0.101,0.56l-0.004,0.017c-0.12,0.659-0.244,1.317-0.366,1.976l-0.091,0.488c-0.104,0.564-0.208,1.128-0.314,1.692
	c-0.188,0.993-0.378,1.985-0.57,2.977l-0.229,1.198l-0.01,0.052c-0.223,1.146-0.451,2.292-0.68,3.438l-0.137,0.697l-0.007,0.031
	c-0.201,1.006-0.408,2.012-0.614,3.018l-0.236,1.161l-0.003,0.014c-0.229,1.11-0.462,2.22-0.697,3.33l-0.173,0.825l-0.004,0.02
	c-0.394,1.849-0.797,3.697-1.205,5.545c-0.11,0.496-0.218,0.992-0.328,1.488l-0.024,0.108l-0.267,1.2l-0.095,0.419
	c-0.119,0.531-0.241,1.06-0.361,1.591c-0.375,1.643-0.754,3.287-1.14,4.93l-0.027,0.116l-0.252,1.083l-0.052,0.22l-0.01,0.041
	c-0.264,1.113-0.531,2.226-0.801,3.339l-0.001,0.004c-0.251,1.035-0.504,2.071-0.759,3.106c-0.397,1.616-0.801,3.232-1.21,4.847
	l-0.312,1.235l-0.002,0.012c-0.262,1.024-0.526,2.048-0.793,3.072l-0.21,0.802l-0.33,1.261c-0.137,0.522-0.274,1.044-0.413,1.565
	c-0.619,2.337-1.25,4.675-1.895,7.013c-0.172,0.625-0.345,1.25-0.519,1.875l-0.236,0.843l-0.389,1.392
	c-0.289,1.028-0.578,2.056-0.872,3.083c-0.421,1.468-0.845,2.935-1.272,4.402l-0.005,0.016c-0.137,0.472-0.275,0.943-0.413,1.415
	c-0.31,1.055-0.62,2.109-0.933,3.164l-0.399,1.343c-0.34,1.138-0.682,2.275-1.025,3.413l-0.325,1.076
	c-1.412,4.657-2.86,9.305-4.344,13.944l-0.089,0.28c-5.103,15.946-10.616,31.791-16.51,47.516l0.002,0.001
	C1660.697,1063.644,1677.467,1083.051,1700.778,1096.649z"/>
<path style="fill:#C0E4F2;" d="M1321.667,1510.623c-3.423-4.665-7.092-9.145-11.05-13.408
	c-31.213-41.617-93.639,26.011-104.043,78.032c-0.633,3.479-1.235,6.972-1.812,10.479l-0.038,0.249h0.043l0.043-0.289
	c40.701-21.427,79.766-46.406,116.844-75.038l0.013,0.019V1510.623z"/>
<path style="fill:#ACDBEC;" d="M1204.811,1585.686c-19.818,120.487-6.443,257.207,54.145,362.84l0.057,0.102
	c0.602,1.049,1.209,2.093,1.82,3.135l0.137,0.235c0.582,0.99,1.169,1.978,1.759,2.963l0.246,0.411
	c0.551,0.916,1.105,1.829,1.663,2.74l0.388,0.633c0.542,0.881,1.087,1.759,1.636,2.635l0.396,0.634
	c0.54,0.858,1.084,1.714,1.632,2.568l0.469,0.732c0.526,0.817,1.055,1.632,1.587,2.444l0.543,0.829
	c0.512,0.777,1.027,1.553,1.545,2.326l0.625,0.934c0.502,0.745,1.006,1.487,1.513,2.228l0.681,0.992
	c0.49,0.712,0.982,1.423,1.479,2.131l0.757,1.079c0.485,0.688,0.973,1.376,1.463,2.062l0.789,1.1
	c0.479,0.666,0.962,1.329,1.445,1.991l0.852,1.16c0.48,0.652,0.964,1.304,1.449,1.953l0.848,1.128
	c0.485,0.646,0.973,1.289,1.463,1.93l0.929,1.208c0.465,0.603,0.93,1.203,1.397,1.804l1.003,1.274
	c0.464,0.589,0.93,1.177,1.398,1.764l1.018,1.266c0.463,0.573,0.926,1.146,1.393,1.718l1.084,1.316
	c0.456,0.553,0.912,1.105,1.371,1.654l1.114,1.324c0.459,0.544,0.919,1.088,1.382,1.629l1.144,1.328
	c0.46,0.532,0.919,1.064,1.382,1.595l1.183,1.341c0.46,0.521,0.918,1.039,1.381,1.557l1.188,1.317
	c0.474,0.523,0.946,1.048,1.423,1.568l1.205,1.305c0.468,0.507,0.937,1.014,1.408,1.518l1.305,1.383
	c0.451,0.476,0.902,0.954,1.356,1.429l1.346,1.391l1.357,1.397c0.466,0.476,0.936,0.946,1.405,1.419l1.32,1.329
	c0.486,0.484,0.977,0.966,1.466,1.447l1.314,1.293c0.47,0.456,0.943,0.909,1.416,1.363c0.469,0.451,0.936,0.903,1.406,1.352
	c0.467,0.444,0.938,0.883,1.407,1.324c0.477,0.447,0.95,0.896,1.429,1.341c0.509,0.474,1.023,0.941,1.536,1.412l1.328,1.218
	c0.537,0.486,1.08,0.969,1.62,1.452l1.304,1.167c0.554,0.491,1.114,0.978,1.672,1.465l1.271,1.11
	c0.593,0.512,1.191,1.019,1.788,1.527l1.202,1.026c0.997,0.842,2.001,1.678,3.01,2.509c1.259-0.502,2.517-1.007,3.773-1.515
	c2.512-1.016,5.019-2.042,7.519-3.081c2.501-1.037,4.996-2.087,7.484-3.147c2.489-1.061,4.972-2.132,7.448-3.215
	s4.947-2.177,7.412-3.282c65.313-29.289,126.36-66.379,181.956-110.086c1.049-0.825,2.096-1.652,3.142-2.481
	c7.315-5.806,14.535-11.726,21.657-17.759c2.035-1.724,4.063-3.456,6.081-5.198c21.197-18.291,41.503-37.586,60.846-57.812
	c0.921-0.963,1.839-1.929,2.756-2.896c4.584-4.836,9.112-9.726,13.585-14.666c9.84-10.87,19.409-21.989,28.697-33.347
	c1.689-2.065,3.369-4.138,5.039-6.219c2.506-3.122,4.989-6.261,7.453-9.417c1.642-2.104,3.274-4.216,4.896-6.335
	c8.928-11.658,17.566-23.549,25.908-35.66c-1.178,0.08-2.362,0.186-3.553,0.317c-0.596,0.065-1.193,0.138-1.792,0.217
	s-1.198,0.165-1.8,0.258c-0.903,0.138-1.811,0.292-2.721,0.462c-0.91,0.169-1.824,0.354-2.742,0.555
	c-0.611,0.133-1.225,0.274-1.84,0.422c-1.229,0.296-2.467,0.62-3.71,0.973c-0.699,0.199-1.4,0.407-2.104,0.625
	c-0.704,0.217-1.409,0.444-2.117,0.68c-1.416,0.473-2.84,0.982-4.272,1.531c-0.637,0.244-1.274,0.496-1.914,0.756l-0.962,0.395
	c-83.234,46.819-187.277,114.447-265.31,41.617c-0.595-0.554-1.182-1.111-1.765-1.673l-0.523-0.511l-1.21-1.185l-0.629-0.633
	l-1.066-1.077l-0.693-0.719l-0.972-1.013l-0.683-0.728l-0.978-1.053l-0.643-0.704l-0.967-1.073l-0.64-0.723l-0.942-1.076
	l-0.64-0.744l-0.915-1.078l-0.616-0.736l-0.919-1.114l-0.601-0.739l-0.919-1.149l-0.541-0.684l-0.954-1.229l-0.507-0.658
	l-0.984-1.306l-0.43-0.574c-0.351-0.473-0.697-0.947-1.043-1.423l-0.359-0.494c-0.416-0.575-0.826-1.152-1.234-1.733l-0.12-0.169
	c-0.349-0.496-0.694-0.994-1.038-1.494c-0.687-1-1.364-2.007-2.031-3.02c-1-1.52-1.979-3.052-2.938-4.6
	c-0.639-1.03-1.268-2.068-1.889-3.111l-0.025-0.044c-0.406-0.683-0.809-1.368-1.206-2.056l-0.022-0.039
	c-0.808-1.396-1.6-2.802-2.377-4.218l-0.004-0.007c-38.161-69.491-40.444-162.177-84.994-222.897
	C1284.576,1539.279,1245.512,1564.259,1204.811,1585.686z"/>
</svg>
